%TF.GenerationSoftware,KiCad,Pcbnew,10.0.1*%
%TF.CreationDate,2026-04-22T14:26:45+05:00*%
%TF.ProjectId,Nexus Cypher,4e657875-7320-4437-9970-6865722e6b69,rev?*%
%TF.SameCoordinates,Original*%
%TF.FileFunction,Copper,L2,Inr*%
%TF.FilePolarity,Positive*%
%FSLAX46Y46*%
G04 Gerber Fmt 4.6, Leading zero omitted, Abs format (unit mm)*
G04 Created by KiCad (PCBNEW 10.0.1) date 2026-04-22 14:26:45*
%MOMM*%
%LPD*%
G01*
G04 APERTURE LIST*
%TA.AperFunction,HeatsinkPad*%
%ADD10O,1.000000X2.100000*%
%TD*%
%TA.AperFunction,HeatsinkPad*%
%ADD11O,1.000000X1.600000*%
%TD*%
%TA.AperFunction,ComponentPad*%
%ADD12R,1.700000X1.700000*%
%TD*%
%TA.AperFunction,ComponentPad*%
%ADD13C,1.700000*%
%TD*%
%TA.AperFunction,ViaPad*%
%ADD14C,0.600000*%
%TD*%
G04 APERTURE END LIST*
D10*
%TO.N,GND*%
%TO.C,USB-C_RECEPTACLE*%
X224775000Y-48680000D03*
D11*
X224775000Y-44500000D03*
D10*
X216135000Y-48680000D03*
D11*
X216135000Y-44500000D03*
%TD*%
D12*
%TO.N,GND*%
%TO.C,J3*%
X233725000Y-82450000D03*
D13*
%TO.N,+3V3*%
X231185000Y-82450000D03*
%TO.N,/XX_SCL*%
X228645000Y-82450000D03*
%TO.N,/XX_SDA*%
X226105000Y-82450000D03*
%TD*%
D14*
%TO.N,GND*%
X214325000Y-88625000D03*
X205320000Y-79360000D03*
X207750000Y-68750000D03*
X215630000Y-61570000D03*
X222845000Y-55610000D03*
X220170000Y-58670000D03*
X214630000Y-56450000D03*
X214000000Y-73000000D03*
X207692947Y-87124999D03*
X223600000Y-70000000D03*
X225390000Y-63870000D03*
X220500000Y-66500000D03*
X227200000Y-62200000D03*
X216125000Y-49975000D03*
X211250000Y-66500000D03*
X217925000Y-83375000D03*
X223400000Y-66200000D03*
X233805000Y-80750000D03*
X222390000Y-63870000D03*
X234410000Y-45265000D03*
X210790000Y-68580000D03*
X228200000Y-67400000D03*
X202300000Y-87400000D03*
X214250000Y-66500000D03*
X207410000Y-57800000D03*
X212190000Y-73970000D03*
X204037500Y-84500000D03*
X208400000Y-66400000D03*
X219390000Y-63870000D03*
X223400000Y-73000000D03*
X216140000Y-63870000D03*
X226800000Y-55600000D03*
X231600000Y-67400000D03*
X215225000Y-80025000D03*
X206800000Y-72400000D03*
X217400000Y-66400000D03*
X204360000Y-52600000D03*
%TO.N,/XX_XTB*%
X209451000Y-76830000D03*
X208251000Y-78325000D03*
%TO.N,+1V1*%
X209530000Y-61700000D03*
X212440000Y-62170000D03*
%TO.N,/XX_IN*%
X206860000Y-61990000D03*
X212700000Y-60970000D03*
%TO.N,Net-(J2-CC2)*%
X218675000Y-51050000D03*
X221750000Y-54051000D03*
%TO.N,+3V3*%
X209800000Y-66400000D03*
X230200000Y-60600000D03*
X204850000Y-77912500D03*
X218400000Y-79200000D03*
X223840000Y-64070000D03*
X231205000Y-80750000D03*
X215150000Y-78550000D03*
X206800000Y-66400000D03*
X223200000Y-74600000D03*
X224525000Y-84725000D03*
X231050000Y-85250000D03*
X215800000Y-66400000D03*
X212800000Y-66400000D03*
X203994485Y-56005515D03*
X223400000Y-71600000D03*
X218800000Y-66400000D03*
X214730000Y-47770000D03*
X205260000Y-61120000D03*
X223400000Y-67800000D03*
X210275000Y-86150000D03*
X211750000Y-56850000D03*
X207850000Y-56350000D03*
X229800000Y-65400000D03*
X208650000Y-81100000D03*
%TO.N,/XX_SDA*%
X223350000Y-91575000D03*
X225350000Y-89700000D03*
%TO.N,VBUS2*%
X226300000Y-65500000D03*
X227200000Y-63200000D03*
%TO.N,Net-(U1-GPIO25)*%
X212902971Y-60196174D03*
X222495000Y-60190000D03*
%TO.N,/XX_VR_PA*%
X206860000Y-81780000D03*
X203194265Y-77545735D03*
%TO.N,/XX_DIO2*%
X210775000Y-82250000D03*
X205030000Y-76230000D03*
%TO.N,Net-(U2-VREG)*%
X206910000Y-77914272D03*
X204200000Y-86850000D03*
%TO.N,Net-(U2-DCC_SW)*%
X200716135Y-80758865D03*
X205411675Y-76933085D03*
%TO.N,/XX_NRST*%
X201379000Y-63650000D03*
X203095229Y-60250000D03*
%TO.N,/XX_NSS*%
X199376000Y-62180000D03*
X201480000Y-59670000D03*
%TO.N,/XX_RFO*%
X206205008Y-76830000D03*
X207440000Y-82930000D03*
%TO.N,/XX_RUN*%
X209440000Y-63900000D03*
X212910000Y-68470000D03*
%TO.N,Net-(C11-Pad1)*%
X212900000Y-63480000D03*
X217240000Y-61571000D03*
%TD*%
%TA.AperFunction,Conductor*%
%TO.N,GND*%
G36*
X215101254Y-43635110D02*
G01*
X215168252Y-43654922D01*
X215213906Y-43707813D01*
X215223717Y-43776991D01*
X215215574Y-43806561D01*
X215173430Y-43908306D01*
X215173427Y-43908318D01*
X215135000Y-44101504D01*
X215135000Y-44250000D01*
X215835000Y-44250000D01*
X215835000Y-44750000D01*
X215135000Y-44750000D01*
X215135000Y-44898495D01*
X215173427Y-45091681D01*
X215173430Y-45091693D01*
X215248807Y-45273671D01*
X215248814Y-45273684D01*
X215358248Y-45437462D01*
X215358251Y-45437466D01*
X215497533Y-45576748D01*
X215497537Y-45576751D01*
X215661315Y-45686185D01*
X215661328Y-45686192D01*
X215843308Y-45761569D01*
X215885000Y-45769862D01*
X215885000Y-44966988D01*
X215894940Y-44984205D01*
X215950795Y-45040060D01*
X216019204Y-45079556D01*
X216095504Y-45100000D01*
X216174496Y-45100000D01*
X216250796Y-45079556D01*
X216319205Y-45040060D01*
X216375060Y-44984205D01*
X216385000Y-44966988D01*
X216385000Y-45769862D01*
X216426690Y-45761569D01*
X216426692Y-45761569D01*
X216608671Y-45686192D01*
X216608684Y-45686185D01*
X216772462Y-45576751D01*
X216772466Y-45576748D01*
X216911748Y-45437466D01*
X216911751Y-45437462D01*
X217021185Y-45273684D01*
X217021192Y-45273671D01*
X217096569Y-45091693D01*
X217096572Y-45091681D01*
X217134999Y-44898495D01*
X217135000Y-44898492D01*
X217135000Y-44750000D01*
X216435000Y-44750000D01*
X216435000Y-44250000D01*
X217135000Y-44250000D01*
X217135000Y-44101508D01*
X217134999Y-44101504D01*
X217096572Y-43908318D01*
X217096570Y-43908310D01*
X217056064Y-43810520D01*
X217048595Y-43741051D01*
X217079870Y-43678572D01*
X217139959Y-43642919D01*
X217170857Y-43639067D01*
X223734417Y-43651617D01*
X223801415Y-43671429D01*
X223847069Y-43724320D01*
X223856880Y-43793498D01*
X223848737Y-43823068D01*
X223813430Y-43908306D01*
X223813427Y-43908318D01*
X223775000Y-44101504D01*
X223775000Y-44250000D01*
X224475000Y-44250000D01*
X224475000Y-44750000D01*
X223775000Y-44750000D01*
X223775000Y-44898495D01*
X223813427Y-45091681D01*
X223813430Y-45091693D01*
X223888807Y-45273671D01*
X223888814Y-45273684D01*
X223998248Y-45437462D01*
X223998251Y-45437466D01*
X224137533Y-45576748D01*
X224137537Y-45576751D01*
X224301315Y-45686185D01*
X224301328Y-45686192D01*
X224483308Y-45761569D01*
X224525000Y-45769862D01*
X224525000Y-44966988D01*
X224534940Y-44984205D01*
X224590795Y-45040060D01*
X224659204Y-45079556D01*
X224735504Y-45100000D01*
X224814496Y-45100000D01*
X224890796Y-45079556D01*
X224959205Y-45040060D01*
X225015060Y-44984205D01*
X225025000Y-44966988D01*
X225025000Y-45769862D01*
X225066690Y-45761569D01*
X225066692Y-45761569D01*
X225248671Y-45686192D01*
X225248684Y-45686185D01*
X225412462Y-45576751D01*
X225412466Y-45576748D01*
X225551748Y-45437466D01*
X225551751Y-45437462D01*
X225661185Y-45273684D01*
X225661192Y-45273671D01*
X225736569Y-45091693D01*
X225736572Y-45091681D01*
X225774999Y-44898495D01*
X225775000Y-44898492D01*
X225775000Y-44750000D01*
X225075000Y-44750000D01*
X225075000Y-44250000D01*
X225775000Y-44250000D01*
X225775000Y-44101508D01*
X225774999Y-44101504D01*
X225736572Y-43908318D01*
X225736569Y-43908306D01*
X225702913Y-43827052D01*
X225695444Y-43757583D01*
X225726719Y-43695104D01*
X225786808Y-43659452D01*
X225817704Y-43655600D01*
X235600738Y-43674306D01*
X235667739Y-43694119D01*
X235713393Y-43747010D01*
X235724500Y-43798306D01*
X235724500Y-91833416D01*
X235704815Y-91900455D01*
X235652011Y-91946210D01*
X235600635Y-91957416D01*
X224238134Y-91969803D01*
X224171073Y-91950191D01*
X224125261Y-91897437D01*
X224115242Y-91828290D01*
X224119343Y-91809791D01*
X224119727Y-91808518D01*
X224119737Y-91808497D01*
X224150500Y-91653842D01*
X224150500Y-91496158D01*
X224150500Y-91496155D01*
X224150499Y-91496153D01*
X224119738Y-91341510D01*
X224119737Y-91341503D01*
X224119735Y-91341498D01*
X224059397Y-91195827D01*
X224059390Y-91195814D01*
X223971789Y-91064711D01*
X223971786Y-91064707D01*
X223860292Y-90953213D01*
X223860288Y-90953210D01*
X223729185Y-90865609D01*
X223729172Y-90865602D01*
X223583501Y-90805264D01*
X223583489Y-90805261D01*
X223428845Y-90774500D01*
X223428842Y-90774500D01*
X223271158Y-90774500D01*
X223271155Y-90774500D01*
X223116510Y-90805261D01*
X223116498Y-90805264D01*
X222970827Y-90865602D01*
X222970814Y-90865609D01*
X222839711Y-90953210D01*
X222839707Y-90953213D01*
X222728213Y-91064707D01*
X222728210Y-91064711D01*
X222640609Y-91195814D01*
X222640602Y-91195827D01*
X222580264Y-91341498D01*
X222580261Y-91341510D01*
X222549500Y-91496153D01*
X222549500Y-91653846D01*
X222580262Y-91808496D01*
X222581248Y-91811746D01*
X222581263Y-91813531D01*
X222581451Y-91814472D01*
X222581272Y-91814507D01*
X222581871Y-91881613D01*
X222544621Y-91940725D01*
X222481327Y-91970315D01*
X222462722Y-91971739D01*
X197624635Y-91998817D01*
X197557574Y-91979205D01*
X197511762Y-91926451D01*
X197500500Y-91874817D01*
X197500500Y-89621153D01*
X224549500Y-89621153D01*
X224549500Y-89778846D01*
X224580261Y-89933489D01*
X224580264Y-89933501D01*
X224640602Y-90079172D01*
X224640609Y-90079185D01*
X224728210Y-90210288D01*
X224728213Y-90210292D01*
X224839707Y-90321786D01*
X224839711Y-90321789D01*
X224970814Y-90409390D01*
X224970827Y-90409397D01*
X225116498Y-90469735D01*
X225116503Y-90469737D01*
X225271153Y-90500499D01*
X225271156Y-90500500D01*
X225271158Y-90500500D01*
X225428844Y-90500500D01*
X225428845Y-90500499D01*
X225583497Y-90469737D01*
X225729179Y-90409394D01*
X225860289Y-90321789D01*
X225971789Y-90210289D01*
X226059394Y-90079179D01*
X226119737Y-89933497D01*
X226150500Y-89778842D01*
X226150500Y-89621158D01*
X226150500Y-89621155D01*
X226150499Y-89621153D01*
X226119738Y-89466510D01*
X226119737Y-89466503D01*
X226119735Y-89466498D01*
X226059397Y-89320827D01*
X226059390Y-89320814D01*
X225971789Y-89189711D01*
X225971786Y-89189707D01*
X225860292Y-89078213D01*
X225860288Y-89078210D01*
X225729185Y-88990609D01*
X225729172Y-88990602D01*
X225583501Y-88930264D01*
X225583489Y-88930261D01*
X225428845Y-88899500D01*
X225428842Y-88899500D01*
X225271158Y-88899500D01*
X225271155Y-88899500D01*
X225116510Y-88930261D01*
X225116498Y-88930264D01*
X224970827Y-88990602D01*
X224970814Y-88990609D01*
X224839711Y-89078210D01*
X224839707Y-89078213D01*
X224728213Y-89189707D01*
X224728210Y-89189711D01*
X224640609Y-89320814D01*
X224640602Y-89320827D01*
X224580264Y-89466498D01*
X224580261Y-89466510D01*
X224549500Y-89621153D01*
X197500500Y-89621153D01*
X197500500Y-86771153D01*
X203399500Y-86771153D01*
X203399500Y-86928846D01*
X203430261Y-87083489D01*
X203430264Y-87083501D01*
X203490602Y-87229172D01*
X203490609Y-87229185D01*
X203578210Y-87360288D01*
X203578213Y-87360292D01*
X203689707Y-87471786D01*
X203689711Y-87471789D01*
X203820814Y-87559390D01*
X203820827Y-87559397D01*
X203966498Y-87619735D01*
X203966503Y-87619737D01*
X204121153Y-87650499D01*
X204121156Y-87650500D01*
X204121158Y-87650500D01*
X204278844Y-87650500D01*
X204278845Y-87650499D01*
X204433497Y-87619737D01*
X204579179Y-87559394D01*
X204710289Y-87471789D01*
X204821789Y-87360289D01*
X204909394Y-87229179D01*
X204969737Y-87083497D01*
X205000500Y-86928842D01*
X205000500Y-86771158D01*
X205000500Y-86771155D01*
X205000499Y-86771153D01*
X204978447Y-86660292D01*
X204969737Y-86616503D01*
X204933569Y-86529185D01*
X204909397Y-86470827D01*
X204909390Y-86470814D01*
X204821789Y-86339711D01*
X204821786Y-86339707D01*
X204710292Y-86228213D01*
X204710288Y-86228210D01*
X204620429Y-86168168D01*
X204579185Y-86140609D01*
X204579172Y-86140602D01*
X204433501Y-86080264D01*
X204433489Y-86080261D01*
X204387701Y-86071153D01*
X209474500Y-86071153D01*
X209474500Y-86228846D01*
X209505261Y-86383489D01*
X209505264Y-86383501D01*
X209565602Y-86529172D01*
X209565609Y-86529185D01*
X209653210Y-86660288D01*
X209653213Y-86660292D01*
X209764707Y-86771786D01*
X209764711Y-86771789D01*
X209895814Y-86859390D01*
X209895827Y-86859397D01*
X210041498Y-86919735D01*
X210041503Y-86919737D01*
X210196153Y-86950499D01*
X210196156Y-86950500D01*
X210196158Y-86950500D01*
X210353844Y-86950500D01*
X210353845Y-86950499D01*
X210508497Y-86919737D01*
X210654179Y-86859394D01*
X210785289Y-86771789D01*
X210896789Y-86660289D01*
X210984394Y-86529179D01*
X211044737Y-86383497D01*
X211075500Y-86228842D01*
X211075500Y-86071158D01*
X211075500Y-86071155D01*
X211075499Y-86071153D01*
X211053269Y-85959397D01*
X211044737Y-85916503D01*
X211026215Y-85871786D01*
X210984397Y-85770827D01*
X210984390Y-85770814D01*
X210896789Y-85639711D01*
X210896786Y-85639707D01*
X210785292Y-85528213D01*
X210785288Y-85528210D01*
X210654185Y-85440609D01*
X210654172Y-85440602D01*
X210508501Y-85380264D01*
X210508489Y-85380261D01*
X210353845Y-85349500D01*
X210353842Y-85349500D01*
X210196158Y-85349500D01*
X210196155Y-85349500D01*
X210041510Y-85380261D01*
X210041498Y-85380264D01*
X209895827Y-85440602D01*
X209895814Y-85440609D01*
X209764711Y-85528210D01*
X209764707Y-85528213D01*
X209653213Y-85639707D01*
X209653210Y-85639711D01*
X209565609Y-85770814D01*
X209565602Y-85770827D01*
X209505264Y-85916498D01*
X209505261Y-85916510D01*
X209474500Y-86071153D01*
X204387701Y-86071153D01*
X204278845Y-86049500D01*
X204278842Y-86049500D01*
X204121158Y-86049500D01*
X204121155Y-86049500D01*
X203966510Y-86080261D01*
X203966498Y-86080264D01*
X203820827Y-86140602D01*
X203820814Y-86140609D01*
X203689711Y-86228210D01*
X203689707Y-86228213D01*
X203578213Y-86339707D01*
X203578210Y-86339711D01*
X203490609Y-86470814D01*
X203490602Y-86470827D01*
X203430264Y-86616498D01*
X203430261Y-86616510D01*
X203399500Y-86771153D01*
X197500500Y-86771153D01*
X197500500Y-84646153D01*
X223724500Y-84646153D01*
X223724500Y-84803846D01*
X223755261Y-84958489D01*
X223755264Y-84958501D01*
X223815602Y-85104172D01*
X223815609Y-85104185D01*
X223903210Y-85235288D01*
X223903213Y-85235292D01*
X224014707Y-85346786D01*
X224014711Y-85346789D01*
X224145814Y-85434390D01*
X224145827Y-85434397D01*
X224291498Y-85494735D01*
X224291503Y-85494737D01*
X224446153Y-85525499D01*
X224446156Y-85525500D01*
X224446158Y-85525500D01*
X224603844Y-85525500D01*
X224603845Y-85525499D01*
X224758497Y-85494737D01*
X224889182Y-85440606D01*
X224904172Y-85434397D01*
X224904172Y-85434396D01*
X224904179Y-85434394D01*
X225035289Y-85346789D01*
X225146789Y-85235289D01*
X225189643Y-85171153D01*
X230249500Y-85171153D01*
X230249500Y-85328846D01*
X230280261Y-85483489D01*
X230280264Y-85483501D01*
X230340602Y-85629172D01*
X230340609Y-85629185D01*
X230428210Y-85760288D01*
X230428213Y-85760292D01*
X230539707Y-85871786D01*
X230539711Y-85871789D01*
X230670814Y-85959390D01*
X230670827Y-85959397D01*
X230816498Y-86019735D01*
X230816503Y-86019737D01*
X230966131Y-86049500D01*
X230971153Y-86050499D01*
X230971156Y-86050500D01*
X230971158Y-86050500D01*
X231128844Y-86050500D01*
X231128845Y-86050499D01*
X231283497Y-86019737D01*
X231429179Y-85959394D01*
X231560289Y-85871789D01*
X231671789Y-85760289D01*
X231759394Y-85629179D01*
X231819737Y-85483497D01*
X231850500Y-85328842D01*
X231850500Y-85171158D01*
X231850500Y-85171155D01*
X231850499Y-85171153D01*
X231837176Y-85104174D01*
X231819737Y-85016503D01*
X231795712Y-84958501D01*
X231759397Y-84870827D01*
X231759390Y-84870814D01*
X231671789Y-84739711D01*
X231671786Y-84739707D01*
X231560292Y-84628213D01*
X231560288Y-84628210D01*
X231429185Y-84540609D01*
X231429172Y-84540602D01*
X231283501Y-84480264D01*
X231283489Y-84480261D01*
X231128845Y-84449500D01*
X231128842Y-84449500D01*
X230971158Y-84449500D01*
X230971155Y-84449500D01*
X230816510Y-84480261D01*
X230816498Y-84480264D01*
X230670827Y-84540602D01*
X230670814Y-84540609D01*
X230539711Y-84628210D01*
X230539707Y-84628213D01*
X230428213Y-84739707D01*
X230428210Y-84739711D01*
X230340609Y-84870814D01*
X230340602Y-84870827D01*
X230280264Y-85016498D01*
X230280261Y-85016510D01*
X230249500Y-85171153D01*
X225189643Y-85171153D01*
X225234394Y-85104179D01*
X225294737Y-84958497D01*
X225325500Y-84803842D01*
X225325500Y-84646158D01*
X225325500Y-84646155D01*
X225325499Y-84646153D01*
X225294738Y-84491510D01*
X225294737Y-84491503D01*
X225290081Y-84480263D01*
X225234397Y-84345827D01*
X225234390Y-84345814D01*
X225146789Y-84214711D01*
X225146786Y-84214707D01*
X225035292Y-84103213D01*
X225035288Y-84103210D01*
X224904185Y-84015609D01*
X224904172Y-84015602D01*
X224758501Y-83955264D01*
X224758489Y-83955261D01*
X224603845Y-83924500D01*
X224603842Y-83924500D01*
X224446158Y-83924500D01*
X224446155Y-83924500D01*
X224291510Y-83955261D01*
X224291498Y-83955264D01*
X224145827Y-84015602D01*
X224145814Y-84015609D01*
X224014711Y-84103210D01*
X224014707Y-84103213D01*
X223903213Y-84214707D01*
X223903210Y-84214711D01*
X223815609Y-84345814D01*
X223815602Y-84345827D01*
X223755264Y-84491498D01*
X223755261Y-84491510D01*
X223724500Y-84646153D01*
X197500500Y-84646153D01*
X197500500Y-81701153D01*
X206059500Y-81701153D01*
X206059500Y-81858846D01*
X206090261Y-82013489D01*
X206090264Y-82013501D01*
X206150602Y-82159172D01*
X206150609Y-82159185D01*
X206238210Y-82290288D01*
X206238213Y-82290292D01*
X206349707Y-82401786D01*
X206349711Y-82401789D01*
X206480814Y-82489390D01*
X206480827Y-82489397D01*
X206601182Y-82539249D01*
X206655586Y-82583089D01*
X206677651Y-82649384D01*
X206670313Y-82690159D01*
X206672030Y-82690680D01*
X206670260Y-82696511D01*
X206639500Y-82851153D01*
X206639500Y-83008846D01*
X206670261Y-83163489D01*
X206670264Y-83163501D01*
X206730602Y-83309172D01*
X206730609Y-83309185D01*
X206818210Y-83440288D01*
X206818213Y-83440292D01*
X206929707Y-83551786D01*
X206929711Y-83551789D01*
X207060814Y-83639390D01*
X207060827Y-83639397D01*
X207206498Y-83699735D01*
X207206503Y-83699737D01*
X207361153Y-83730499D01*
X207361156Y-83730500D01*
X207361158Y-83730500D01*
X207518844Y-83730500D01*
X207518845Y-83730499D01*
X207673497Y-83699737D01*
X207819179Y-83639394D01*
X207950289Y-83551789D01*
X208061789Y-83440289D01*
X208149394Y-83309179D01*
X208209737Y-83163497D01*
X208240500Y-83008842D01*
X208240500Y-82851158D01*
X208240500Y-82851155D01*
X208240499Y-82851153D01*
X208223608Y-82766239D01*
X208209737Y-82696503D01*
X208162760Y-82583089D01*
X208149397Y-82550827D01*
X208149390Y-82550814D01*
X208061789Y-82419711D01*
X208061786Y-82419707D01*
X207950292Y-82308213D01*
X207950288Y-82308210D01*
X207896374Y-82272186D01*
X207896373Y-82272185D01*
X207819179Y-82220606D01*
X207699788Y-82171153D01*
X209974500Y-82171153D01*
X209974500Y-82328846D01*
X210005261Y-82483489D01*
X210005264Y-82483501D01*
X210065602Y-82629172D01*
X210065609Y-82629185D01*
X210153210Y-82760288D01*
X210153213Y-82760292D01*
X210264707Y-82871786D01*
X210264711Y-82871789D01*
X210395814Y-82959390D01*
X210395827Y-82959397D01*
X210541498Y-83019735D01*
X210541503Y-83019737D01*
X210696153Y-83050499D01*
X210696156Y-83050500D01*
X210696158Y-83050500D01*
X210853844Y-83050500D01*
X210853845Y-83050499D01*
X211008497Y-83019737D01*
X211132403Y-82968414D01*
X211154172Y-82959397D01*
X211154172Y-82959396D01*
X211154179Y-82959394D01*
X211285289Y-82871789D01*
X211396789Y-82760289D01*
X211484394Y-82629179D01*
X211544737Y-82483497D01*
X211572542Y-82343713D01*
X224754500Y-82343713D01*
X224754500Y-82556286D01*
X224787753Y-82766239D01*
X224853444Y-82968414D01*
X224949951Y-83157820D01*
X225074890Y-83329786D01*
X225225213Y-83480109D01*
X225397179Y-83605048D01*
X225397181Y-83605049D01*
X225397184Y-83605051D01*
X225586588Y-83701557D01*
X225788757Y-83767246D01*
X225998713Y-83800500D01*
X225998714Y-83800500D01*
X226211286Y-83800500D01*
X226211287Y-83800500D01*
X226421243Y-83767246D01*
X226623412Y-83701557D01*
X226812816Y-83605051D01*
X226834789Y-83589086D01*
X226984786Y-83480109D01*
X226984788Y-83480106D01*
X226984792Y-83480104D01*
X227135104Y-83329792D01*
X227135106Y-83329788D01*
X227135109Y-83329786D01*
X227255921Y-83163501D01*
X227260051Y-83157816D01*
X227264514Y-83149054D01*
X227312488Y-83098259D01*
X227380308Y-83081463D01*
X227446444Y-83103999D01*
X227485486Y-83149056D01*
X227489951Y-83157820D01*
X227614890Y-83329786D01*
X227765213Y-83480109D01*
X227937179Y-83605048D01*
X227937181Y-83605049D01*
X227937184Y-83605051D01*
X228126588Y-83701557D01*
X228328757Y-83767246D01*
X228538713Y-83800500D01*
X228538714Y-83800500D01*
X228751286Y-83800500D01*
X228751287Y-83800500D01*
X228961243Y-83767246D01*
X229163412Y-83701557D01*
X229352816Y-83605051D01*
X229374789Y-83589086D01*
X229524786Y-83480109D01*
X229524788Y-83480106D01*
X229524792Y-83480104D01*
X229675104Y-83329792D01*
X229675106Y-83329788D01*
X229675109Y-83329786D01*
X229795921Y-83163501D01*
X229800051Y-83157816D01*
X229804514Y-83149054D01*
X229852488Y-83098259D01*
X229920308Y-83081463D01*
X229986444Y-83103999D01*
X230025486Y-83149056D01*
X230029951Y-83157820D01*
X230154890Y-83329786D01*
X230305213Y-83480109D01*
X230477179Y-83605048D01*
X230477181Y-83605049D01*
X230477184Y-83605051D01*
X230666588Y-83701557D01*
X230868757Y-83767246D01*
X231078713Y-83800500D01*
X231078714Y-83800500D01*
X231291286Y-83800500D01*
X231291287Y-83800500D01*
X231501243Y-83767246D01*
X231703412Y-83701557D01*
X231892816Y-83605051D01*
X231966125Y-83551789D01*
X232064784Y-83480110D01*
X232064784Y-83480109D01*
X232064792Y-83480104D01*
X232178717Y-83366178D01*
X232240036Y-83332696D01*
X232309728Y-83337680D01*
X232365662Y-83379551D01*
X232382577Y-83410528D01*
X232431646Y-83542088D01*
X232431649Y-83542093D01*
X232517809Y-83657187D01*
X232517812Y-83657190D01*
X232632906Y-83743350D01*
X232632913Y-83743354D01*
X232767620Y-83793596D01*
X232767627Y-83793598D01*
X232827155Y-83799999D01*
X232827172Y-83800000D01*
X233475000Y-83800000D01*
X233475000Y-82883012D01*
X233532007Y-82915925D01*
X233659174Y-82950000D01*
X233790826Y-82950000D01*
X233917993Y-82915925D01*
X233975000Y-82883012D01*
X233975000Y-83800000D01*
X234622828Y-83800000D01*
X234622844Y-83799999D01*
X234682372Y-83793598D01*
X234682379Y-83793596D01*
X234817086Y-83743354D01*
X234817093Y-83743350D01*
X234932187Y-83657190D01*
X234932190Y-83657187D01*
X235018350Y-83542093D01*
X235018354Y-83542086D01*
X235068596Y-83407379D01*
X235068598Y-83407372D01*
X235074999Y-83347844D01*
X235075000Y-83347827D01*
X235075000Y-82700000D01*
X234158012Y-82700000D01*
X234190925Y-82642993D01*
X234225000Y-82515826D01*
X234225000Y-82384174D01*
X234190925Y-82257007D01*
X234158012Y-82200000D01*
X235075000Y-82200000D01*
X235075000Y-81552172D01*
X235074999Y-81552155D01*
X235068598Y-81492627D01*
X235068596Y-81492620D01*
X235018354Y-81357913D01*
X235018350Y-81357906D01*
X234932190Y-81242812D01*
X234932187Y-81242809D01*
X234817093Y-81156649D01*
X234817086Y-81156645D01*
X234682379Y-81106403D01*
X234682372Y-81106401D01*
X234622844Y-81100000D01*
X233975000Y-81100000D01*
X233975000Y-82016988D01*
X233917993Y-81984075D01*
X233790826Y-81950000D01*
X233659174Y-81950000D01*
X233532007Y-81984075D01*
X233475000Y-82016988D01*
X233475000Y-81100000D01*
X232827155Y-81100000D01*
X232767627Y-81106401D01*
X232767620Y-81106403D01*
X232632913Y-81156645D01*
X232632906Y-81156649D01*
X232517812Y-81242809D01*
X232517809Y-81242812D01*
X232431649Y-81357906D01*
X232431646Y-81357912D01*
X232382577Y-81489471D01*
X232340705Y-81545404D01*
X232275241Y-81569821D01*
X232206968Y-81554969D01*
X232178714Y-81533818D01*
X232064790Y-81419894D01*
X232064785Y-81419890D01*
X231929231Y-81321405D01*
X231886565Y-81266076D01*
X231880586Y-81196462D01*
X231899015Y-81152195D01*
X231914394Y-81129179D01*
X231974737Y-80983497D01*
X232005500Y-80828842D01*
X232005500Y-80671158D01*
X232005500Y-80671155D01*
X232005499Y-80671153D01*
X231989298Y-80589707D01*
X231974737Y-80516503D01*
X231958876Y-80478210D01*
X231914397Y-80370827D01*
X231914390Y-80370814D01*
X231826789Y-80239711D01*
X231826786Y-80239707D01*
X231715292Y-80128213D01*
X231715288Y-80128210D01*
X231584185Y-80040609D01*
X231584172Y-80040602D01*
X231438501Y-79980264D01*
X231438489Y-79980261D01*
X231283845Y-79949500D01*
X231283842Y-79949500D01*
X231126158Y-79949500D01*
X231126155Y-79949500D01*
X230971510Y-79980261D01*
X230971498Y-79980264D01*
X230825827Y-80040602D01*
X230825814Y-80040609D01*
X230694711Y-80128210D01*
X230694707Y-80128213D01*
X230583213Y-80239707D01*
X230583210Y-80239711D01*
X230495609Y-80370814D01*
X230495602Y-80370827D01*
X230435264Y-80516498D01*
X230435261Y-80516510D01*
X230404500Y-80671153D01*
X230404500Y-80828846D01*
X230435261Y-80983489D01*
X230435264Y-80983501D01*
X230495602Y-81129171D01*
X230495603Y-81129172D01*
X230495606Y-81129179D01*
X230495609Y-81129183D01*
X230495611Y-81129187D01*
X230497914Y-81132634D01*
X230518791Y-81199312D01*
X230500305Y-81266692D01*
X230467696Y-81301841D01*
X230305214Y-81419890D01*
X230305209Y-81419894D01*
X230154890Y-81570213D01*
X230029949Y-81742182D01*
X230025484Y-81750946D01*
X229977509Y-81801742D01*
X229909688Y-81818536D01*
X229843553Y-81795998D01*
X229804516Y-81750946D01*
X229800050Y-81742182D01*
X229675109Y-81570213D01*
X229524786Y-81419890D01*
X229352820Y-81294951D01*
X229163414Y-81198444D01*
X229163413Y-81198443D01*
X229163412Y-81198443D01*
X228961243Y-81132754D01*
X228961241Y-81132753D01*
X228961240Y-81132753D01*
X228799957Y-81107208D01*
X228751287Y-81099500D01*
X228538713Y-81099500D01*
X228490042Y-81107208D01*
X228328760Y-81132753D01*
X228126585Y-81198444D01*
X227937179Y-81294951D01*
X227765213Y-81419890D01*
X227614890Y-81570213D01*
X227489949Y-81742182D01*
X227485484Y-81750946D01*
X227437509Y-81801742D01*
X227369688Y-81818536D01*
X227303553Y-81795998D01*
X227264516Y-81750946D01*
X227260050Y-81742182D01*
X227135109Y-81570213D01*
X226984786Y-81419890D01*
X226812820Y-81294951D01*
X226623414Y-81198444D01*
X226623413Y-81198443D01*
X226623412Y-81198443D01*
X226421243Y-81132754D01*
X226421241Y-81132753D01*
X226421240Y-81132753D01*
X226259957Y-81107208D01*
X226211287Y-81099500D01*
X225998713Y-81099500D01*
X225950042Y-81107208D01*
X225788760Y-81132753D01*
X225586585Y-81198444D01*
X225397179Y-81294951D01*
X225225213Y-81419890D01*
X225074890Y-81570213D01*
X224949951Y-81742179D01*
X224853444Y-81931585D01*
X224787753Y-82133760D01*
X224754500Y-82343713D01*
X211572542Y-82343713D01*
X211575500Y-82328845D01*
X211575500Y-82171155D01*
X211575499Y-82171153D01*
X211551380Y-82049901D01*
X211544737Y-82016503D01*
X211517191Y-81950000D01*
X211484397Y-81870827D01*
X211484390Y-81870814D01*
X211396789Y-81739711D01*
X211396786Y-81739707D01*
X211285292Y-81628213D01*
X211285288Y-81628210D01*
X211154185Y-81540609D01*
X211154172Y-81540602D01*
X211008501Y-81480264D01*
X211008489Y-81480261D01*
X210853845Y-81449500D01*
X210853842Y-81449500D01*
X210696158Y-81449500D01*
X210696155Y-81449500D01*
X210541510Y-81480261D01*
X210541498Y-81480264D01*
X210395827Y-81540602D01*
X210395814Y-81540609D01*
X210264711Y-81628210D01*
X210264707Y-81628213D01*
X210153213Y-81739707D01*
X210153210Y-81739711D01*
X210065609Y-81870814D01*
X210065602Y-81870827D01*
X210005264Y-82016498D01*
X210005261Y-82016510D01*
X209974500Y-82171153D01*
X207699788Y-82171153D01*
X207694240Y-82168855D01*
X207689827Y-82166599D01*
X207667910Y-82145844D01*
X207644413Y-82126909D01*
X207642801Y-82122066D01*
X207639095Y-82118557D01*
X207631878Y-82089249D01*
X207622348Y-82060615D01*
X207623398Y-82054808D01*
X207622390Y-82050714D01*
X207626098Y-82039878D01*
X207629720Y-82019855D01*
X207627969Y-82019324D01*
X207629731Y-82013509D01*
X207629737Y-82013497D01*
X207660500Y-81858842D01*
X207660500Y-81701158D01*
X207660500Y-81701155D01*
X207660499Y-81701153D01*
X207645990Y-81628211D01*
X207629737Y-81546503D01*
X207622322Y-81528602D01*
X207569397Y-81400827D01*
X207569390Y-81400814D01*
X207481789Y-81269711D01*
X207481786Y-81269707D01*
X207370292Y-81158213D01*
X207370288Y-81158210D01*
X207310361Y-81118168D01*
X207239185Y-81070609D01*
X207239172Y-81070602D01*
X207119790Y-81021153D01*
X207849500Y-81021153D01*
X207849500Y-81178846D01*
X207880261Y-81333489D01*
X207880264Y-81333501D01*
X207940602Y-81479172D01*
X207940609Y-81479185D01*
X208028210Y-81610288D01*
X208028213Y-81610292D01*
X208139707Y-81721786D01*
X208139711Y-81721789D01*
X208270814Y-81809390D01*
X208270827Y-81809397D01*
X208416498Y-81869735D01*
X208416503Y-81869737D01*
X208571153Y-81900499D01*
X208571156Y-81900500D01*
X208571158Y-81900500D01*
X208728844Y-81900500D01*
X208728845Y-81900499D01*
X208883497Y-81869737D01*
X209029179Y-81809394D01*
X209160289Y-81721789D01*
X209271789Y-81610289D01*
X209359394Y-81479179D01*
X209419737Y-81333497D01*
X209450500Y-81178842D01*
X209450500Y-81021158D01*
X209450500Y-81021155D01*
X209450499Y-81021153D01*
X209444770Y-80992354D01*
X209419737Y-80866503D01*
X209407810Y-80837709D01*
X209359397Y-80720827D01*
X209359390Y-80720814D01*
X209271789Y-80589711D01*
X209271786Y-80589707D01*
X209160292Y-80478213D01*
X209160288Y-80478210D01*
X209029185Y-80390609D01*
X209029172Y-80390602D01*
X208883501Y-80330264D01*
X208883489Y-80330261D01*
X208728845Y-80299500D01*
X208728842Y-80299500D01*
X208571158Y-80299500D01*
X208571155Y-80299500D01*
X208416510Y-80330261D01*
X208416498Y-80330264D01*
X208270827Y-80390602D01*
X208270814Y-80390609D01*
X208139711Y-80478210D01*
X208139707Y-80478213D01*
X208028213Y-80589707D01*
X208028210Y-80589711D01*
X207940609Y-80720814D01*
X207940602Y-80720827D01*
X207880264Y-80866498D01*
X207880261Y-80866510D01*
X207849500Y-81021153D01*
X207119790Y-81021153D01*
X207093501Y-81010264D01*
X207093489Y-81010261D01*
X206938845Y-80979500D01*
X206938842Y-80979500D01*
X206781158Y-80979500D01*
X206781155Y-80979500D01*
X206626510Y-81010261D01*
X206626498Y-81010264D01*
X206480827Y-81070602D01*
X206480814Y-81070609D01*
X206349711Y-81158210D01*
X206349707Y-81158213D01*
X206238213Y-81269707D01*
X206238210Y-81269711D01*
X206150609Y-81400814D01*
X206150602Y-81400827D01*
X206090264Y-81546498D01*
X206090261Y-81546510D01*
X206059500Y-81701153D01*
X197500500Y-81701153D01*
X197500500Y-80680018D01*
X199915635Y-80680018D01*
X199915635Y-80837711D01*
X199946396Y-80992354D01*
X199946399Y-80992366D01*
X200006737Y-81138037D01*
X200006744Y-81138050D01*
X200094345Y-81269153D01*
X200094348Y-81269157D01*
X200205842Y-81380651D01*
X200205846Y-81380654D01*
X200336949Y-81468255D01*
X200336962Y-81468262D01*
X200482633Y-81528600D01*
X200482638Y-81528602D01*
X200601132Y-81552172D01*
X200637288Y-81559364D01*
X200637291Y-81559365D01*
X200637293Y-81559365D01*
X200794979Y-81559365D01*
X200794980Y-81559364D01*
X200949632Y-81528602D01*
X201068951Y-81479179D01*
X201095307Y-81468262D01*
X201095307Y-81468261D01*
X201095314Y-81468259D01*
X201226424Y-81380654D01*
X201337924Y-81269154D01*
X201425529Y-81138044D01*
X201485872Y-80992362D01*
X201516635Y-80837707D01*
X201516635Y-80680023D01*
X201516635Y-80680020D01*
X201516634Y-80680018D01*
X201514871Y-80671153D01*
X201485872Y-80525368D01*
X201466339Y-80478210D01*
X201425532Y-80379692D01*
X201425525Y-80379679D01*
X201337924Y-80248576D01*
X201337921Y-80248572D01*
X201226427Y-80137078D01*
X201226423Y-80137075D01*
X201095320Y-80049474D01*
X201095307Y-80049467D01*
X200949636Y-79989129D01*
X200949624Y-79989126D01*
X200794980Y-79958365D01*
X200794977Y-79958365D01*
X200637293Y-79958365D01*
X200637290Y-79958365D01*
X200482645Y-79989126D01*
X200482633Y-79989129D01*
X200336962Y-80049467D01*
X200336949Y-80049474D01*
X200205846Y-80137075D01*
X200205842Y-80137078D01*
X200094348Y-80248572D01*
X200094345Y-80248576D01*
X200006744Y-80379679D01*
X200006737Y-80379692D01*
X199946399Y-80525363D01*
X199946396Y-80525375D01*
X199915635Y-80680018D01*
X197500500Y-80680018D01*
X197500500Y-77466888D01*
X202393765Y-77466888D01*
X202393765Y-77624581D01*
X202424526Y-77779224D01*
X202424529Y-77779236D01*
X202484867Y-77924907D01*
X202484874Y-77924920D01*
X202572475Y-78056023D01*
X202572478Y-78056027D01*
X202683972Y-78167521D01*
X202683976Y-78167524D01*
X202815079Y-78255125D01*
X202815092Y-78255132D01*
X202960763Y-78315470D01*
X202960768Y-78315472D01*
X203115418Y-78346234D01*
X203115421Y-78346235D01*
X203115423Y-78346235D01*
X203273109Y-78346235D01*
X203273110Y-78346234D01*
X203427762Y-78315472D01*
X203573444Y-78255129D01*
X203704554Y-78167524D01*
X203816054Y-78056024D01*
X203839544Y-78020867D01*
X203893153Y-77976063D01*
X203962478Y-77967354D01*
X204025506Y-77997507D01*
X204062227Y-78056949D01*
X204064263Y-78065565D01*
X204080262Y-78145992D01*
X204080264Y-78146001D01*
X204140602Y-78291672D01*
X204140609Y-78291685D01*
X204228210Y-78422788D01*
X204228213Y-78422792D01*
X204339707Y-78534286D01*
X204339711Y-78534289D01*
X204470814Y-78621890D01*
X204470827Y-78621897D01*
X204520672Y-78642543D01*
X204616503Y-78682237D01*
X204771153Y-78712999D01*
X204771156Y-78713000D01*
X204771158Y-78713000D01*
X204928844Y-78713000D01*
X204928845Y-78712999D01*
X205083497Y-78682237D01*
X205229179Y-78621894D01*
X205360289Y-78534289D01*
X205471789Y-78422789D01*
X205559394Y-78291679D01*
X205619737Y-78145997D01*
X205650500Y-77991342D01*
X205650500Y-77833658D01*
X205645904Y-77810553D01*
X205648250Y-77784330D01*
X205646798Y-77758040D01*
X205651315Y-77750076D01*
X205652131Y-77740961D01*
X205668280Y-77720171D01*
X205681273Y-77697268D01*
X205691064Y-77690839D01*
X205694993Y-77685783D01*
X205709867Y-77676578D01*
X205714853Y-77673959D01*
X205790854Y-77642479D01*
X205849816Y-77603080D01*
X205855603Y-77600042D01*
X205883699Y-77594405D01*
X205911042Y-77585844D01*
X205918926Y-77587339D01*
X205924108Y-77586300D01*
X205934121Y-77590220D01*
X205960709Y-77595263D01*
X205971506Y-77599735D01*
X205971511Y-77599737D01*
X206027730Y-77610919D01*
X206089638Y-77643303D01*
X206124213Y-77704018D01*
X206125154Y-77756727D01*
X206109500Y-77835425D01*
X206109500Y-77993118D01*
X206140261Y-78147761D01*
X206140264Y-78147773D01*
X206200602Y-78293444D01*
X206200609Y-78293457D01*
X206288210Y-78424560D01*
X206288213Y-78424564D01*
X206399707Y-78536058D01*
X206399711Y-78536061D01*
X206530814Y-78623662D01*
X206530827Y-78623669D01*
X206576394Y-78642543D01*
X206676503Y-78684009D01*
X206822245Y-78712999D01*
X206831153Y-78714771D01*
X206831156Y-78714772D01*
X206831158Y-78714772D01*
X206988844Y-78714772D01*
X206988845Y-78714771D01*
X207143497Y-78684009D01*
X207289179Y-78623666D01*
X207289184Y-78623662D01*
X207289187Y-78623661D01*
X207335134Y-78592960D01*
X207401811Y-78572081D01*
X207469192Y-78590565D01*
X207515882Y-78642543D01*
X207518587Y-78648607D01*
X207541606Y-78704179D01*
X207541609Y-78704185D01*
X207629210Y-78835288D01*
X207629213Y-78835292D01*
X207740707Y-78946786D01*
X207740711Y-78946789D01*
X207871814Y-79034390D01*
X207871827Y-79034397D01*
X208017498Y-79094735D01*
X208017503Y-79094737D01*
X208172153Y-79125499D01*
X208172156Y-79125500D01*
X208172158Y-79125500D01*
X208329844Y-79125500D01*
X208329845Y-79125499D01*
X208484497Y-79094737D01*
X208630179Y-79034394D01*
X208761289Y-78946789D01*
X208872789Y-78835289D01*
X208960394Y-78704179D01*
X208966389Y-78689707D01*
X208974067Y-78671166D01*
X209020737Y-78558497D01*
X209038111Y-78471153D01*
X214349500Y-78471153D01*
X214349500Y-78628846D01*
X214380261Y-78783489D01*
X214380264Y-78783501D01*
X214440602Y-78929172D01*
X214440609Y-78929185D01*
X214528210Y-79060288D01*
X214528213Y-79060292D01*
X214639707Y-79171786D01*
X214639711Y-79171789D01*
X214770814Y-79259390D01*
X214770827Y-79259397D01*
X214916498Y-79319735D01*
X214916503Y-79319737D01*
X215071153Y-79350499D01*
X215071156Y-79350500D01*
X215071158Y-79350500D01*
X215228844Y-79350500D01*
X215228845Y-79350499D01*
X215383497Y-79319737D01*
X215529179Y-79259394D01*
X215660289Y-79171789D01*
X215710925Y-79121153D01*
X217599500Y-79121153D01*
X217599500Y-79278846D01*
X217630261Y-79433489D01*
X217630264Y-79433501D01*
X217690602Y-79579172D01*
X217690609Y-79579185D01*
X217778210Y-79710288D01*
X217778213Y-79710292D01*
X217889707Y-79821786D01*
X217889711Y-79821789D01*
X218020814Y-79909390D01*
X218020827Y-79909397D01*
X218117646Y-79949500D01*
X218166503Y-79969737D01*
X218263993Y-79989129D01*
X218321153Y-80000499D01*
X218321156Y-80000500D01*
X218321158Y-80000500D01*
X218478844Y-80000500D01*
X218478845Y-80000499D01*
X218633497Y-79969737D01*
X218779179Y-79909394D01*
X218910289Y-79821789D01*
X219021789Y-79710289D01*
X219109394Y-79579179D01*
X219169737Y-79433497D01*
X219200500Y-79278842D01*
X219200500Y-79121158D01*
X219200500Y-79121155D01*
X219200499Y-79121153D01*
X219195245Y-79094738D01*
X219169737Y-78966503D01*
X219161570Y-78946786D01*
X219109397Y-78820827D01*
X219109390Y-78820814D01*
X219021789Y-78689711D01*
X219021786Y-78689707D01*
X218910292Y-78578213D01*
X218910288Y-78578210D01*
X218779185Y-78490609D01*
X218779172Y-78490602D01*
X218633501Y-78430264D01*
X218633489Y-78430261D01*
X218478845Y-78399500D01*
X218478842Y-78399500D01*
X218321158Y-78399500D01*
X218321155Y-78399500D01*
X218166510Y-78430261D01*
X218166498Y-78430264D01*
X218020827Y-78490602D01*
X218020814Y-78490609D01*
X217889711Y-78578210D01*
X217889707Y-78578213D01*
X217778213Y-78689707D01*
X217778210Y-78689711D01*
X217690609Y-78820814D01*
X217690602Y-78820827D01*
X217630264Y-78966498D01*
X217630261Y-78966510D01*
X217599500Y-79121153D01*
X215710925Y-79121153D01*
X215771789Y-79060289D01*
X215859394Y-78929179D01*
X215919737Y-78783497D01*
X215950500Y-78628842D01*
X215950500Y-78471158D01*
X215950500Y-78471155D01*
X215950499Y-78471153D01*
X215940879Y-78422789D01*
X215919737Y-78316503D01*
X215909452Y-78291672D01*
X215859397Y-78170827D01*
X215859390Y-78170814D01*
X215771789Y-78039711D01*
X215771786Y-78039707D01*
X215660292Y-77928213D01*
X215660288Y-77928210D01*
X215529185Y-77840609D01*
X215529172Y-77840602D01*
X215383501Y-77780264D01*
X215383489Y-77780261D01*
X215228845Y-77749500D01*
X215228842Y-77749500D01*
X215071158Y-77749500D01*
X215071155Y-77749500D01*
X214916510Y-77780261D01*
X214916498Y-77780264D01*
X214770827Y-77840602D01*
X214770814Y-77840609D01*
X214639711Y-77928210D01*
X214639707Y-77928213D01*
X214528213Y-78039707D01*
X214528210Y-78039711D01*
X214440609Y-78170814D01*
X214440602Y-78170827D01*
X214380264Y-78316498D01*
X214380261Y-78316510D01*
X214349500Y-78471153D01*
X209038111Y-78471153D01*
X209044134Y-78440874D01*
X209051500Y-78403844D01*
X209051500Y-78246155D01*
X209051499Y-78246153D01*
X209020737Y-78091503D01*
X209009993Y-78065565D01*
X208960397Y-77945827D01*
X208960390Y-77945814D01*
X208872789Y-77814711D01*
X208872786Y-77814707D01*
X208761292Y-77703213D01*
X208761288Y-77703210D01*
X208630185Y-77615609D01*
X208630172Y-77615602D01*
X208484501Y-77555264D01*
X208484489Y-77555261D01*
X208329845Y-77524500D01*
X208329842Y-77524500D01*
X208172158Y-77524500D01*
X208172155Y-77524500D01*
X208017510Y-77555261D01*
X208017498Y-77555264D01*
X207871827Y-77615602D01*
X207871818Y-77615607D01*
X207825861Y-77646314D01*
X207759183Y-77667190D01*
X207691803Y-77648704D01*
X207645114Y-77596724D01*
X207642421Y-77590687D01*
X207619394Y-77535093D01*
X207619390Y-77535086D01*
X207531789Y-77403983D01*
X207531786Y-77403979D01*
X207420292Y-77292485D01*
X207420288Y-77292482D01*
X207289185Y-77204881D01*
X207289172Y-77204874D01*
X207143501Y-77144536D01*
X207143489Y-77144533D01*
X207087279Y-77133352D01*
X207025368Y-77100967D01*
X206990794Y-77040252D01*
X206989853Y-76987543D01*
X206993659Y-76968413D01*
X207002504Y-76923945D01*
X207005508Y-76908844D01*
X207005508Y-76751155D01*
X207005507Y-76751153D01*
X208650500Y-76751153D01*
X208650500Y-76908846D01*
X208681261Y-77063489D01*
X208681264Y-77063501D01*
X208741602Y-77209172D01*
X208741609Y-77209185D01*
X208829210Y-77340288D01*
X208829213Y-77340292D01*
X208940707Y-77451786D01*
X208940711Y-77451789D01*
X209071814Y-77539390D01*
X209071827Y-77539397D01*
X209210229Y-77596724D01*
X209217503Y-77599737D01*
X209372153Y-77630499D01*
X209372156Y-77630500D01*
X209372158Y-77630500D01*
X209529844Y-77630500D01*
X209529845Y-77630499D01*
X209684497Y-77599737D01*
X209830179Y-77539394D01*
X209961289Y-77451789D01*
X210072789Y-77340289D01*
X210160394Y-77209179D01*
X210162910Y-77203106D01*
X210198596Y-77116950D01*
X210220737Y-77063497D01*
X210251500Y-76908842D01*
X210251500Y-76751158D01*
X210251500Y-76751155D01*
X210251499Y-76751153D01*
X210249338Y-76740288D01*
X210220737Y-76596503D01*
X210220735Y-76596498D01*
X210160397Y-76450827D01*
X210160390Y-76450814D01*
X210072789Y-76319711D01*
X210072786Y-76319707D01*
X209961292Y-76208213D01*
X209961288Y-76208210D01*
X209830185Y-76120609D01*
X209830172Y-76120602D01*
X209684501Y-76060264D01*
X209684489Y-76060261D01*
X209529845Y-76029500D01*
X209529842Y-76029500D01*
X209372158Y-76029500D01*
X209372155Y-76029500D01*
X209217510Y-76060261D01*
X209217498Y-76060264D01*
X209071827Y-76120602D01*
X209071814Y-76120609D01*
X208940711Y-76208210D01*
X208940707Y-76208213D01*
X208829213Y-76319707D01*
X208829210Y-76319711D01*
X208741609Y-76450814D01*
X208741602Y-76450827D01*
X208681264Y-76596498D01*
X208681261Y-76596510D01*
X208650500Y-76751153D01*
X207005507Y-76751153D01*
X207003346Y-76740288D01*
X206974745Y-76596503D01*
X206974743Y-76596498D01*
X206914405Y-76450827D01*
X206914398Y-76450814D01*
X206826797Y-76319711D01*
X206826794Y-76319707D01*
X206715300Y-76208213D01*
X206715296Y-76208210D01*
X206584193Y-76120609D01*
X206584180Y-76120602D01*
X206438509Y-76060264D01*
X206438497Y-76060261D01*
X206283853Y-76029500D01*
X206283850Y-76029500D01*
X206126166Y-76029500D01*
X206126163Y-76029500D01*
X205971518Y-76060261D01*
X205971506Y-76060264D01*
X205961993Y-76064205D01*
X205892523Y-76071672D01*
X205830045Y-76040396D01*
X205799982Y-75997095D01*
X205739397Y-75850827D01*
X205739390Y-75850814D01*
X205651789Y-75719711D01*
X205651786Y-75719707D01*
X205540292Y-75608213D01*
X205540288Y-75608210D01*
X205409185Y-75520609D01*
X205409172Y-75520602D01*
X205263501Y-75460264D01*
X205263489Y-75460261D01*
X205108845Y-75429500D01*
X205108842Y-75429500D01*
X204951158Y-75429500D01*
X204951155Y-75429500D01*
X204796510Y-75460261D01*
X204796498Y-75460264D01*
X204650827Y-75520602D01*
X204650814Y-75520609D01*
X204519711Y-75608210D01*
X204519707Y-75608213D01*
X204408213Y-75719707D01*
X204408210Y-75719711D01*
X204320609Y-75850814D01*
X204320602Y-75850827D01*
X204260264Y-75996498D01*
X204260261Y-75996510D01*
X204229500Y-76151153D01*
X204229500Y-76308846D01*
X204260261Y-76463489D01*
X204260264Y-76463501D01*
X204320602Y-76609172D01*
X204320609Y-76609185D01*
X204408210Y-76740288D01*
X204408213Y-76740292D01*
X204519707Y-76851786D01*
X204519712Y-76851790D01*
X204556064Y-76876079D01*
X204557630Y-76877953D01*
X204559932Y-76878771D01*
X204579914Y-76904616D01*
X204600870Y-76929690D01*
X204601638Y-76932713D01*
X204602668Y-76934046D01*
X204604656Y-76944598D01*
X204610706Y-76968413D01*
X204611175Y-76973792D01*
X204611175Y-77011927D01*
X204617093Y-77041681D01*
X204617684Y-77048455D01*
X204612075Y-77076316D01*
X204609542Y-77104626D01*
X204605270Y-77110124D01*
X204603897Y-77116950D01*
X204584117Y-77137354D01*
X204566679Y-77159803D01*
X204557271Y-77165049D01*
X204555266Y-77167118D01*
X204552331Y-77167804D01*
X204541607Y-77173785D01*
X204470820Y-77203106D01*
X204470814Y-77203109D01*
X204339711Y-77290710D01*
X204339707Y-77290713D01*
X204228213Y-77402207D01*
X204228210Y-77402211D01*
X204204720Y-77437367D01*
X204151108Y-77482172D01*
X204081783Y-77490879D01*
X204018755Y-77460724D01*
X203982036Y-77401281D01*
X203980001Y-77392667D01*
X203969582Y-77340289D01*
X203964002Y-77312238D01*
X203955085Y-77290710D01*
X203903662Y-77166562D01*
X203903655Y-77166549D01*
X203816054Y-77035446D01*
X203816051Y-77035442D01*
X203704557Y-76923948D01*
X203704553Y-76923945D01*
X203573450Y-76836344D01*
X203573437Y-76836337D01*
X203427766Y-76775999D01*
X203427754Y-76775996D01*
X203273110Y-76745235D01*
X203273107Y-76745235D01*
X203115423Y-76745235D01*
X203115420Y-76745235D01*
X202960775Y-76775996D01*
X202960763Y-76775999D01*
X202815092Y-76836337D01*
X202815079Y-76836344D01*
X202683976Y-76923945D01*
X202683972Y-76923948D01*
X202572478Y-77035442D01*
X202572475Y-77035446D01*
X202484874Y-77166549D01*
X202484867Y-77166562D01*
X202424529Y-77312233D01*
X202424526Y-77312245D01*
X202393765Y-77466888D01*
X197500500Y-77466888D01*
X197500500Y-74521153D01*
X222399500Y-74521153D01*
X222399500Y-74678846D01*
X222430261Y-74833489D01*
X222430264Y-74833501D01*
X222490602Y-74979172D01*
X222490609Y-74979185D01*
X222578210Y-75110288D01*
X222578213Y-75110292D01*
X222689707Y-75221786D01*
X222689711Y-75221789D01*
X222820814Y-75309390D01*
X222820827Y-75309397D01*
X222966498Y-75369735D01*
X222966503Y-75369737D01*
X223121153Y-75400499D01*
X223121156Y-75400500D01*
X223121158Y-75400500D01*
X223278844Y-75400500D01*
X223278845Y-75400499D01*
X223433497Y-75369737D01*
X223579179Y-75309394D01*
X223710289Y-75221789D01*
X223821789Y-75110289D01*
X223909394Y-74979179D01*
X223969737Y-74833497D01*
X224000500Y-74678842D01*
X224000500Y-74521158D01*
X224000500Y-74521155D01*
X224000499Y-74521153D01*
X223969738Y-74366510D01*
X223969737Y-74366503D01*
X223969735Y-74366498D01*
X223909397Y-74220827D01*
X223909390Y-74220814D01*
X223821789Y-74089711D01*
X223821786Y-74089707D01*
X223710292Y-73978213D01*
X223710288Y-73978210D01*
X223579185Y-73890609D01*
X223579172Y-73890602D01*
X223433501Y-73830264D01*
X223433489Y-73830261D01*
X223278845Y-73799500D01*
X223278842Y-73799500D01*
X223121158Y-73799500D01*
X223121155Y-73799500D01*
X222966510Y-73830261D01*
X222966498Y-73830264D01*
X222820827Y-73890602D01*
X222820814Y-73890609D01*
X222689711Y-73978210D01*
X222689707Y-73978213D01*
X222578213Y-74089707D01*
X222578210Y-74089711D01*
X222490609Y-74220814D01*
X222490602Y-74220827D01*
X222430264Y-74366498D01*
X222430261Y-74366510D01*
X222399500Y-74521153D01*
X197500500Y-74521153D01*
X197500500Y-71521153D01*
X222599500Y-71521153D01*
X222599500Y-71678846D01*
X222630261Y-71833489D01*
X222630264Y-71833501D01*
X222690602Y-71979172D01*
X222690609Y-71979185D01*
X222778210Y-72110288D01*
X222778213Y-72110292D01*
X222889707Y-72221786D01*
X222889711Y-72221789D01*
X223020814Y-72309390D01*
X223020827Y-72309397D01*
X223166498Y-72369735D01*
X223166503Y-72369737D01*
X223321153Y-72400499D01*
X223321156Y-72400500D01*
X223321158Y-72400500D01*
X223478844Y-72400500D01*
X223478845Y-72400499D01*
X223633497Y-72369737D01*
X223779179Y-72309394D01*
X223910289Y-72221789D01*
X224021789Y-72110289D01*
X224109394Y-71979179D01*
X224169737Y-71833497D01*
X224200500Y-71678842D01*
X224200500Y-71521158D01*
X224200500Y-71521155D01*
X224200499Y-71521153D01*
X224169738Y-71366510D01*
X224169737Y-71366503D01*
X224169735Y-71366498D01*
X224109397Y-71220827D01*
X224109390Y-71220814D01*
X224021789Y-71089711D01*
X224021786Y-71089707D01*
X223910292Y-70978213D01*
X223910288Y-70978210D01*
X223779185Y-70890609D01*
X223779172Y-70890602D01*
X223633501Y-70830264D01*
X223633489Y-70830261D01*
X223478845Y-70799500D01*
X223478842Y-70799500D01*
X223321158Y-70799500D01*
X223321155Y-70799500D01*
X223166510Y-70830261D01*
X223166498Y-70830264D01*
X223020827Y-70890602D01*
X223020814Y-70890609D01*
X222889711Y-70978210D01*
X222889707Y-70978213D01*
X222778213Y-71089707D01*
X222778210Y-71089711D01*
X222690609Y-71220814D01*
X222690602Y-71220827D01*
X222630264Y-71366498D01*
X222630261Y-71366510D01*
X222599500Y-71521153D01*
X197500500Y-71521153D01*
X197500500Y-68391153D01*
X212109500Y-68391153D01*
X212109500Y-68548846D01*
X212140261Y-68703489D01*
X212140264Y-68703501D01*
X212200602Y-68849172D01*
X212200609Y-68849185D01*
X212288210Y-68980288D01*
X212288213Y-68980292D01*
X212399707Y-69091786D01*
X212399711Y-69091789D01*
X212530814Y-69179390D01*
X212530827Y-69179397D01*
X212676498Y-69239735D01*
X212676503Y-69239737D01*
X212831153Y-69270499D01*
X212831156Y-69270500D01*
X212831158Y-69270500D01*
X212988844Y-69270500D01*
X212988845Y-69270499D01*
X213143497Y-69239737D01*
X213289179Y-69179394D01*
X213420289Y-69091789D01*
X213531789Y-68980289D01*
X213619394Y-68849179D01*
X213679737Y-68703497D01*
X213710500Y-68548842D01*
X213710500Y-68391158D01*
X213710500Y-68391155D01*
X213710499Y-68391153D01*
X213679737Y-68236503D01*
X213679735Y-68236498D01*
X213619397Y-68090827D01*
X213619390Y-68090814D01*
X213531789Y-67959711D01*
X213531786Y-67959707D01*
X213420292Y-67848213D01*
X213420288Y-67848210D01*
X213375327Y-67818168D01*
X213289185Y-67760609D01*
X213289172Y-67760602D01*
X213193932Y-67721153D01*
X222599500Y-67721153D01*
X222599500Y-67878846D01*
X222630261Y-68033489D01*
X222630264Y-68033501D01*
X222690602Y-68179172D01*
X222690609Y-68179185D01*
X222778210Y-68310288D01*
X222778213Y-68310292D01*
X222889707Y-68421786D01*
X222889711Y-68421789D01*
X223020814Y-68509390D01*
X223020827Y-68509397D01*
X223116062Y-68548844D01*
X223166503Y-68569737D01*
X223321153Y-68600499D01*
X223321156Y-68600500D01*
X223321158Y-68600500D01*
X223478844Y-68600500D01*
X223478845Y-68600499D01*
X223633497Y-68569737D01*
X223779179Y-68509394D01*
X223910289Y-68421789D01*
X224021789Y-68310289D01*
X224109394Y-68179179D01*
X224169737Y-68033497D01*
X224200500Y-67878842D01*
X224200500Y-67721158D01*
X224200500Y-67721155D01*
X224200499Y-67721153D01*
X224196343Y-67700261D01*
X224169737Y-67566503D01*
X224169735Y-67566498D01*
X224109397Y-67420827D01*
X224109390Y-67420814D01*
X224021789Y-67289711D01*
X224021786Y-67289707D01*
X223910292Y-67178213D01*
X223910288Y-67178210D01*
X223779185Y-67090609D01*
X223779172Y-67090602D01*
X223633501Y-67030264D01*
X223633489Y-67030261D01*
X223478845Y-66999500D01*
X223478842Y-66999500D01*
X223321158Y-66999500D01*
X223321155Y-66999500D01*
X223166510Y-67030261D01*
X223166498Y-67030264D01*
X223020827Y-67090602D01*
X223020814Y-67090609D01*
X222889711Y-67178210D01*
X222889707Y-67178213D01*
X222778213Y-67289707D01*
X222778210Y-67289711D01*
X222690609Y-67420814D01*
X222690602Y-67420827D01*
X222630264Y-67566498D01*
X222630261Y-67566510D01*
X222599500Y-67721153D01*
X213193932Y-67721153D01*
X213143501Y-67700264D01*
X213143489Y-67700261D01*
X212988845Y-67669500D01*
X212988842Y-67669500D01*
X212831158Y-67669500D01*
X212831155Y-67669500D01*
X212676510Y-67700261D01*
X212676498Y-67700264D01*
X212530827Y-67760602D01*
X212530814Y-67760609D01*
X212399711Y-67848210D01*
X212399707Y-67848213D01*
X212288213Y-67959707D01*
X212288210Y-67959711D01*
X212200609Y-68090814D01*
X212200602Y-68090827D01*
X212140264Y-68236498D01*
X212140261Y-68236510D01*
X212109500Y-68391153D01*
X197500500Y-68391153D01*
X197500500Y-66321153D01*
X205999500Y-66321153D01*
X205999500Y-66478846D01*
X206030261Y-66633489D01*
X206030264Y-66633501D01*
X206090602Y-66779172D01*
X206090609Y-66779185D01*
X206178210Y-66910288D01*
X206178213Y-66910292D01*
X206289707Y-67021786D01*
X206289711Y-67021789D01*
X206420814Y-67109390D01*
X206420827Y-67109397D01*
X206566498Y-67169735D01*
X206566503Y-67169737D01*
X206721153Y-67200499D01*
X206721156Y-67200500D01*
X206721158Y-67200500D01*
X206878844Y-67200500D01*
X206878845Y-67200499D01*
X207033497Y-67169737D01*
X207179179Y-67109394D01*
X207310289Y-67021789D01*
X207421789Y-66910289D01*
X207509394Y-66779179D01*
X207569737Y-66633497D01*
X207600500Y-66478842D01*
X207600500Y-66321158D01*
X207600500Y-66321155D01*
X207600499Y-66321153D01*
X208999500Y-66321153D01*
X208999500Y-66478846D01*
X209030261Y-66633489D01*
X209030264Y-66633501D01*
X209090602Y-66779172D01*
X209090609Y-66779185D01*
X209178210Y-66910288D01*
X209178213Y-66910292D01*
X209289707Y-67021786D01*
X209289711Y-67021789D01*
X209420814Y-67109390D01*
X209420827Y-67109397D01*
X209566498Y-67169735D01*
X209566503Y-67169737D01*
X209721153Y-67200499D01*
X209721156Y-67200500D01*
X209721158Y-67200500D01*
X209878844Y-67200500D01*
X209878845Y-67200499D01*
X210033497Y-67169737D01*
X210179179Y-67109394D01*
X210310289Y-67021789D01*
X210421789Y-66910289D01*
X210509394Y-66779179D01*
X210569737Y-66633497D01*
X210600500Y-66478842D01*
X210600500Y-66321158D01*
X210600500Y-66321155D01*
X210600499Y-66321153D01*
X211999500Y-66321153D01*
X211999500Y-66478846D01*
X212030261Y-66633489D01*
X212030264Y-66633501D01*
X212090602Y-66779172D01*
X212090609Y-66779185D01*
X212178210Y-66910288D01*
X212178213Y-66910292D01*
X212289707Y-67021786D01*
X212289711Y-67021789D01*
X212420814Y-67109390D01*
X212420827Y-67109397D01*
X212566498Y-67169735D01*
X212566503Y-67169737D01*
X212721153Y-67200499D01*
X212721156Y-67200500D01*
X212721158Y-67200500D01*
X212878844Y-67200500D01*
X212878845Y-67200499D01*
X213033497Y-67169737D01*
X213179179Y-67109394D01*
X213310289Y-67021789D01*
X213421789Y-66910289D01*
X213509394Y-66779179D01*
X213569737Y-66633497D01*
X213600500Y-66478842D01*
X213600500Y-66321158D01*
X213600500Y-66321155D01*
X213600499Y-66321153D01*
X214999500Y-66321153D01*
X214999500Y-66478846D01*
X215030261Y-66633489D01*
X215030264Y-66633501D01*
X215090602Y-66779172D01*
X215090609Y-66779185D01*
X215178210Y-66910288D01*
X215178213Y-66910292D01*
X215289707Y-67021786D01*
X215289711Y-67021789D01*
X215420814Y-67109390D01*
X215420827Y-67109397D01*
X215566498Y-67169735D01*
X215566503Y-67169737D01*
X215721153Y-67200499D01*
X215721156Y-67200500D01*
X215721158Y-67200500D01*
X215878844Y-67200500D01*
X215878845Y-67200499D01*
X216033497Y-67169737D01*
X216179179Y-67109394D01*
X216310289Y-67021789D01*
X216421789Y-66910289D01*
X216509394Y-66779179D01*
X216569737Y-66633497D01*
X216600500Y-66478842D01*
X216600500Y-66321158D01*
X216600500Y-66321155D01*
X216600499Y-66321153D01*
X217999500Y-66321153D01*
X217999500Y-66478846D01*
X218030261Y-66633489D01*
X218030264Y-66633501D01*
X218090602Y-66779172D01*
X218090609Y-66779185D01*
X218178210Y-66910288D01*
X218178213Y-66910292D01*
X218289707Y-67021786D01*
X218289711Y-67021789D01*
X218420814Y-67109390D01*
X218420827Y-67109397D01*
X218566498Y-67169735D01*
X218566503Y-67169737D01*
X218721153Y-67200499D01*
X218721156Y-67200500D01*
X218721158Y-67200500D01*
X218878844Y-67200500D01*
X218878845Y-67200499D01*
X219033497Y-67169737D01*
X219179179Y-67109394D01*
X219310289Y-67021789D01*
X219421789Y-66910289D01*
X219509394Y-66779179D01*
X219569737Y-66633497D01*
X219600500Y-66478842D01*
X219600500Y-66321158D01*
X219600500Y-66321155D01*
X219600499Y-66321153D01*
X219578269Y-66209397D01*
X219569737Y-66166503D01*
X219509794Y-66021786D01*
X219509397Y-66020827D01*
X219509390Y-66020814D01*
X219421789Y-65889711D01*
X219421786Y-65889707D01*
X219310292Y-65778213D01*
X219310288Y-65778210D01*
X219179185Y-65690609D01*
X219179172Y-65690602D01*
X219033501Y-65630264D01*
X219033489Y-65630261D01*
X218878845Y-65599500D01*
X218878842Y-65599500D01*
X218721158Y-65599500D01*
X218721155Y-65599500D01*
X218566510Y-65630261D01*
X218566498Y-65630264D01*
X218420827Y-65690602D01*
X218420814Y-65690609D01*
X218289711Y-65778210D01*
X218289707Y-65778213D01*
X218178213Y-65889707D01*
X218178210Y-65889711D01*
X218090609Y-66020814D01*
X218090602Y-66020827D01*
X218030264Y-66166498D01*
X218030261Y-66166510D01*
X217999500Y-66321153D01*
X216600499Y-66321153D01*
X216578269Y-66209397D01*
X216569737Y-66166503D01*
X216509794Y-66021786D01*
X216509397Y-66020827D01*
X216509390Y-66020814D01*
X216421789Y-65889711D01*
X216421786Y-65889707D01*
X216310292Y-65778213D01*
X216310288Y-65778210D01*
X216179185Y-65690609D01*
X216179172Y-65690602D01*
X216033501Y-65630264D01*
X216033489Y-65630261D01*
X215878845Y-65599500D01*
X215878842Y-65599500D01*
X215721158Y-65599500D01*
X215721155Y-65599500D01*
X215566510Y-65630261D01*
X215566498Y-65630264D01*
X215420827Y-65690602D01*
X215420814Y-65690609D01*
X215289711Y-65778210D01*
X215289707Y-65778213D01*
X215178213Y-65889707D01*
X215178210Y-65889711D01*
X215090609Y-66020814D01*
X215090602Y-66020827D01*
X215030264Y-66166498D01*
X215030261Y-66166510D01*
X214999500Y-66321153D01*
X213600499Y-66321153D01*
X213578269Y-66209397D01*
X213569737Y-66166503D01*
X213509794Y-66021786D01*
X213509397Y-66020827D01*
X213509390Y-66020814D01*
X213421789Y-65889711D01*
X213421786Y-65889707D01*
X213310292Y-65778213D01*
X213310288Y-65778210D01*
X213179185Y-65690609D01*
X213179172Y-65690602D01*
X213033501Y-65630264D01*
X213033489Y-65630261D01*
X212878845Y-65599500D01*
X212878842Y-65599500D01*
X212721158Y-65599500D01*
X212721155Y-65599500D01*
X212566510Y-65630261D01*
X212566498Y-65630264D01*
X212420827Y-65690602D01*
X212420814Y-65690609D01*
X212289711Y-65778210D01*
X212289707Y-65778213D01*
X212178213Y-65889707D01*
X212178210Y-65889711D01*
X212090609Y-66020814D01*
X212090602Y-66020827D01*
X212030264Y-66166498D01*
X212030261Y-66166510D01*
X211999500Y-66321153D01*
X210600499Y-66321153D01*
X210578269Y-66209397D01*
X210569737Y-66166503D01*
X210509794Y-66021786D01*
X210509397Y-66020827D01*
X210509390Y-66020814D01*
X210421789Y-65889711D01*
X210421786Y-65889707D01*
X210310292Y-65778213D01*
X210310288Y-65778210D01*
X210179185Y-65690609D01*
X210179172Y-65690602D01*
X210033501Y-65630264D01*
X210033489Y-65630261D01*
X209878845Y-65599500D01*
X209878842Y-65599500D01*
X209721158Y-65599500D01*
X209721155Y-65599500D01*
X209566510Y-65630261D01*
X209566498Y-65630264D01*
X209420827Y-65690602D01*
X209420814Y-65690609D01*
X209289711Y-65778210D01*
X209289707Y-65778213D01*
X209178213Y-65889707D01*
X209178210Y-65889711D01*
X209090609Y-66020814D01*
X209090602Y-66020827D01*
X209030264Y-66166498D01*
X209030261Y-66166510D01*
X208999500Y-66321153D01*
X207600499Y-66321153D01*
X207578269Y-66209397D01*
X207569737Y-66166503D01*
X207509794Y-66021786D01*
X207509397Y-66020827D01*
X207509390Y-66020814D01*
X207421789Y-65889711D01*
X207421786Y-65889707D01*
X207310292Y-65778213D01*
X207310288Y-65778210D01*
X207179185Y-65690609D01*
X207179172Y-65690602D01*
X207033501Y-65630264D01*
X207033489Y-65630261D01*
X206878845Y-65599500D01*
X206878842Y-65599500D01*
X206721158Y-65599500D01*
X206721155Y-65599500D01*
X206566510Y-65630261D01*
X206566498Y-65630264D01*
X206420827Y-65690602D01*
X206420814Y-65690609D01*
X206289711Y-65778210D01*
X206289707Y-65778213D01*
X206178213Y-65889707D01*
X206178210Y-65889711D01*
X206090609Y-66020814D01*
X206090602Y-66020827D01*
X206030264Y-66166498D01*
X206030261Y-66166510D01*
X205999500Y-66321153D01*
X197500500Y-66321153D01*
X197500500Y-65421153D01*
X225499500Y-65421153D01*
X225499500Y-65578846D01*
X225530261Y-65733489D01*
X225530264Y-65733501D01*
X225590602Y-65879172D01*
X225590609Y-65879185D01*
X225678210Y-66010288D01*
X225678213Y-66010292D01*
X225789707Y-66121786D01*
X225789711Y-66121789D01*
X225920814Y-66209390D01*
X225920827Y-66209397D01*
X226066498Y-66269735D01*
X226066503Y-66269737D01*
X226221153Y-66300499D01*
X226221156Y-66300500D01*
X226221158Y-66300500D01*
X226378844Y-66300500D01*
X226378845Y-66300499D01*
X226533497Y-66269737D01*
X226679179Y-66209394D01*
X226810289Y-66121789D01*
X226921789Y-66010289D01*
X227009394Y-65879179D01*
X227069737Y-65733497D01*
X227100500Y-65578842D01*
X227100500Y-65421158D01*
X227100500Y-65421155D01*
X227084209Y-65339258D01*
X227084209Y-65339257D01*
X227080608Y-65321153D01*
X228999500Y-65321153D01*
X228999500Y-65478846D01*
X229030261Y-65633489D01*
X229030264Y-65633501D01*
X229090602Y-65779172D01*
X229090609Y-65779185D01*
X229178210Y-65910288D01*
X229178213Y-65910292D01*
X229289707Y-66021786D01*
X229289711Y-66021789D01*
X229420814Y-66109390D01*
X229420827Y-66109397D01*
X229558683Y-66166498D01*
X229566503Y-66169737D01*
X229721153Y-66200499D01*
X229721156Y-66200500D01*
X229721158Y-66200500D01*
X229878844Y-66200500D01*
X229878845Y-66200499D01*
X230033497Y-66169737D01*
X230179179Y-66109394D01*
X230310289Y-66021789D01*
X230421789Y-65910289D01*
X230509394Y-65779179D01*
X230569737Y-65633497D01*
X230600500Y-65478842D01*
X230600500Y-65321158D01*
X230600500Y-65321155D01*
X230600499Y-65321153D01*
X230569738Y-65166510D01*
X230569737Y-65166503D01*
X230550812Y-65120814D01*
X230509397Y-65020827D01*
X230509390Y-65020814D01*
X230421789Y-64889711D01*
X230421786Y-64889707D01*
X230310292Y-64778213D01*
X230310288Y-64778210D01*
X230179185Y-64690609D01*
X230179172Y-64690602D01*
X230033501Y-64630264D01*
X230033489Y-64630261D01*
X229878845Y-64599500D01*
X229878842Y-64599500D01*
X229721158Y-64599500D01*
X229721155Y-64599500D01*
X229566510Y-64630261D01*
X229566498Y-64630264D01*
X229420827Y-64690602D01*
X229420814Y-64690609D01*
X229289711Y-64778210D01*
X229289707Y-64778213D01*
X229178213Y-64889707D01*
X229178210Y-64889711D01*
X229090609Y-65020814D01*
X229090602Y-65020827D01*
X229030264Y-65166498D01*
X229030261Y-65166510D01*
X228999500Y-65321153D01*
X227080608Y-65321153D01*
X227069738Y-65266510D01*
X227069737Y-65266503D01*
X227028314Y-65166498D01*
X227009397Y-65120827D01*
X227009390Y-65120814D01*
X226921789Y-64989711D01*
X226921786Y-64989707D01*
X226810292Y-64878213D01*
X226810288Y-64878210D01*
X226679185Y-64790609D01*
X226679172Y-64790602D01*
X226533501Y-64730264D01*
X226533489Y-64730261D01*
X226378845Y-64699500D01*
X226378842Y-64699500D01*
X226221158Y-64699500D01*
X226221155Y-64699500D01*
X226066510Y-64730261D01*
X226066498Y-64730264D01*
X225920827Y-64790602D01*
X225920814Y-64790609D01*
X225789711Y-64878210D01*
X225789707Y-64878213D01*
X225678213Y-64989707D01*
X225678210Y-64989711D01*
X225590609Y-65120814D01*
X225590602Y-65120827D01*
X225530264Y-65266498D01*
X225530261Y-65266510D01*
X225499500Y-65421153D01*
X197500500Y-65421153D01*
X197500500Y-63571153D01*
X200578500Y-63571153D01*
X200578500Y-63728846D01*
X200609261Y-63883489D01*
X200609264Y-63883501D01*
X200669602Y-64029172D01*
X200669609Y-64029185D01*
X200757210Y-64160288D01*
X200757213Y-64160292D01*
X200868707Y-64271786D01*
X200868711Y-64271789D01*
X200999814Y-64359390D01*
X200999827Y-64359397D01*
X201145498Y-64419735D01*
X201145503Y-64419737D01*
X201293482Y-64449172D01*
X201300153Y-64450499D01*
X201300156Y-64450500D01*
X201300158Y-64450500D01*
X201457844Y-64450500D01*
X201457845Y-64450499D01*
X201612497Y-64419737D01*
X201758179Y-64359394D01*
X201889289Y-64271789D01*
X202000789Y-64160289D01*
X202088394Y-64029179D01*
X202148737Y-63883497D01*
X202161138Y-63821153D01*
X208639500Y-63821153D01*
X208639500Y-63978846D01*
X208670261Y-64133489D01*
X208670264Y-64133501D01*
X208730602Y-64279172D01*
X208730609Y-64279185D01*
X208818210Y-64410288D01*
X208818213Y-64410292D01*
X208929707Y-64521786D01*
X208929711Y-64521789D01*
X209060814Y-64609390D01*
X209060827Y-64609397D01*
X209206498Y-64669735D01*
X209206503Y-64669737D01*
X209356131Y-64699500D01*
X209361153Y-64700499D01*
X209361156Y-64700500D01*
X209361158Y-64700500D01*
X209518844Y-64700500D01*
X209518845Y-64700499D01*
X209673497Y-64669737D01*
X209819179Y-64609394D01*
X209950289Y-64521789D01*
X210061789Y-64410289D01*
X210149394Y-64279179D01*
X210209737Y-64133497D01*
X210240500Y-63978842D01*
X210240500Y-63821158D01*
X210240500Y-63821155D01*
X210240499Y-63821153D01*
X210222137Y-63728842D01*
X210209737Y-63666503D01*
X210173569Y-63579185D01*
X210149397Y-63520827D01*
X210149390Y-63520814D01*
X210061789Y-63389711D01*
X210061786Y-63389707D01*
X209950292Y-63278213D01*
X209950288Y-63278210D01*
X209819185Y-63190609D01*
X209819172Y-63190602D01*
X209673501Y-63130264D01*
X209673489Y-63130261D01*
X209518845Y-63099500D01*
X209518842Y-63099500D01*
X209361158Y-63099500D01*
X209361155Y-63099500D01*
X209206510Y-63130261D01*
X209206498Y-63130264D01*
X209060827Y-63190602D01*
X209060814Y-63190609D01*
X208929711Y-63278210D01*
X208929707Y-63278213D01*
X208818213Y-63389707D01*
X208818210Y-63389711D01*
X208730609Y-63520814D01*
X208730602Y-63520827D01*
X208670264Y-63666498D01*
X208670261Y-63666510D01*
X208639500Y-63821153D01*
X202161138Y-63821153D01*
X202167161Y-63790874D01*
X202179500Y-63728844D01*
X202179500Y-63571155D01*
X202179499Y-63571153D01*
X202169486Y-63520814D01*
X202148737Y-63416503D01*
X202142379Y-63401153D01*
X202088397Y-63270827D01*
X202088390Y-63270814D01*
X202000789Y-63139711D01*
X202000786Y-63139707D01*
X201889292Y-63028213D01*
X201889288Y-63028210D01*
X201758185Y-62940609D01*
X201758172Y-62940602D01*
X201612501Y-62880264D01*
X201612489Y-62880261D01*
X201457845Y-62849500D01*
X201457842Y-62849500D01*
X201300158Y-62849500D01*
X201300155Y-62849500D01*
X201145510Y-62880261D01*
X201145498Y-62880264D01*
X200999827Y-62940602D01*
X200999814Y-62940609D01*
X200868711Y-63028210D01*
X200868707Y-63028213D01*
X200757213Y-63139707D01*
X200757210Y-63139711D01*
X200669609Y-63270814D01*
X200669602Y-63270827D01*
X200609264Y-63416498D01*
X200609261Y-63416510D01*
X200578500Y-63571153D01*
X197500500Y-63571153D01*
X197500500Y-62101153D01*
X198575500Y-62101153D01*
X198575500Y-62258846D01*
X198606261Y-62413489D01*
X198606264Y-62413501D01*
X198666602Y-62559172D01*
X198666609Y-62559185D01*
X198754210Y-62690288D01*
X198754213Y-62690292D01*
X198865707Y-62801786D01*
X198865711Y-62801789D01*
X198996814Y-62889390D01*
X198996827Y-62889397D01*
X199120466Y-62940609D01*
X199142503Y-62949737D01*
X199297153Y-62980499D01*
X199297156Y-62980500D01*
X199297158Y-62980500D01*
X199454844Y-62980500D01*
X199454845Y-62980499D01*
X199609497Y-62949737D01*
X199755179Y-62889394D01*
X199886289Y-62801789D01*
X199997789Y-62690289D01*
X200085394Y-62559179D01*
X200145737Y-62413497D01*
X200176500Y-62258842D01*
X200176500Y-62101158D01*
X200176500Y-62101155D01*
X200176499Y-62101153D01*
X200146468Y-61950179D01*
X200145737Y-61946503D01*
X200141593Y-61936498D01*
X200085397Y-61800827D01*
X200085390Y-61800814D01*
X199997789Y-61669711D01*
X199997786Y-61669707D01*
X199886292Y-61558213D01*
X199886288Y-61558210D01*
X199755185Y-61470609D01*
X199755172Y-61470602D01*
X199609501Y-61410264D01*
X199609489Y-61410261D01*
X199454845Y-61379500D01*
X199454842Y-61379500D01*
X199297158Y-61379500D01*
X199297155Y-61379500D01*
X199142510Y-61410261D01*
X199142498Y-61410264D01*
X198996827Y-61470602D01*
X198996814Y-61470609D01*
X198865711Y-61558210D01*
X198865707Y-61558213D01*
X198754213Y-61669707D01*
X198754210Y-61669711D01*
X198666609Y-61800814D01*
X198666602Y-61800827D01*
X198606264Y-61946498D01*
X198606261Y-61946510D01*
X198575500Y-62101153D01*
X197500500Y-62101153D01*
X197500500Y-59591153D01*
X200679500Y-59591153D01*
X200679500Y-59748846D01*
X200710261Y-59903489D01*
X200710264Y-59903501D01*
X200770602Y-60049172D01*
X200770609Y-60049185D01*
X200858210Y-60180288D01*
X200858213Y-60180292D01*
X200969707Y-60291786D01*
X200969711Y-60291789D01*
X201100814Y-60379390D01*
X201100827Y-60379397D01*
X201222182Y-60429663D01*
X201246503Y-60439737D01*
X201386644Y-60467613D01*
X201401153Y-60470499D01*
X201401156Y-60470500D01*
X201401158Y-60470500D01*
X201558844Y-60470500D01*
X201558845Y-60470499D01*
X201713497Y-60439737D01*
X201859179Y-60379394D01*
X201990289Y-60291789D01*
X202013236Y-60268842D01*
X202083048Y-60199031D01*
X202144371Y-60165546D01*
X202214063Y-60170530D01*
X202269996Y-60212402D01*
X202294413Y-60277866D01*
X202294729Y-60286712D01*
X202294729Y-60328846D01*
X202325490Y-60483489D01*
X202325493Y-60483501D01*
X202385831Y-60629172D01*
X202385838Y-60629185D01*
X202473439Y-60760288D01*
X202473442Y-60760292D01*
X202584936Y-60871786D01*
X202584940Y-60871789D01*
X202716043Y-60959390D01*
X202716056Y-60959397D01*
X202791410Y-60990609D01*
X202861732Y-61019737D01*
X203008052Y-61048842D01*
X203016382Y-61050499D01*
X203016385Y-61050500D01*
X203016387Y-61050500D01*
X203174073Y-61050500D01*
X203174074Y-61050499D01*
X203221060Y-61041153D01*
X204459500Y-61041153D01*
X204459500Y-61198846D01*
X204490261Y-61353489D01*
X204490264Y-61353501D01*
X204550602Y-61499172D01*
X204550609Y-61499185D01*
X204638210Y-61630288D01*
X204638213Y-61630292D01*
X204749707Y-61741786D01*
X204749711Y-61741789D01*
X204880814Y-61829390D01*
X204880827Y-61829397D01*
X205026498Y-61889735D01*
X205026503Y-61889737D01*
X205181153Y-61920499D01*
X205181156Y-61920500D01*
X205181158Y-61920500D01*
X205338844Y-61920500D01*
X205338845Y-61920499D01*
X205493497Y-61889737D01*
X205639179Y-61829394D01*
X205770289Y-61741789D01*
X205821338Y-61690740D01*
X205886097Y-61625982D01*
X205888389Y-61628274D01*
X205933805Y-61596258D01*
X206003611Y-61593264D01*
X206063953Y-61628486D01*
X206095674Y-61690740D01*
X206089733Y-61749979D01*
X206092031Y-61750676D01*
X206090261Y-61756510D01*
X206059500Y-61911153D01*
X206059500Y-62068846D01*
X206090261Y-62223489D01*
X206090264Y-62223501D01*
X206150602Y-62369172D01*
X206150609Y-62369185D01*
X206238210Y-62500288D01*
X206238213Y-62500292D01*
X206349707Y-62611786D01*
X206349711Y-62611789D01*
X206480814Y-62699390D01*
X206480827Y-62699397D01*
X206626498Y-62759735D01*
X206626503Y-62759737D01*
X206781153Y-62790499D01*
X206781156Y-62790500D01*
X206781158Y-62790500D01*
X206938844Y-62790500D01*
X206938845Y-62790499D01*
X207093497Y-62759737D01*
X207239179Y-62699394D01*
X207370289Y-62611789D01*
X207481789Y-62500289D01*
X207569394Y-62369179D01*
X207629737Y-62223497D01*
X207660500Y-62068842D01*
X207660500Y-61911158D01*
X207660500Y-61911155D01*
X207660499Y-61911153D01*
X207656239Y-61889735D01*
X207629737Y-61756503D01*
X207613697Y-61717779D01*
X207590808Y-61662518D01*
X207573674Y-61621153D01*
X208729500Y-61621153D01*
X208729500Y-61778846D01*
X208760261Y-61933489D01*
X208760264Y-61933501D01*
X208820602Y-62079172D01*
X208820609Y-62079185D01*
X208908210Y-62210288D01*
X208908213Y-62210292D01*
X209019707Y-62321786D01*
X209019711Y-62321789D01*
X209150814Y-62409390D01*
X209150827Y-62409397D01*
X209296498Y-62469735D01*
X209296503Y-62469737D01*
X209450092Y-62500288D01*
X209451153Y-62500499D01*
X209451156Y-62500500D01*
X209451158Y-62500500D01*
X209608844Y-62500500D01*
X209608845Y-62500499D01*
X209763497Y-62469737D01*
X209899264Y-62413501D01*
X209909172Y-62409397D01*
X209909172Y-62409396D01*
X209909179Y-62409394D01*
X210040289Y-62321789D01*
X210151789Y-62210289D01*
X210231393Y-62091153D01*
X211639500Y-62091153D01*
X211639500Y-62248846D01*
X211670261Y-62403489D01*
X211670264Y-62403501D01*
X211730602Y-62549172D01*
X211730609Y-62549185D01*
X211818210Y-62680288D01*
X211818213Y-62680292D01*
X211929707Y-62791786D01*
X211929711Y-62791789D01*
X212060814Y-62879390D01*
X212060821Y-62879394D01*
X212138759Y-62911676D01*
X212193161Y-62955516D01*
X212215227Y-63021810D01*
X212197949Y-63089509D01*
X212194414Y-63095119D01*
X212190611Y-63100810D01*
X212190602Y-63100827D01*
X212130264Y-63246498D01*
X212130261Y-63246510D01*
X212099500Y-63401153D01*
X212099500Y-63558846D01*
X212130261Y-63713489D01*
X212130264Y-63713501D01*
X212190602Y-63859172D01*
X212190609Y-63859185D01*
X212278210Y-63990288D01*
X212278213Y-63990292D01*
X212389707Y-64101786D01*
X212389711Y-64101789D01*
X212520814Y-64189390D01*
X212520827Y-64189397D01*
X212666498Y-64249735D01*
X212666503Y-64249737D01*
X212814482Y-64279172D01*
X212821153Y-64280499D01*
X212821156Y-64280500D01*
X212821158Y-64280500D01*
X212978844Y-64280500D01*
X212978845Y-64280499D01*
X213133497Y-64249737D01*
X213279179Y-64189394D01*
X213410289Y-64101789D01*
X213520925Y-63991153D01*
X223039500Y-63991153D01*
X223039500Y-64148846D01*
X223070261Y-64303489D01*
X223070264Y-64303501D01*
X223130602Y-64449172D01*
X223130609Y-64449185D01*
X223218210Y-64580288D01*
X223218213Y-64580292D01*
X223329707Y-64691786D01*
X223329711Y-64691789D01*
X223460814Y-64779390D01*
X223460827Y-64779397D01*
X223606498Y-64839735D01*
X223606503Y-64839737D01*
X223761153Y-64870499D01*
X223761156Y-64870500D01*
X223761158Y-64870500D01*
X223918844Y-64870500D01*
X223918845Y-64870499D01*
X224073497Y-64839737D01*
X224219179Y-64779394D01*
X224350289Y-64691789D01*
X224461789Y-64580289D01*
X224549394Y-64449179D01*
X224609737Y-64303497D01*
X224640500Y-64148842D01*
X224640500Y-63991158D01*
X224640500Y-63991155D01*
X224640499Y-63991153D01*
X224625585Y-63916175D01*
X224609737Y-63836503D01*
X224603379Y-63821153D01*
X224549397Y-63690827D01*
X224549390Y-63690814D01*
X224461789Y-63559711D01*
X224461786Y-63559707D01*
X224350292Y-63448213D01*
X224350288Y-63448210D01*
X224219185Y-63360609D01*
X224219172Y-63360602D01*
X224073501Y-63300264D01*
X224073489Y-63300261D01*
X223918845Y-63269500D01*
X223918842Y-63269500D01*
X223761158Y-63269500D01*
X223761155Y-63269500D01*
X223606510Y-63300261D01*
X223606498Y-63300264D01*
X223460827Y-63360602D01*
X223460814Y-63360609D01*
X223329711Y-63448210D01*
X223329707Y-63448213D01*
X223218213Y-63559707D01*
X223218210Y-63559711D01*
X223130609Y-63690814D01*
X223130602Y-63690827D01*
X223070264Y-63836498D01*
X223070261Y-63836510D01*
X223039500Y-63991153D01*
X213520925Y-63991153D01*
X213521789Y-63990289D01*
X213548894Y-63949722D01*
X213571311Y-63916175D01*
X213609390Y-63859185D01*
X213609390Y-63859184D01*
X213609394Y-63859179D01*
X213669737Y-63713497D01*
X213700500Y-63558842D01*
X213700500Y-63401158D01*
X213700500Y-63401155D01*
X213700499Y-63401153D01*
X213680431Y-63300264D01*
X213669737Y-63246503D01*
X213646584Y-63190606D01*
X213634950Y-63162518D01*
X213617816Y-63121153D01*
X226399500Y-63121153D01*
X226399500Y-63278846D01*
X226430261Y-63433489D01*
X226430264Y-63433501D01*
X226490602Y-63579172D01*
X226490609Y-63579185D01*
X226578210Y-63710288D01*
X226578213Y-63710292D01*
X226689707Y-63821786D01*
X226689711Y-63821789D01*
X226820814Y-63909390D01*
X226820827Y-63909397D01*
X226966498Y-63969735D01*
X226966503Y-63969737D01*
X227121153Y-64000499D01*
X227121156Y-64000500D01*
X227121158Y-64000500D01*
X227278844Y-64000500D01*
X227278845Y-64000499D01*
X227433497Y-63969737D01*
X227579179Y-63909394D01*
X227710289Y-63821789D01*
X227821789Y-63710289D01*
X227909394Y-63579179D01*
X227912719Y-63571153D01*
X227963642Y-63448211D01*
X227969737Y-63433497D01*
X228000500Y-63278842D01*
X228000500Y-63121158D01*
X228000500Y-63121155D01*
X228000499Y-63121153D01*
X227996453Y-63100814D01*
X227969737Y-62966503D01*
X227962792Y-62949735D01*
X227909397Y-62820827D01*
X227909390Y-62820814D01*
X227821789Y-62689711D01*
X227821786Y-62689707D01*
X227710292Y-62578213D01*
X227710288Y-62578210D01*
X227579185Y-62490609D01*
X227579172Y-62490602D01*
X227433501Y-62430264D01*
X227433489Y-62430261D01*
X227278845Y-62399500D01*
X227278842Y-62399500D01*
X227121158Y-62399500D01*
X227121155Y-62399500D01*
X226966510Y-62430261D01*
X226966498Y-62430264D01*
X226820827Y-62490602D01*
X226820814Y-62490609D01*
X226689711Y-62578210D01*
X226689707Y-62578213D01*
X226578213Y-62689707D01*
X226578210Y-62689711D01*
X226490609Y-62820814D01*
X226490602Y-62820827D01*
X226430264Y-62966498D01*
X226430261Y-62966510D01*
X226399500Y-63121153D01*
X213617816Y-63121153D01*
X213609397Y-63100827D01*
X213609390Y-63100814D01*
X213521789Y-62969711D01*
X213521786Y-62969707D01*
X213410292Y-62858213D01*
X213410288Y-62858210D01*
X213279185Y-62770609D01*
X213279172Y-62770602D01*
X213201241Y-62738323D01*
X213146837Y-62694483D01*
X213124772Y-62628189D01*
X213142051Y-62560489D01*
X213145593Y-62554869D01*
X213149388Y-62549188D01*
X213149390Y-62549185D01*
X213149394Y-62549179D01*
X213209737Y-62403497D01*
X213240500Y-62248842D01*
X213240500Y-62091158D01*
X213240500Y-62091155D01*
X213240499Y-62091153D01*
X213209737Y-61936503D01*
X213208489Y-61933489D01*
X213149397Y-61790827D01*
X213149392Y-61790818D01*
X213145141Y-61784456D01*
X213124262Y-61717779D01*
X213142745Y-61650399D01*
X213179350Y-61612461D01*
X213210289Y-61591789D01*
X213309925Y-61492153D01*
X216439500Y-61492153D01*
X216439500Y-61649846D01*
X216470261Y-61804489D01*
X216470264Y-61804501D01*
X216530602Y-61950172D01*
X216530609Y-61950185D01*
X216618210Y-62081288D01*
X216618213Y-62081292D01*
X216729707Y-62192786D01*
X216729711Y-62192789D01*
X216860814Y-62280390D01*
X216860827Y-62280397D01*
X216960758Y-62321789D01*
X217006503Y-62340737D01*
X217149490Y-62369179D01*
X217161153Y-62371499D01*
X217161156Y-62371500D01*
X217161158Y-62371500D01*
X217318844Y-62371500D01*
X217318845Y-62371499D01*
X217473497Y-62340737D01*
X217619179Y-62280394D01*
X217750289Y-62192789D01*
X217861789Y-62081289D01*
X217949394Y-61950179D01*
X218009737Y-61804497D01*
X218040500Y-61649842D01*
X218040500Y-61492158D01*
X218040500Y-61492155D01*
X218040499Y-61492153D01*
X218024210Y-61410263D01*
X218009737Y-61337503D01*
X217961806Y-61221786D01*
X217949397Y-61191827D01*
X217949390Y-61191814D01*
X217861789Y-61060711D01*
X217861786Y-61060707D01*
X217750292Y-60949213D01*
X217750288Y-60949210D01*
X217619185Y-60861609D01*
X217619172Y-60861602D01*
X217473501Y-60801264D01*
X217473489Y-60801261D01*
X217318845Y-60770500D01*
X217318842Y-60770500D01*
X217161158Y-60770500D01*
X217161155Y-60770500D01*
X217006510Y-60801261D01*
X217006498Y-60801264D01*
X216860827Y-60861602D01*
X216860814Y-60861609D01*
X216729711Y-60949210D01*
X216729707Y-60949213D01*
X216618213Y-61060707D01*
X216618210Y-61060711D01*
X216530609Y-61191814D01*
X216530602Y-61191827D01*
X216470264Y-61337498D01*
X216470261Y-61337510D01*
X216439500Y-61492153D01*
X213309925Y-61492153D01*
X213321789Y-61480289D01*
X213360590Y-61422220D01*
X213363961Y-61417175D01*
X213409390Y-61349185D01*
X213409393Y-61349180D01*
X213409394Y-61349179D01*
X213469737Y-61203497D01*
X213500500Y-61048842D01*
X213500500Y-60891158D01*
X213499575Y-60886510D01*
X213486812Y-60822348D01*
X213493039Y-60752756D01*
X213520749Y-60710473D01*
X213524760Y-60706463D01*
X213612365Y-60575353D01*
X213672708Y-60429671D01*
X213703471Y-60275016D01*
X213703471Y-60117332D01*
X213703471Y-60117329D01*
X213703470Y-60117327D01*
X213702242Y-60111153D01*
X221694500Y-60111153D01*
X221694500Y-60268846D01*
X221725261Y-60423489D01*
X221725264Y-60423501D01*
X221785602Y-60569172D01*
X221785609Y-60569185D01*
X221873210Y-60700288D01*
X221873213Y-60700292D01*
X221984707Y-60811786D01*
X221984711Y-60811789D01*
X222115814Y-60899390D01*
X222115827Y-60899397D01*
X222260665Y-60959390D01*
X222261503Y-60959737D01*
X222416153Y-60990499D01*
X222416156Y-60990500D01*
X222416158Y-60990500D01*
X222573844Y-60990500D01*
X222573845Y-60990499D01*
X222728497Y-60959737D01*
X222874179Y-60899394D01*
X223005289Y-60811789D01*
X223116789Y-60700289D01*
X223204394Y-60569179D01*
X223224287Y-60521153D01*
X229399500Y-60521153D01*
X229399500Y-60678846D01*
X229430261Y-60833489D01*
X229430264Y-60833501D01*
X229490602Y-60979172D01*
X229490609Y-60979185D01*
X229578210Y-61110288D01*
X229578213Y-61110292D01*
X229689707Y-61221786D01*
X229689711Y-61221789D01*
X229820814Y-61309390D01*
X229820827Y-61309397D01*
X229943080Y-61360035D01*
X229966503Y-61369737D01*
X230121153Y-61400499D01*
X230121156Y-61400500D01*
X230121158Y-61400500D01*
X230278844Y-61400500D01*
X230278845Y-61400499D01*
X230433497Y-61369737D01*
X230551592Y-61320821D01*
X230579172Y-61309397D01*
X230579172Y-61309396D01*
X230579179Y-61309394D01*
X230710289Y-61221789D01*
X230821789Y-61110289D01*
X230909394Y-60979179D01*
X230969737Y-60833497D01*
X231000500Y-60678842D01*
X231000500Y-60521158D01*
X231000500Y-60521155D01*
X231000499Y-60521153D01*
X230995936Y-60498213D01*
X230969737Y-60366503D01*
X230963010Y-60350263D01*
X230909397Y-60220827D01*
X230909390Y-60220814D01*
X230821789Y-60089711D01*
X230821786Y-60089707D01*
X230710292Y-59978213D01*
X230710288Y-59978210D01*
X230579185Y-59890609D01*
X230579172Y-59890602D01*
X230433501Y-59830264D01*
X230433489Y-59830261D01*
X230278845Y-59799500D01*
X230278842Y-59799500D01*
X230121158Y-59799500D01*
X230121155Y-59799500D01*
X229966510Y-59830261D01*
X229966498Y-59830264D01*
X229820827Y-59890602D01*
X229820814Y-59890609D01*
X229689711Y-59978210D01*
X229689707Y-59978213D01*
X229578213Y-60089707D01*
X229578210Y-60089711D01*
X229490609Y-60220814D01*
X229490602Y-60220827D01*
X229430264Y-60366498D01*
X229430261Y-60366510D01*
X229399500Y-60521153D01*
X223224287Y-60521153D01*
X223239883Y-60483501D01*
X223246464Y-60467613D01*
X223251401Y-60455694D01*
X223264737Y-60423497D01*
X223295500Y-60268842D01*
X223295500Y-60111158D01*
X223295500Y-60111155D01*
X223295499Y-60111153D01*
X223283173Y-60049185D01*
X223264737Y-59956503D01*
X223242783Y-59903501D01*
X223204397Y-59810827D01*
X223204390Y-59810814D01*
X223116789Y-59679711D01*
X223116786Y-59679707D01*
X223005292Y-59568213D01*
X223005288Y-59568210D01*
X222874185Y-59480609D01*
X222874172Y-59480602D01*
X222728501Y-59420264D01*
X222728489Y-59420261D01*
X222573845Y-59389500D01*
X222573842Y-59389500D01*
X222416158Y-59389500D01*
X222416155Y-59389500D01*
X222261510Y-59420261D01*
X222261498Y-59420264D01*
X222115827Y-59480602D01*
X222115814Y-59480609D01*
X221984711Y-59568210D01*
X221984707Y-59568213D01*
X221873213Y-59679707D01*
X221873210Y-59679711D01*
X221785609Y-59810814D01*
X221785602Y-59810827D01*
X221725264Y-59956498D01*
X221725261Y-59956510D01*
X221694500Y-60111153D01*
X213702242Y-60111153D01*
X213697976Y-60089707D01*
X213672708Y-59962677D01*
X213642857Y-59890609D01*
X213612368Y-59817001D01*
X213612361Y-59816988D01*
X213524760Y-59685885D01*
X213524757Y-59685881D01*
X213413263Y-59574387D01*
X213413259Y-59574384D01*
X213282156Y-59486783D01*
X213282143Y-59486776D01*
X213136472Y-59426438D01*
X213136460Y-59426435D01*
X212981816Y-59395674D01*
X212981813Y-59395674D01*
X212824129Y-59395674D01*
X212824126Y-59395674D01*
X212669481Y-59426435D01*
X212669469Y-59426438D01*
X212523798Y-59486776D01*
X212523785Y-59486783D01*
X212392682Y-59574384D01*
X212392678Y-59574387D01*
X212281184Y-59685881D01*
X212281181Y-59685885D01*
X212193580Y-59816988D01*
X212193573Y-59817001D01*
X212133235Y-59962672D01*
X212133232Y-59962684D01*
X212102471Y-60117327D01*
X212102471Y-60117332D01*
X212102471Y-60275016D01*
X212102471Y-60275018D01*
X212102470Y-60275018D01*
X212116158Y-60343826D01*
X212109931Y-60413418D01*
X212082228Y-60455694D01*
X212078209Y-60459712D01*
X212078208Y-60459714D01*
X211990609Y-60590814D01*
X211990602Y-60590827D01*
X211930264Y-60736498D01*
X211930261Y-60736510D01*
X211899500Y-60891153D01*
X211899500Y-61048846D01*
X211930261Y-61203489D01*
X211930264Y-61203501D01*
X211990602Y-61349171D01*
X211990603Y-61349172D01*
X211990606Y-61349179D01*
X211994859Y-61355545D01*
X212015738Y-61422220D01*
X211997255Y-61489600D01*
X211960650Y-61527537D01*
X211929713Y-61548208D01*
X211929707Y-61548213D01*
X211818213Y-61659707D01*
X211818210Y-61659711D01*
X211730609Y-61790814D01*
X211730602Y-61790827D01*
X211670264Y-61936498D01*
X211670261Y-61936510D01*
X211639500Y-62091153D01*
X210231393Y-62091153D01*
X210239394Y-62079179D01*
X210299737Y-61933497D01*
X210330500Y-61778842D01*
X210330500Y-61621158D01*
X210330500Y-61621155D01*
X210330499Y-61621153D01*
X210325547Y-61596258D01*
X210299737Y-61466503D01*
X210279305Y-61417175D01*
X210239397Y-61320827D01*
X210239390Y-61320814D01*
X210151789Y-61189711D01*
X210151786Y-61189707D01*
X210040292Y-61078213D01*
X210040288Y-61078210D01*
X209909185Y-60990609D01*
X209909172Y-60990602D01*
X209763501Y-60930264D01*
X209763489Y-60930261D01*
X209608845Y-60899500D01*
X209608842Y-60899500D01*
X209451158Y-60899500D01*
X209451155Y-60899500D01*
X209296510Y-60930261D01*
X209296498Y-60930264D01*
X209150827Y-60990602D01*
X209150814Y-60990609D01*
X209019711Y-61078210D01*
X209019707Y-61078213D01*
X208908213Y-61189707D01*
X208908210Y-61189711D01*
X208820609Y-61320814D01*
X208820602Y-61320827D01*
X208760264Y-61466498D01*
X208760261Y-61466510D01*
X208729500Y-61621153D01*
X207573674Y-61621153D01*
X207569397Y-61610827D01*
X207569390Y-61610814D01*
X207481789Y-61479711D01*
X207481786Y-61479707D01*
X207370292Y-61368213D01*
X207370288Y-61368210D01*
X207239185Y-61280609D01*
X207239172Y-61280602D01*
X207093501Y-61220264D01*
X207093489Y-61220261D01*
X206938845Y-61189500D01*
X206938842Y-61189500D01*
X206781158Y-61189500D01*
X206781155Y-61189500D01*
X206626510Y-61220261D01*
X206626498Y-61220264D01*
X206480827Y-61280602D01*
X206480814Y-61280609D01*
X206349711Y-61368210D01*
X206349707Y-61368213D01*
X206233903Y-61484018D01*
X206232138Y-61482253D01*
X206182362Y-61514978D01*
X206112497Y-61515703D01*
X206053329Y-61478542D01*
X206023646Y-61415291D01*
X206030315Y-61360035D01*
X206027969Y-61359324D01*
X206029731Y-61353509D01*
X206029737Y-61353497D01*
X206060500Y-61198842D01*
X206060500Y-61041158D01*
X206060500Y-61041155D01*
X206060499Y-61041153D01*
X206050445Y-60990609D01*
X206029737Y-60886503D01*
X206019426Y-60861609D01*
X205969397Y-60740827D01*
X205969390Y-60740814D01*
X205881789Y-60609711D01*
X205881786Y-60609707D01*
X205770292Y-60498213D01*
X205770288Y-60498210D01*
X205639185Y-60410609D01*
X205639172Y-60410602D01*
X205493501Y-60350264D01*
X205493489Y-60350261D01*
X205338845Y-60319500D01*
X205338842Y-60319500D01*
X205181158Y-60319500D01*
X205181155Y-60319500D01*
X205026510Y-60350261D01*
X205026498Y-60350264D01*
X204880827Y-60410602D01*
X204880814Y-60410609D01*
X204749711Y-60498210D01*
X204749707Y-60498213D01*
X204638213Y-60609707D01*
X204638210Y-60609711D01*
X204550609Y-60740814D01*
X204550602Y-60740827D01*
X204490264Y-60886498D01*
X204490261Y-60886510D01*
X204459500Y-61041153D01*
X203221060Y-61041153D01*
X203328726Y-61019737D01*
X203474408Y-60959394D01*
X203489648Y-60949211D01*
X203515461Y-60931964D01*
X203576533Y-60891156D01*
X203605518Y-60871789D01*
X203717018Y-60760289D01*
X203804623Y-60629179D01*
X203864966Y-60483497D01*
X203895729Y-60328842D01*
X203895729Y-60171158D01*
X203895729Y-60171155D01*
X203895728Y-60171153D01*
X203883794Y-60111158D01*
X203864966Y-60016503D01*
X203842669Y-59962672D01*
X203804626Y-59870827D01*
X203804619Y-59870814D01*
X203717018Y-59739711D01*
X203717015Y-59739707D01*
X203605521Y-59628213D01*
X203605517Y-59628210D01*
X203474414Y-59540609D01*
X203474401Y-59540602D01*
X203328730Y-59480264D01*
X203328718Y-59480261D01*
X203174074Y-59449500D01*
X203174071Y-59449500D01*
X203016387Y-59449500D01*
X203016384Y-59449500D01*
X202861739Y-59480261D01*
X202861727Y-59480264D01*
X202716056Y-59540602D01*
X202716043Y-59540609D01*
X202584940Y-59628210D01*
X202584936Y-59628213D01*
X202492181Y-59720969D01*
X202430858Y-59754454D01*
X202361166Y-59749470D01*
X202305233Y-59707598D01*
X202280816Y-59642134D01*
X202280500Y-59633288D01*
X202280500Y-59591155D01*
X202280499Y-59591153D01*
X202275936Y-59568213D01*
X202249737Y-59436503D01*
X202243010Y-59420263D01*
X202189397Y-59290827D01*
X202189390Y-59290814D01*
X202101789Y-59159711D01*
X202101786Y-59159707D01*
X201990292Y-59048213D01*
X201990288Y-59048210D01*
X201859185Y-58960609D01*
X201859172Y-58960602D01*
X201713501Y-58900264D01*
X201713489Y-58900261D01*
X201558845Y-58869500D01*
X201558842Y-58869500D01*
X201401158Y-58869500D01*
X201401155Y-58869500D01*
X201246510Y-58900261D01*
X201246498Y-58900264D01*
X201100827Y-58960602D01*
X201100814Y-58960609D01*
X200969711Y-59048210D01*
X200969707Y-59048213D01*
X200858213Y-59159707D01*
X200858210Y-59159711D01*
X200770609Y-59290814D01*
X200770602Y-59290827D01*
X200710264Y-59436498D01*
X200710261Y-59436510D01*
X200679500Y-59591153D01*
X197500500Y-59591153D01*
X197500500Y-55926668D01*
X203193985Y-55926668D01*
X203193985Y-56084361D01*
X203224746Y-56239004D01*
X203224749Y-56239016D01*
X203285087Y-56384687D01*
X203285094Y-56384700D01*
X203372695Y-56515803D01*
X203372698Y-56515807D01*
X203484192Y-56627301D01*
X203484196Y-56627304D01*
X203615299Y-56714905D01*
X203615312Y-56714912D01*
X203751092Y-56771153D01*
X203760988Y-56775252D01*
X203915638Y-56806014D01*
X203915641Y-56806015D01*
X203915643Y-56806015D01*
X204073329Y-56806015D01*
X204073330Y-56806014D01*
X204227982Y-56775252D01*
X204373664Y-56714909D01*
X204504774Y-56627304D01*
X204616274Y-56515804D01*
X204703879Y-56384694D01*
X204750909Y-56271153D01*
X207049500Y-56271153D01*
X207049500Y-56428846D01*
X207080261Y-56583489D01*
X207080264Y-56583501D01*
X207140602Y-56729172D01*
X207140609Y-56729185D01*
X207228210Y-56860288D01*
X207228213Y-56860292D01*
X207339707Y-56971786D01*
X207339711Y-56971789D01*
X207470814Y-57059390D01*
X207470827Y-57059397D01*
X207616498Y-57119735D01*
X207616503Y-57119737D01*
X207771153Y-57150499D01*
X207771156Y-57150500D01*
X207771158Y-57150500D01*
X207928844Y-57150500D01*
X207928845Y-57150499D01*
X208083497Y-57119737D01*
X208229179Y-57059394D01*
X208360289Y-56971789D01*
X208471789Y-56860289D01*
X208531348Y-56771153D01*
X210949500Y-56771153D01*
X210949500Y-56928846D01*
X210980261Y-57083489D01*
X210980264Y-57083501D01*
X211040602Y-57229172D01*
X211040609Y-57229185D01*
X211128210Y-57360288D01*
X211128213Y-57360292D01*
X211239707Y-57471786D01*
X211239711Y-57471789D01*
X211370814Y-57559390D01*
X211370827Y-57559397D01*
X211516498Y-57619735D01*
X211516503Y-57619737D01*
X211671153Y-57650499D01*
X211671156Y-57650500D01*
X211671158Y-57650500D01*
X211828844Y-57650500D01*
X211828845Y-57650499D01*
X211983497Y-57619737D01*
X212129179Y-57559394D01*
X212260289Y-57471789D01*
X212371789Y-57360289D01*
X212459394Y-57229179D01*
X212519737Y-57083497D01*
X212550500Y-56928842D01*
X212550500Y-56771158D01*
X212550500Y-56771155D01*
X212550499Y-56771153D01*
X212539311Y-56714909D01*
X212519737Y-56616503D01*
X212478028Y-56515807D01*
X212459397Y-56470827D01*
X212459390Y-56470814D01*
X212371789Y-56339711D01*
X212371786Y-56339707D01*
X212260292Y-56228213D01*
X212260288Y-56228210D01*
X212129185Y-56140609D01*
X212129172Y-56140602D01*
X211983501Y-56080264D01*
X211983489Y-56080261D01*
X211828845Y-56049500D01*
X211828842Y-56049500D01*
X211671158Y-56049500D01*
X211671155Y-56049500D01*
X211516510Y-56080261D01*
X211516498Y-56080264D01*
X211370827Y-56140602D01*
X211370814Y-56140609D01*
X211239711Y-56228210D01*
X211239707Y-56228213D01*
X211128213Y-56339707D01*
X211128210Y-56339711D01*
X211040609Y-56470814D01*
X211040602Y-56470827D01*
X210980264Y-56616498D01*
X210980261Y-56616510D01*
X210949500Y-56771153D01*
X208531348Y-56771153D01*
X208559394Y-56729179D01*
X208619737Y-56583497D01*
X208650500Y-56428842D01*
X208650500Y-56271158D01*
X208650500Y-56271155D01*
X208650499Y-56271153D01*
X208619737Y-56116503D01*
X208619735Y-56116498D01*
X208559397Y-55970827D01*
X208559390Y-55970814D01*
X208471789Y-55839711D01*
X208471786Y-55839707D01*
X208360292Y-55728213D01*
X208360288Y-55728210D01*
X208229185Y-55640609D01*
X208229172Y-55640602D01*
X208083501Y-55580264D01*
X208083489Y-55580261D01*
X207928845Y-55549500D01*
X207928842Y-55549500D01*
X207771158Y-55549500D01*
X207771155Y-55549500D01*
X207616510Y-55580261D01*
X207616498Y-55580264D01*
X207470827Y-55640602D01*
X207470814Y-55640609D01*
X207339711Y-55728210D01*
X207339707Y-55728213D01*
X207228213Y-55839707D01*
X207228210Y-55839711D01*
X207140609Y-55970814D01*
X207140602Y-55970827D01*
X207080264Y-56116498D01*
X207080261Y-56116510D01*
X207049500Y-56271153D01*
X204750909Y-56271153D01*
X204764222Y-56239012D01*
X204766371Y-56228211D01*
X204794984Y-56084361D01*
X204794985Y-56084359D01*
X204794985Y-55926670D01*
X204794984Y-55926668D01*
X204764223Y-55772025D01*
X204764222Y-55772018D01*
X204709790Y-55640606D01*
X204703882Y-55626342D01*
X204703875Y-55626329D01*
X204616274Y-55495226D01*
X204616271Y-55495222D01*
X204504777Y-55383728D01*
X204504773Y-55383725D01*
X204373670Y-55296124D01*
X204373657Y-55296117D01*
X204227986Y-55235779D01*
X204227974Y-55235776D01*
X204073330Y-55205015D01*
X204073327Y-55205015D01*
X203915643Y-55205015D01*
X203915640Y-55205015D01*
X203760995Y-55235776D01*
X203760983Y-55235779D01*
X203615312Y-55296117D01*
X203615299Y-55296124D01*
X203484196Y-55383725D01*
X203484192Y-55383728D01*
X203372698Y-55495222D01*
X203372695Y-55495226D01*
X203285094Y-55626329D01*
X203285087Y-55626342D01*
X203224749Y-55772013D01*
X203224746Y-55772025D01*
X203193985Y-55926668D01*
X197500500Y-55926668D01*
X197500500Y-53972153D01*
X220949500Y-53972153D01*
X220949500Y-54129846D01*
X220980261Y-54284489D01*
X220980264Y-54284501D01*
X221040602Y-54430172D01*
X221040609Y-54430185D01*
X221128210Y-54561288D01*
X221128213Y-54561292D01*
X221239707Y-54672786D01*
X221239711Y-54672789D01*
X221370814Y-54760390D01*
X221370827Y-54760397D01*
X221516498Y-54820735D01*
X221516503Y-54820737D01*
X221671153Y-54851499D01*
X221671156Y-54851500D01*
X221671158Y-54851500D01*
X221828844Y-54851500D01*
X221828845Y-54851499D01*
X221983497Y-54820737D01*
X222129179Y-54760394D01*
X222260289Y-54672789D01*
X222371789Y-54561289D01*
X222459394Y-54430179D01*
X222519737Y-54284497D01*
X222550500Y-54129842D01*
X222550500Y-53972158D01*
X222550500Y-53972155D01*
X222550499Y-53972153D01*
X222519738Y-53817510D01*
X222519737Y-53817503D01*
X222519735Y-53817498D01*
X222459397Y-53671827D01*
X222459390Y-53671814D01*
X222371789Y-53540711D01*
X222371786Y-53540707D01*
X222260292Y-53429213D01*
X222260288Y-53429210D01*
X222129185Y-53341609D01*
X222129172Y-53341602D01*
X221983501Y-53281264D01*
X221983489Y-53281261D01*
X221828845Y-53250500D01*
X221828842Y-53250500D01*
X221671158Y-53250500D01*
X221671155Y-53250500D01*
X221516510Y-53281261D01*
X221516498Y-53281264D01*
X221370827Y-53341602D01*
X221370814Y-53341609D01*
X221239711Y-53429210D01*
X221239707Y-53429213D01*
X221128213Y-53540707D01*
X221128210Y-53540711D01*
X221040609Y-53671814D01*
X221040602Y-53671827D01*
X220980264Y-53817498D01*
X220980261Y-53817510D01*
X220949500Y-53972153D01*
X197500500Y-53972153D01*
X197500500Y-50971153D01*
X217874500Y-50971153D01*
X217874500Y-51128846D01*
X217905261Y-51283489D01*
X217905264Y-51283501D01*
X217965602Y-51429172D01*
X217965609Y-51429185D01*
X218053210Y-51560288D01*
X218053213Y-51560292D01*
X218164707Y-51671786D01*
X218164711Y-51671789D01*
X218295814Y-51759390D01*
X218295827Y-51759397D01*
X218441498Y-51819735D01*
X218441503Y-51819737D01*
X218596153Y-51850499D01*
X218596156Y-51850500D01*
X218596158Y-51850500D01*
X218753844Y-51850500D01*
X218753845Y-51850499D01*
X218908497Y-51819737D01*
X219054179Y-51759394D01*
X219185289Y-51671789D01*
X219296789Y-51560289D01*
X219384394Y-51429179D01*
X219444737Y-51283497D01*
X219475500Y-51128842D01*
X219475500Y-50971158D01*
X219475500Y-50971155D01*
X219475499Y-50971153D01*
X219444738Y-50816510D01*
X219444737Y-50816503D01*
X219444735Y-50816498D01*
X219384397Y-50670827D01*
X219384390Y-50670814D01*
X219296789Y-50539711D01*
X219296786Y-50539707D01*
X219185292Y-50428213D01*
X219185288Y-50428210D01*
X219054185Y-50340609D01*
X219054172Y-50340602D01*
X218908501Y-50280264D01*
X218908489Y-50280261D01*
X218753845Y-50249500D01*
X218753842Y-50249500D01*
X218596158Y-50249500D01*
X218596155Y-50249500D01*
X218441510Y-50280261D01*
X218441498Y-50280264D01*
X218295827Y-50340602D01*
X218295814Y-50340609D01*
X218164711Y-50428210D01*
X218164707Y-50428213D01*
X218053213Y-50539707D01*
X218053210Y-50539711D01*
X217965609Y-50670814D01*
X217965602Y-50670827D01*
X217905264Y-50816498D01*
X217905261Y-50816510D01*
X217874500Y-50971153D01*
X197500500Y-50971153D01*
X197500500Y-47691153D01*
X213929500Y-47691153D01*
X213929500Y-47848846D01*
X213960261Y-48003489D01*
X213960264Y-48003501D01*
X214020602Y-48149172D01*
X214020609Y-48149185D01*
X214108210Y-48280288D01*
X214108213Y-48280292D01*
X214219707Y-48391786D01*
X214219711Y-48391789D01*
X214350814Y-48479390D01*
X214350827Y-48479397D01*
X214408697Y-48503367D01*
X214496503Y-48539737D01*
X214651153Y-48570499D01*
X214651156Y-48570500D01*
X214651158Y-48570500D01*
X214808844Y-48570500D01*
X214808845Y-48570499D01*
X214963497Y-48539737D01*
X215109179Y-48479394D01*
X215109184Y-48479390D01*
X215109187Y-48479389D01*
X215151825Y-48450899D01*
X215218502Y-48430020D01*
X215220717Y-48430000D01*
X215835000Y-48430000D01*
X215835000Y-48930000D01*
X215135000Y-48930000D01*
X215135000Y-49328495D01*
X215173427Y-49521681D01*
X215173430Y-49521693D01*
X215248807Y-49703671D01*
X215248814Y-49703684D01*
X215358248Y-49867462D01*
X215358251Y-49867466D01*
X215497533Y-50006748D01*
X215497537Y-50006751D01*
X215661315Y-50116185D01*
X215661328Y-50116192D01*
X215843308Y-50191569D01*
X215885000Y-50199862D01*
X215885000Y-49396988D01*
X215894940Y-49414205D01*
X215950795Y-49470060D01*
X216019204Y-49509556D01*
X216095504Y-49530000D01*
X216174496Y-49530000D01*
X216250796Y-49509556D01*
X216319205Y-49470060D01*
X216375060Y-49414205D01*
X216385000Y-49396988D01*
X216385000Y-50199862D01*
X216426690Y-50191569D01*
X216426692Y-50191569D01*
X216608671Y-50116192D01*
X216608684Y-50116185D01*
X216772462Y-50006751D01*
X216772466Y-50006748D01*
X216911748Y-49867466D01*
X216911751Y-49867462D01*
X217021185Y-49703684D01*
X217021192Y-49703671D01*
X217096569Y-49521693D01*
X217096572Y-49521681D01*
X217134999Y-49328495D01*
X217135000Y-49328492D01*
X217135000Y-48930000D01*
X216435000Y-48930000D01*
X216435000Y-48430000D01*
X216990536Y-48430000D01*
X217057575Y-48449685D01*
X217097923Y-48492000D01*
X217104482Y-48503361D01*
X217104484Y-48503364D01*
X217104485Y-48503365D01*
X217211635Y-48610515D01*
X217342865Y-48686281D01*
X217489234Y-48725500D01*
X217489236Y-48725500D01*
X217640764Y-48725500D01*
X217640766Y-48725500D01*
X217787135Y-48686281D01*
X217918365Y-48610515D01*
X218025515Y-48503365D01*
X218101281Y-48372135D01*
X218140500Y-48225766D01*
X218140500Y-48074234D01*
X222769500Y-48074234D01*
X222769500Y-48225765D01*
X222808719Y-48372136D01*
X222842139Y-48430020D01*
X222884485Y-48503365D01*
X222991635Y-48610515D01*
X223122865Y-48686281D01*
X223269234Y-48725500D01*
X223269236Y-48725500D01*
X223420764Y-48725500D01*
X223420766Y-48725500D01*
X223567135Y-48686281D01*
X223698365Y-48610515D01*
X223805515Y-48503365D01*
X223812077Y-48492000D01*
X223862644Y-48443784D01*
X223919464Y-48430000D01*
X224475000Y-48430000D01*
X224475000Y-48930000D01*
X223775000Y-48930000D01*
X223775000Y-49328495D01*
X223813427Y-49521681D01*
X223813430Y-49521693D01*
X223888807Y-49703671D01*
X223888814Y-49703684D01*
X223998248Y-49867462D01*
X223998251Y-49867466D01*
X224137533Y-50006748D01*
X224137537Y-50006751D01*
X224301315Y-50116185D01*
X224301328Y-50116192D01*
X224483308Y-50191569D01*
X224525000Y-50199862D01*
X224525000Y-49396988D01*
X224534940Y-49414205D01*
X224590795Y-49470060D01*
X224659204Y-49509556D01*
X224735504Y-49530000D01*
X224814496Y-49530000D01*
X224890796Y-49509556D01*
X224959205Y-49470060D01*
X225015060Y-49414205D01*
X225025000Y-49396988D01*
X225025000Y-50199862D01*
X225066690Y-50191569D01*
X225066692Y-50191569D01*
X225248671Y-50116192D01*
X225248684Y-50116185D01*
X225412462Y-50006751D01*
X225412466Y-50006748D01*
X225551748Y-49867466D01*
X225551751Y-49867462D01*
X225661185Y-49703684D01*
X225661192Y-49703671D01*
X225736569Y-49521693D01*
X225736572Y-49521681D01*
X225774999Y-49328495D01*
X225775000Y-49328492D01*
X225775000Y-48930000D01*
X225075000Y-48930000D01*
X225075000Y-48430000D01*
X225775000Y-48430000D01*
X225775000Y-48031508D01*
X225774999Y-48031504D01*
X225736572Y-47838318D01*
X225736569Y-47838306D01*
X225661192Y-47656328D01*
X225661185Y-47656315D01*
X225551751Y-47492537D01*
X225551748Y-47492533D01*
X225412466Y-47353251D01*
X225412462Y-47353248D01*
X225248684Y-47243814D01*
X225248671Y-47243807D01*
X225066691Y-47168429D01*
X225066683Y-47168427D01*
X225025000Y-47160135D01*
X225025000Y-47963011D01*
X225015060Y-47945795D01*
X224959205Y-47889940D01*
X224890796Y-47850444D01*
X224814496Y-47830000D01*
X224735504Y-47830000D01*
X224659204Y-47850444D01*
X224590795Y-47889940D01*
X224534940Y-47945795D01*
X224525000Y-47963011D01*
X224525000Y-47160136D01*
X224524999Y-47160135D01*
X224483316Y-47168427D01*
X224483308Y-47168429D01*
X224301328Y-47243807D01*
X224301315Y-47243814D01*
X224137537Y-47353248D01*
X224137533Y-47353251D01*
X223998248Y-47492536D01*
X223885427Y-47661387D01*
X223884003Y-47660435D01*
X223840742Y-47704451D01*
X223772600Y-47719892D01*
X223706927Y-47696041D01*
X223704907Y-47694306D01*
X223704811Y-47694432D01*
X223698367Y-47689487D01*
X223698365Y-47689485D01*
X223632750Y-47651602D01*
X223567136Y-47613719D01*
X223493950Y-47594109D01*
X223420766Y-47574500D01*
X223269234Y-47574500D01*
X223122863Y-47613719D01*
X222991635Y-47689485D01*
X222991632Y-47689487D01*
X222884487Y-47796632D01*
X222884485Y-47796635D01*
X222808719Y-47927863D01*
X222769500Y-48074234D01*
X218140500Y-48074234D01*
X218101281Y-47927865D01*
X218025515Y-47796635D01*
X217918365Y-47689485D01*
X217852750Y-47651602D01*
X217787136Y-47613719D01*
X217713950Y-47594109D01*
X217640766Y-47574500D01*
X217489234Y-47574500D01*
X217342863Y-47613719D01*
X217211635Y-47689485D01*
X217205189Y-47694432D01*
X217203099Y-47691709D01*
X217155217Y-47717466D01*
X217085558Y-47712043D01*
X217029888Y-47669821D01*
X217024299Y-47660976D01*
X216911751Y-47492537D01*
X216911748Y-47492533D01*
X216772466Y-47353251D01*
X216772462Y-47353248D01*
X216608684Y-47243814D01*
X216608671Y-47243807D01*
X216426691Y-47168429D01*
X216426683Y-47168427D01*
X216385000Y-47160135D01*
X216385000Y-47963011D01*
X216375060Y-47945795D01*
X216319205Y-47889940D01*
X216250796Y-47850444D01*
X216174496Y-47830000D01*
X216095504Y-47830000D01*
X216019204Y-47850444D01*
X215950795Y-47889940D01*
X215894940Y-47945795D01*
X215885000Y-47963011D01*
X215885000Y-47160136D01*
X215884999Y-47160135D01*
X215843316Y-47168427D01*
X215843308Y-47168429D01*
X215661328Y-47243807D01*
X215661315Y-47243814D01*
X215543086Y-47322813D01*
X215476408Y-47343691D01*
X215409028Y-47325206D01*
X215371092Y-47288600D01*
X215351790Y-47259712D01*
X215351786Y-47259707D01*
X215240292Y-47148213D01*
X215240288Y-47148210D01*
X215109185Y-47060609D01*
X215109172Y-47060602D01*
X214963501Y-47000264D01*
X214963489Y-47000261D01*
X214808845Y-46969500D01*
X214808842Y-46969500D01*
X214651158Y-46969500D01*
X214651155Y-46969500D01*
X214496510Y-47000261D01*
X214496498Y-47000264D01*
X214350827Y-47060602D01*
X214350814Y-47060609D01*
X214219711Y-47148210D01*
X214219707Y-47148213D01*
X214108213Y-47259707D01*
X214108210Y-47259711D01*
X214020609Y-47390814D01*
X214020602Y-47390827D01*
X213960264Y-47536498D01*
X213960261Y-47536510D01*
X213929500Y-47691153D01*
X197500500Y-47691153D01*
X197500500Y-43725694D01*
X197520185Y-43658655D01*
X197572989Y-43612900D01*
X197624734Y-43601694D01*
X215101254Y-43635110D01*
G37*
%TD.AperFunction*%
%TD*%
M02*
