%TF.GenerationSoftware,KiCad,Pcbnew,10.0.1*%
%TF.CreationDate,2026-04-22T14:26:45+05:00*%
%TF.ProjectId,Nexus Cypher,4e657875-7320-4437-9970-6865722e6b69,rev?*%
%TF.SameCoordinates,Original*%
%TF.FileFunction,Copper,L4,Bot*%
%TF.FilePolarity,Positive*%
%FSLAX46Y46*%
G04 Gerber Fmt 4.6, Leading zero omitted, Abs format (unit mm)*
G04 Created by KiCad (PCBNEW 10.0.1) date 2026-04-22 14:26:45*
%MOMM*%
%LPD*%
G01*
G04 APERTURE LIST*
%TA.AperFunction,HeatsinkPad*%
%ADD10O,1.000000X2.100000*%
%TD*%
%TA.AperFunction,HeatsinkPad*%
%ADD11O,1.000000X1.600000*%
%TD*%
%TA.AperFunction,ComponentPad*%
%ADD12R,1.700000X1.700000*%
%TD*%
%TA.AperFunction,ComponentPad*%
%ADD13C,1.700000*%
%TD*%
%TA.AperFunction,ViaPad*%
%ADD14C,0.600000*%
%TD*%
%TA.AperFunction,Conductor*%
%ADD15C,0.200000*%
%TD*%
G04 APERTURE END LIST*
D10*
%TO.P,USB-C_RECEPTACLE,S1,SHIELD_S1*%
%TO.N,GND*%
X224775000Y-48680000D03*
D11*
X224775000Y-44500000D03*
D10*
X216135000Y-48680000D03*
D11*
X216135000Y-44500000D03*
%TD*%
D12*
%TO.P,J3,1,Pin_1_1*%
%TO.N,GND*%
X233725000Y-82450000D03*
D13*
%TO.P,J3,2,Pin_2_2*%
%TO.N,+3V3*%
X231185000Y-82450000D03*
%TO.P,J3,3,Pin_3_3*%
%TO.N,/XX_SCL*%
X228645000Y-82450000D03*
%TO.P,J3,4,Pin_4_4*%
%TO.N,/XX_SDA*%
X226105000Y-82450000D03*
%TD*%
D14*
%TO.N,GND*%
X214325000Y-88625000D03*
X205320000Y-79360000D03*
X207750000Y-68750000D03*
X215630000Y-61570000D03*
X222845000Y-55610000D03*
X220170000Y-58670000D03*
X214630000Y-56450000D03*
X214000000Y-73000000D03*
X207692947Y-87124999D03*
X223600000Y-70000000D03*
X225390000Y-63870000D03*
X220500000Y-66500000D03*
X227200000Y-62200000D03*
X216125000Y-49975000D03*
X211250000Y-66500000D03*
X217925000Y-83375000D03*
X223400000Y-66200000D03*
X233805000Y-80750000D03*
X222390000Y-63870000D03*
X234410000Y-45265000D03*
X210790000Y-68580000D03*
X228200000Y-67400000D03*
X202300000Y-87400000D03*
X214250000Y-66500000D03*
X207410000Y-57800000D03*
X212190000Y-73970000D03*
X204037500Y-84500000D03*
X208400000Y-66400000D03*
X219390000Y-63870000D03*
X223400000Y-73000000D03*
X216140000Y-63870000D03*
X226800000Y-55600000D03*
X231600000Y-67400000D03*
X215225000Y-80025000D03*
X206800000Y-72400000D03*
X217400000Y-66400000D03*
X204360000Y-52600000D03*
%TO.N,/XX_XTB*%
X209451000Y-76830000D03*
X208251000Y-78325000D03*
%TO.N,+1V1*%
X209530000Y-61700000D03*
X212440000Y-62170000D03*
%TO.N,/XX_IN*%
X206860000Y-61990000D03*
X212700000Y-60970000D03*
%TO.N,Net-(J2-CC2)*%
X218675000Y-51050000D03*
X221750000Y-54051000D03*
%TO.N,+3V3*%
X209800000Y-66400000D03*
X230200000Y-60600000D03*
X204850000Y-77912500D03*
X218400000Y-79200000D03*
X223840000Y-64070000D03*
X231205000Y-80750000D03*
X215150000Y-78550000D03*
X206800000Y-66400000D03*
X223200000Y-74600000D03*
X224525000Y-84725000D03*
X231050000Y-85250000D03*
X215800000Y-66400000D03*
X212800000Y-66400000D03*
X203994485Y-56005515D03*
X223400000Y-71600000D03*
X218800000Y-66400000D03*
X214730000Y-47770000D03*
X205260000Y-61120000D03*
X223400000Y-67800000D03*
X210275000Y-86150000D03*
X211750000Y-56850000D03*
X207850000Y-56350000D03*
X229800000Y-65400000D03*
X208650000Y-81100000D03*
%TO.N,/XX_SDA*%
X223350000Y-91575000D03*
X225350000Y-89700000D03*
%TO.N,VBUS2*%
X226300000Y-65500000D03*
X227200000Y-63200000D03*
%TO.N,Net-(U1-GPIO25)*%
X212902971Y-60196174D03*
X222495000Y-60190000D03*
%TO.N,/XX_VR_PA*%
X206860000Y-81780000D03*
X203194265Y-77545735D03*
%TO.N,/XX_DIO2*%
X210775000Y-82250000D03*
X205030000Y-76230000D03*
%TO.N,Net-(U2-VREG)*%
X206910000Y-77914272D03*
X204200000Y-86850000D03*
%TO.N,Net-(U2-DCC_SW)*%
X200716135Y-80758865D03*
X205411675Y-76933085D03*
%TO.N,/XX_NRST*%
X201379000Y-63650000D03*
X203095229Y-60250000D03*
%TO.N,/XX_NSS*%
X199376000Y-62180000D03*
X201480000Y-59670000D03*
%TO.N,/XX_RFO*%
X206205008Y-76830000D03*
X207440000Y-82930000D03*
%TO.N,/XX_RUN*%
X209440000Y-63900000D03*
X212910000Y-68470000D03*
%TO.N,Net-(C11-Pad1)*%
X212900000Y-63480000D03*
X217240000Y-61571000D03*
%TD*%
%TO.N,GND*%
D15*
X207974999Y-87124999D02*
X208050000Y-87200000D01*
X211250000Y-66500000D02*
X211500000Y-66500000D01*
X207692947Y-87124999D02*
X207974999Y-87124999D01*
%TO.N,/XX_XTB*%
X208251000Y-78030000D02*
X209451000Y-76830000D01*
X208251000Y-78325000D02*
X208251000Y-78030000D01*
%TO.N,+1V1*%
X211970000Y-61700000D02*
X212440000Y-62170000D01*
X209530000Y-61700000D02*
X211970000Y-61700000D01*
%TO.N,/XX_IN*%
X206960000Y-61890000D02*
X206860000Y-61990000D01*
X206960000Y-61550000D02*
X206960000Y-61890000D01*
X206960000Y-61550000D02*
X207540000Y-60970000D01*
X207540000Y-60970000D02*
X212700000Y-60970000D01*
%TO.N,Net-(J2-CC2)*%
X218675000Y-51050000D02*
X221676000Y-54051000D01*
X221676000Y-54051000D02*
X221750000Y-54051000D01*
%TO.N,/XX_SDA*%
X225275000Y-91550000D02*
X225275000Y-91575000D01*
X225350000Y-89700000D02*
X223475000Y-91575000D01*
%TO.N,VBUS2*%
X227200000Y-64600000D02*
X226300000Y-65500000D01*
X227200000Y-63200000D02*
X227200000Y-64600000D01*
%TO.N,Net-(U1-GPIO25)*%
X212936797Y-60230000D02*
X222455000Y-60230000D01*
X212902971Y-60196174D02*
X212936797Y-60230000D01*
X222455000Y-60230000D02*
X222495000Y-60190000D01*
%TO.N,/XX_VR_PA*%
X203170000Y-78090000D02*
X206860000Y-81780000D01*
X203170000Y-77570000D02*
X203170000Y-78090000D01*
X203194265Y-77545735D02*
X203170000Y-77570000D01*
%TO.N,/XX_DIO2*%
X205030000Y-76230000D02*
X210855000Y-76230000D01*
X211550000Y-81400000D02*
X210775000Y-82175000D01*
X210855000Y-76230000D02*
X211550000Y-76925000D01*
X211550000Y-76925000D02*
X211550000Y-81400000D01*
X210775000Y-82175000D02*
X210775000Y-82250000D01*
%TO.N,Net-(U2-VREG)*%
X208050000Y-79054272D02*
X208050000Y-83875000D01*
X206910000Y-77914272D02*
X208050000Y-79054272D01*
X205075000Y-86850000D02*
X204200000Y-86850000D01*
X208050000Y-83875000D02*
X205075000Y-86850000D01*
X206910000Y-77914272D02*
X206949272Y-77875000D01*
%TO.N,Net-(U2-DCC_SW)*%
X202958385Y-76933085D02*
X202941470Y-76950000D01*
X202941470Y-76950000D02*
X201900000Y-76950000D01*
X201900000Y-76950000D02*
X200716135Y-78133865D01*
X205411675Y-76933085D02*
X202958385Y-76933085D01*
X200716135Y-78133865D02*
X200716135Y-80758865D01*
%TO.N,/XX_NRST*%
X203095229Y-60250000D02*
X202980000Y-60250000D01*
X201379000Y-61851000D02*
X201379000Y-63650000D01*
X202980000Y-60250000D02*
X201379000Y-61851000D01*
%TO.N,/XX_NSS*%
X201480000Y-59670000D02*
X199376000Y-61774000D01*
X199376000Y-61774000D02*
X199376000Y-62180000D01*
%TO.N,/XX_RFO*%
X206205008Y-76830000D02*
X206240000Y-76830000D01*
X207460000Y-82910000D02*
X207440000Y-82930000D01*
X207460000Y-81531471D02*
X207460000Y-82910000D01*
X207461000Y-82909000D02*
X207440000Y-82930000D01*
X206205008Y-76830000D02*
X206205008Y-80276479D01*
X206205008Y-80276479D02*
X207460000Y-81531471D01*
%TO.N,/XX_RUN*%
X212090000Y-67650000D02*
X212090000Y-66490056D01*
X212090000Y-66490056D02*
X209499943Y-63900000D01*
X212910000Y-68470000D02*
X212090000Y-67650000D01*
X209499943Y-63900000D02*
X209440000Y-63900000D01*
%TO.N,Net-(C11-Pad1)*%
X212900000Y-63440000D02*
X212900000Y-63480000D01*
X217240000Y-61571000D02*
X215331000Y-63480000D01*
X215331000Y-63480000D02*
X212900000Y-63480000D01*
%TD*%
M02*
