%TF.GenerationSoftware,KiCad,Pcbnew,10.0.1*%
%TF.CreationDate,2026-04-22T14:26:45+05:00*%
%TF.ProjectId,Nexus Cypher,4e657875-7320-4437-9970-6865722e6b69,rev?*%
%TF.SameCoordinates,Original*%
%TF.FileFunction,Paste,Top*%
%TF.FilePolarity,Positive*%
%FSLAX46Y46*%
G04 Gerber Fmt 4.6, Leading zero omitted, Abs format (unit mm)*
G04 Created by KiCad (PCBNEW 10.0.1) date 2026-04-22 14:26:45*
%MOMM*%
%LPD*%
G01*
G04 APERTURE LIST*
G04 Aperture macros list*
%AMRoundRect*
0 Rectangle with rounded corners*
0 $1 Rounding radius*
0 $2 $3 $4 $5 $6 $7 $8 $9 X,Y pos of 4 corners*
0 Add a 4 corners polygon primitive as box body*
4,1,4,$2,$3,$4,$5,$6,$7,$8,$9,$2,$3,0*
0 Add four circle primitives for the rounded corners*
1,1,$1+$1,$2,$3*
1,1,$1+$1,$4,$5*
1,1,$1+$1,$6,$7*
1,1,$1+$1,$8,$9*
0 Add four rect primitives between the rounded corners*
20,1,$1+$1,$2,$3,$4,$5,0*
20,1,$1+$1,$4,$5,$6,$7,0*
20,1,$1+$1,$6,$7,$8,$9,0*
20,1,$1+$1,$8,$9,$2,$3,0*%
G04 Aperture macros list end*
%ADD10RoundRect,0.250000X-0.800000X-0.650000X0.800000X-0.650000X0.800000X0.650000X-0.800000X0.650000X0*%
%ADD11RoundRect,0.225000X-0.250000X0.225000X-0.250000X-0.225000X0.250000X-0.225000X0.250000X0.225000X0*%
%ADD12RoundRect,0.225000X-0.225000X-0.250000X0.225000X-0.250000X0.225000X0.250000X-0.225000X0.250000X0*%
%ADD13RoundRect,0.225000X0.225000X0.250000X-0.225000X0.250000X-0.225000X-0.250000X0.225000X-0.250000X0*%
%ADD14RoundRect,0.200000X0.200000X0.275000X-0.200000X0.275000X-0.200000X-0.275000X0.200000X-0.275000X0*%
%ADD15R,0.900000X1.700000*%
%ADD16R,0.600000X1.450000*%
%ADD17R,0.300000X1.450000*%
%ADD18RoundRect,0.200000X-0.200000X-0.275000X0.200000X-0.275000X0.200000X0.275000X-0.200000X0.275000X0*%
%ADD19RoundRect,0.250000X-0.275000X-0.250000X0.275000X-0.250000X0.275000X0.250000X-0.275000X0.250000X0*%
%ADD20RoundRect,0.250000X-0.850000X-0.275000X0.850000X-0.275000X0.850000X0.275000X-0.850000X0.275000X0*%
%ADD21RoundRect,0.162500X-0.650000X-0.162500X0.650000X-0.162500X0.650000X0.162500X-0.650000X0.162500X0*%
%ADD22RoundRect,0.250000X-0.250000X-0.475000X0.250000X-0.475000X0.250000X0.475000X-0.250000X0.475000X0*%
%ADD23RoundRect,0.150000X-0.512500X-0.150000X0.512500X-0.150000X0.512500X0.150000X-0.512500X0.150000X0*%
%ADD24RoundRect,0.218750X-0.256250X0.218750X-0.256250X-0.218750X0.256250X-0.218750X0.256250X0.218750X0*%
%ADD25RoundRect,0.225000X0.250000X-0.225000X0.250000X0.225000X-0.250000X0.225000X-0.250000X-0.225000X0*%
%ADD26RoundRect,0.200000X-0.275000X0.200000X-0.275000X-0.200000X0.275000X-0.200000X0.275000X0.200000X0*%
%ADD27RoundRect,0.250000X0.275000X0.275000X-0.275000X0.275000X-0.275000X-0.275000X0.275000X-0.275000X0*%
%ADD28RoundRect,0.062500X0.350000X0.062500X-0.350000X0.062500X-0.350000X-0.062500X0.350000X-0.062500X0*%
%ADD29RoundRect,0.062500X0.062500X0.350000X-0.062500X0.350000X-0.062500X-0.350000X0.062500X-0.350000X0*%
%ADD30RoundRect,0.249999X-0.395001X-0.395001X0.395001X-0.395001X0.395001X0.395001X-0.395001X0.395001X0*%
%ADD31RoundRect,0.050000X-0.387500X-0.050000X0.387500X-0.050000X0.387500X0.050000X-0.387500X0.050000X0*%
%ADD32RoundRect,0.050000X-0.050000X-0.387500X0.050000X-0.387500X0.050000X0.387500X-0.050000X0.387500X0*%
%ADD33RoundRect,0.100000X-0.562500X-0.100000X0.562500X-0.100000X0.562500X0.100000X-0.562500X0.100000X0*%
%ADD34RoundRect,0.218750X0.218750X0.256250X-0.218750X0.256250X-0.218750X-0.256250X0.218750X-0.256250X0*%
%ADD35RoundRect,0.218750X-0.218750X-0.381250X0.218750X-0.381250X0.218750X0.381250X-0.218750X0.381250X0*%
%ADD36RoundRect,0.218750X-0.218750X-0.256250X0.218750X-0.256250X0.218750X0.256250X-0.218750X0.256250X0*%
%ADD37RoundRect,0.075000X-0.075000X0.225000X-0.075000X-0.225000X0.075000X-0.225000X0.075000X0.225000X0*%
%ADD38RoundRect,0.075000X-0.237500X0.075000X-0.237500X-0.075000X0.237500X-0.075000X0.237500X0.075000X0*%
G04 APERTURE END LIST*
D10*
%TO.C,Y1*%
X208100000Y-74800000D03*
X211000000Y-74800000D03*
X211000000Y-72500000D03*
X208100000Y-72500000D03*
%TD*%
D11*
%TO.C,C4*%
X215000000Y-87075000D03*
X215000000Y-88625000D03*
%TD*%
D12*
%TO.C,C14*%
X217865000Y-63370000D03*
X219415000Y-63370000D03*
%TD*%
D13*
%TO.C,C12*%
X215580000Y-60970000D03*
X214030000Y-60970000D03*
%TD*%
D14*
%TO.C,R8*%
X217875000Y-52925000D03*
X216225000Y-52925000D03*
%TD*%
D15*
%TO.C,boot*%
X233420000Y-45275000D03*
X230020000Y-45275000D03*
%TD*%
D14*
%TO.C,R1K*%
X228350000Y-46425000D03*
X226700000Y-46425000D03*
%TD*%
D16*
%TO.C,USB-C_RECEPTACLE*%
X223705000Y-49595000D03*
X222905000Y-49595000D03*
D17*
X221705000Y-49595000D03*
X220705000Y-49595000D03*
X220205000Y-49595000D03*
X219205000Y-49595000D03*
D16*
X218005000Y-49595000D03*
X217205000Y-49595000D03*
X217205000Y-49595000D03*
X218005000Y-49595000D03*
D17*
X218705000Y-49595000D03*
X219705000Y-49595000D03*
X221205000Y-49595000D03*
X222205000Y-49595000D03*
D16*
X222905000Y-49595000D03*
X223705000Y-49595000D03*
%TD*%
D18*
%TO.C,R11*%
X224500000Y-85300000D03*
X226150000Y-85300000D03*
%TD*%
D19*
%TO.C,AE111*%
X219775000Y-87150000D03*
D20*
X221300000Y-85675000D03*
X221300000Y-88625000D03*
%TD*%
D21*
%TO.C,U3*%
X204412500Y-48095000D03*
X204412500Y-49365000D03*
X204412500Y-50635000D03*
X204412500Y-51905000D03*
X211587500Y-51905000D03*
X211587500Y-50635000D03*
X211587500Y-49365000D03*
X211587500Y-48095000D03*
%TD*%
D22*
%TO.C,C24*%
X226300000Y-66500000D03*
X228200000Y-66500000D03*
%TD*%
D14*
%TO.C,R12*%
X230395000Y-85250000D03*
X228745000Y-85250000D03*
%TD*%
D12*
%TO.C,C22*%
X215820000Y-66925000D03*
X217370000Y-66925000D03*
%TD*%
D13*
%TO.C,C15*%
X222415000Y-63370000D03*
X220865000Y-63370000D03*
%TD*%
D23*
%TO.C,U5*%
X228000000Y-61250000D03*
X228000000Y-62200000D03*
X228000000Y-63150000D03*
X230275000Y-63150000D03*
X230275000Y-61250000D03*
%TD*%
D18*
%TO.C,R7*%
X223595000Y-59090000D03*
X225245000Y-59090000D03*
%TD*%
D24*
%TO.C,LED1*%
X226850000Y-57472500D03*
X226850000Y-59047500D03*
%TD*%
D12*
%TO.C,C19*%
X206825000Y-66925000D03*
X208375000Y-66925000D03*
%TD*%
%TO.C,C7*%
X209225000Y-69250000D03*
X210775000Y-69250000D03*
%TD*%
D25*
%TO.C,C5*%
X217975000Y-85625000D03*
X217975000Y-84075000D03*
%TD*%
D12*
%TO.C,C20*%
X209825000Y-66925000D03*
X211375000Y-66925000D03*
%TD*%
D26*
%TO.C,R1*%
X208725000Y-83375000D03*
X208725000Y-85025000D03*
%TD*%
D14*
%TO.C,R9*%
X217875000Y-54400000D03*
X216225000Y-54400000D03*
%TD*%
%TO.C,R10*%
X204355000Y-46330000D03*
X202705000Y-46330000D03*
%TD*%
D12*
%TO.C,C16*%
X223840000Y-63370000D03*
X225390000Y-63370000D03*
%TD*%
D22*
%TO.C,C25*%
X229750000Y-66500000D03*
X231650000Y-66500000D03*
%TD*%
D25*
%TO.C,C18*%
X224000000Y-71575000D03*
X224000000Y-70025000D03*
%TD*%
D11*
%TO.C,C10*%
X202875000Y-85850000D03*
X202875000Y-87400000D03*
%TD*%
D25*
%TO.C,C8*%
X215800000Y-80075000D03*
X215800000Y-78525000D03*
%TD*%
D27*
%TO.C,U2*%
X205987500Y-80500000D03*
X205987500Y-79200000D03*
X204687500Y-80500000D03*
X204687500Y-79200000D03*
D28*
X207275000Y-81100000D03*
X207275000Y-80600000D03*
X207275000Y-80100000D03*
X207275000Y-79600000D03*
X207275000Y-79100000D03*
X207275000Y-78600000D03*
D29*
X206587500Y-77912500D03*
X206087500Y-77912500D03*
X205587500Y-77912500D03*
X205087500Y-77912500D03*
X204587500Y-77912500D03*
X204087500Y-77912500D03*
D28*
X203400000Y-78600000D03*
X203400000Y-79100000D03*
X203400000Y-79600000D03*
X203400000Y-80100000D03*
X203400000Y-80600000D03*
X203400000Y-81100000D03*
D29*
X204087500Y-81787500D03*
X204587500Y-81787500D03*
X205087500Y-81787500D03*
X205587500Y-81787500D03*
X206087500Y-81787500D03*
X206587500Y-81787500D03*
%TD*%
D11*
%TO.C,C1*%
X213840000Y-47755000D03*
X213840000Y-49305000D03*
%TD*%
D18*
%TO.C,R4*%
X218425000Y-78500000D03*
X220075000Y-78500000D03*
%TD*%
D12*
%TO.C,C13*%
X214590000Y-63370000D03*
X216140000Y-63370000D03*
%TD*%
D30*
%TO.C,U1*%
X206650000Y-58650000D03*
X206650000Y-60250000D03*
X208250000Y-58650000D03*
X208250000Y-60250000D03*
D31*
X204012500Y-56850000D03*
X204012500Y-57250000D03*
X204012500Y-57650000D03*
X204012500Y-58050000D03*
X204012500Y-58450000D03*
X204012500Y-58850000D03*
X204012500Y-59250000D03*
X204012500Y-59650000D03*
X204012500Y-60050000D03*
X204012500Y-60450000D03*
X204012500Y-60850000D03*
X204012500Y-61250000D03*
X204012500Y-61650000D03*
X204012500Y-62050000D03*
D32*
X204850000Y-62887500D03*
X205250000Y-62887500D03*
X205650000Y-62887500D03*
X206050000Y-62887500D03*
X206450000Y-62887500D03*
X206850000Y-62887500D03*
X207250000Y-62887500D03*
X207650000Y-62887500D03*
X208050000Y-62887500D03*
X208450000Y-62887500D03*
X208850000Y-62887500D03*
X209250000Y-62887500D03*
X209650000Y-62887500D03*
X210050000Y-62887500D03*
D31*
X210887500Y-62050000D03*
X210887500Y-61650000D03*
X210887500Y-61250000D03*
X210887500Y-60850000D03*
X210887500Y-60450000D03*
X210887500Y-60050000D03*
X210887500Y-59650000D03*
X210887500Y-59250000D03*
X210887500Y-58850000D03*
X210887500Y-58450000D03*
X210887500Y-58050000D03*
X210887500Y-57650000D03*
X210887500Y-57250000D03*
X210887500Y-56850000D03*
D32*
X210050000Y-56012500D03*
X209650000Y-56012500D03*
X209250000Y-56012500D03*
X208850000Y-56012500D03*
X208450000Y-56012500D03*
X208050000Y-56012500D03*
X207650000Y-56012500D03*
X207250000Y-56012500D03*
X206850000Y-56012500D03*
X206450000Y-56012500D03*
X206050000Y-56012500D03*
X205650000Y-56012500D03*
X205250000Y-56012500D03*
X204850000Y-56012500D03*
%TD*%
D25*
%TO.C,C17*%
X224000000Y-74575000D03*
X224000000Y-73025000D03*
%TD*%
D12*
%TO.C,C23*%
X218820000Y-66925000D03*
X220370000Y-66925000D03*
%TD*%
D26*
%TO.C,R6*%
X228500000Y-53350000D03*
X228500000Y-55000000D03*
%TD*%
D15*
%TO.C,SW2*%
X214500000Y-73000000D03*
X217900000Y-73000000D03*
%TD*%
D13*
%TO.C,C3*%
X213500000Y-87100000D03*
X211950000Y-87100000D03*
%TD*%
D33*
%TO.C,U4*%
X208500000Y-86475000D03*
X208500000Y-87125000D03*
X208500000Y-87775000D03*
X210275000Y-87775000D03*
X210275000Y-87125000D03*
X210275000Y-86475000D03*
%TD*%
D34*
%TO.C,L2*%
X218037500Y-87125000D03*
X216462500Y-87125000D03*
%TD*%
D35*
%TO.C,L3*%
X200762500Y-84175000D03*
X202887500Y-84175000D03*
%TD*%
D12*
%TO.C,C6*%
X206225000Y-69250000D03*
X207775000Y-69250000D03*
%TD*%
D36*
%TO.C,L1*%
X203175000Y-74500000D03*
X204750000Y-74500000D03*
%TD*%
D12*
%TO.C,C11*%
X221320000Y-56410000D03*
X222870000Y-56410000D03*
%TD*%
D26*
%TO.C,R5*%
X226800000Y-53350000D03*
X226800000Y-55000000D03*
%TD*%
D12*
%TO.C,C2*%
X211950000Y-88575000D03*
X213500000Y-88575000D03*
%TD*%
D14*
%TO.C,R3*%
X212875000Y-64500000D03*
X211225000Y-64500000D03*
%TD*%
D37*
%TO.C,FL1*%
X206175000Y-83800000D03*
X205675000Y-83800000D03*
X205175000Y-83800000D03*
X204675000Y-83800000D03*
D38*
X204362500Y-84500000D03*
D37*
X204675000Y-85200000D03*
X205175000Y-85200000D03*
X205675000Y-85200000D03*
X206175000Y-85200000D03*
D38*
X206487500Y-84500000D03*
%TD*%
D25*
%TO.C,C9*%
X224000000Y-67825000D03*
X224000000Y-66275000D03*
%TD*%
D10*
%TO.C,Y2*%
X216000000Y-58687500D03*
X218900000Y-58687500D03*
X218900000Y-56387500D03*
X216000000Y-56387500D03*
%TD*%
D12*
%TO.C,C21*%
X212820000Y-66925000D03*
X214370000Y-66925000D03*
%TD*%
M02*
