%TF.GenerationSoftware,KiCad,Pcbnew,10.0.1*%
%TF.CreationDate,2026-04-22T14:26:45+05:00*%
%TF.ProjectId,Nexus Cypher,4e657875-7320-4437-9970-6865722e6b69,rev?*%
%TF.SameCoordinates,Original*%
%TF.FileFunction,Copper,L1,Top*%
%TF.FilePolarity,Positive*%
%FSLAX46Y46*%
G04 Gerber Fmt 4.6, Leading zero omitted, Abs format (unit mm)*
G04 Created by KiCad (PCBNEW 10.0.1) date 2026-04-22 14:26:45*
%MOMM*%
%LPD*%
G01*
G04 APERTURE LIST*
G04 Aperture macros list*
%AMRoundRect*
0 Rectangle with rounded corners*
0 $1 Rounding radius*
0 $2 $3 $4 $5 $6 $7 $8 $9 X,Y pos of 4 corners*
0 Add a 4 corners polygon primitive as box body*
4,1,4,$2,$3,$4,$5,$6,$7,$8,$9,$2,$3,0*
0 Add four circle primitives for the rounded corners*
1,1,$1+$1,$2,$3*
1,1,$1+$1,$4,$5*
1,1,$1+$1,$6,$7*
1,1,$1+$1,$8,$9*
0 Add four rect primitives between the rounded corners*
20,1,$1+$1,$2,$3,$4,$5,0*
20,1,$1+$1,$4,$5,$6,$7,0*
20,1,$1+$1,$6,$7,$8,$9,0*
20,1,$1+$1,$8,$9,$2,$3,0*%
G04 Aperture macros list end*
%TA.AperFunction,SMDPad,CuDef*%
%ADD10RoundRect,0.250000X-0.800000X-0.650000X0.800000X-0.650000X0.800000X0.650000X-0.800000X0.650000X0*%
%TD*%
%TA.AperFunction,SMDPad,CuDef*%
%ADD11RoundRect,0.225000X-0.250000X0.225000X-0.250000X-0.225000X0.250000X-0.225000X0.250000X0.225000X0*%
%TD*%
%TA.AperFunction,SMDPad,CuDef*%
%ADD12RoundRect,0.225000X-0.225000X-0.250000X0.225000X-0.250000X0.225000X0.250000X-0.225000X0.250000X0*%
%TD*%
%TA.AperFunction,SMDPad,CuDef*%
%ADD13RoundRect,0.225000X0.225000X0.250000X-0.225000X0.250000X-0.225000X-0.250000X0.225000X-0.250000X0*%
%TD*%
%TA.AperFunction,SMDPad,CuDef*%
%ADD14RoundRect,0.200000X0.200000X0.275000X-0.200000X0.275000X-0.200000X-0.275000X0.200000X-0.275000X0*%
%TD*%
%TA.AperFunction,SMDPad,CuDef*%
%ADD15R,0.900000X1.700000*%
%TD*%
%TA.AperFunction,SMDPad,CuDef*%
%ADD16R,0.600000X1.450000*%
%TD*%
%TA.AperFunction,SMDPad,CuDef*%
%ADD17R,0.300000X1.450000*%
%TD*%
%TA.AperFunction,HeatsinkPad*%
%ADD18O,1.000000X2.100000*%
%TD*%
%TA.AperFunction,HeatsinkPad*%
%ADD19O,1.000000X1.600000*%
%TD*%
%TA.AperFunction,SMDPad,CuDef*%
%ADD20RoundRect,0.200000X-0.200000X-0.275000X0.200000X-0.275000X0.200000X0.275000X-0.200000X0.275000X0*%
%TD*%
%TA.AperFunction,SMDPad,CuDef*%
%ADD21RoundRect,0.250000X-0.275000X-0.250000X0.275000X-0.250000X0.275000X0.250000X-0.275000X0.250000X0*%
%TD*%
%TA.AperFunction,SMDPad,CuDef*%
%ADD22RoundRect,0.250000X-0.850000X-0.275000X0.850000X-0.275000X0.850000X0.275000X-0.850000X0.275000X0*%
%TD*%
%TA.AperFunction,SMDPad,CuDef*%
%ADD23RoundRect,0.162500X-0.650000X-0.162500X0.650000X-0.162500X0.650000X0.162500X-0.650000X0.162500X0*%
%TD*%
%TA.AperFunction,SMDPad,CuDef*%
%ADD24RoundRect,0.250000X-0.250000X-0.475000X0.250000X-0.475000X0.250000X0.475000X-0.250000X0.475000X0*%
%TD*%
%TA.AperFunction,SMDPad,CuDef*%
%ADD25RoundRect,0.150000X-0.512500X-0.150000X0.512500X-0.150000X0.512500X0.150000X-0.512500X0.150000X0*%
%TD*%
%TA.AperFunction,SMDPad,CuDef*%
%ADD26RoundRect,0.218750X-0.256250X0.218750X-0.256250X-0.218750X0.256250X-0.218750X0.256250X0.218750X0*%
%TD*%
%TA.AperFunction,SMDPad,CuDef*%
%ADD27RoundRect,0.225000X0.250000X-0.225000X0.250000X0.225000X-0.250000X0.225000X-0.250000X-0.225000X0*%
%TD*%
%TA.AperFunction,SMDPad,CuDef*%
%ADD28RoundRect,0.200000X-0.275000X0.200000X-0.275000X-0.200000X0.275000X-0.200000X0.275000X0.200000X0*%
%TD*%
%TA.AperFunction,SMDPad,CuDef*%
%ADD29RoundRect,0.062500X0.350000X0.062500X-0.350000X0.062500X-0.350000X-0.062500X0.350000X-0.062500X0*%
%TD*%
%TA.AperFunction,SMDPad,CuDef*%
%ADD30RoundRect,0.062500X0.062500X0.350000X-0.062500X0.350000X-0.062500X-0.350000X0.062500X-0.350000X0*%
%TD*%
%TA.AperFunction,HeatsinkPad*%
%ADD31R,2.600000X2.600000*%
%TD*%
%TA.AperFunction,SMDPad,CuDef*%
%ADD32RoundRect,0.050000X-0.387500X-0.050000X0.387500X-0.050000X0.387500X0.050000X-0.387500X0.050000X0*%
%TD*%
%TA.AperFunction,SMDPad,CuDef*%
%ADD33RoundRect,0.050000X-0.050000X-0.387500X0.050000X-0.387500X0.050000X0.387500X-0.050000X0.387500X0*%
%TD*%
%TA.AperFunction,HeatsinkPad*%
%ADD34R,3.200000X3.200000*%
%TD*%
%TA.AperFunction,SMDPad,CuDef*%
%ADD35RoundRect,0.100000X-0.562500X-0.100000X0.562500X-0.100000X0.562500X0.100000X-0.562500X0.100000X0*%
%TD*%
%TA.AperFunction,SMDPad,CuDef*%
%ADD36RoundRect,0.218750X0.218750X0.256250X-0.218750X0.256250X-0.218750X-0.256250X0.218750X-0.256250X0*%
%TD*%
%TA.AperFunction,SMDPad,CuDef*%
%ADD37RoundRect,0.218750X-0.218750X-0.381250X0.218750X-0.381250X0.218750X0.381250X-0.218750X0.381250X0*%
%TD*%
%TA.AperFunction,SMDPad,CuDef*%
%ADD38RoundRect,0.218750X-0.218750X-0.256250X0.218750X-0.256250X0.218750X0.256250X-0.218750X0.256250X0*%
%TD*%
%TA.AperFunction,ComponentPad*%
%ADD39R,1.700000X1.700000*%
%TD*%
%TA.AperFunction,ComponentPad*%
%ADD40C,1.700000*%
%TD*%
%TA.AperFunction,SMDPad,CuDef*%
%ADD41RoundRect,0.075000X-0.075000X0.225000X-0.075000X-0.225000X0.075000X-0.225000X0.075000X0.225000X0*%
%TD*%
%TA.AperFunction,SMDPad,CuDef*%
%ADD42RoundRect,0.075000X-0.237500X0.075000X-0.237500X-0.075000X0.237500X-0.075000X0.237500X0.075000X0*%
%TD*%
%TA.AperFunction,ViaPad*%
%ADD43C,0.600000*%
%TD*%
%TA.AperFunction,Conductor*%
%ADD44C,0.200000*%
%TD*%
G04 APERTURE END LIST*
D10*
%TO.P,Y1,1,1_1*%
%TO.N,/XX_XTA*%
X208100000Y-74800000D03*
%TO.P,Y1,2,G_2*%
%TO.N,GND*%
X211000000Y-74800000D03*
%TO.P,Y1,3,3_3*%
%TO.N,/XX_XTB*%
X211000000Y-72500000D03*
%TO.P,Y1,4,G_4*%
%TO.N,GND*%
X208100000Y-72500000D03*
%TD*%
D11*
%TO.P,C4,1*%
%TO.N,Net-(C3-Pad1)*%
X215000000Y-87075000D03*
%TO.P,C4,2*%
%TO.N,GND*%
X215000000Y-88625000D03*
%TD*%
D12*
%TO.P,C14,1*%
%TO.N,+1V1*%
X217865000Y-63370000D03*
%TO.P,C14,2*%
%TO.N,GND*%
X219415000Y-63370000D03*
%TD*%
D13*
%TO.P,C12,1*%
%TO.N,GND*%
X215580000Y-60970000D03*
%TO.P,C12,2*%
%TO.N,/XX_IN*%
X214030000Y-60970000D03*
%TD*%
D14*
%TO.P,R8,1*%
%TO.N,Net-(J2-D+-PadA6)*%
X217875000Y-52925000D03*
%TO.P,R8,2*%
%TO.N,/USB_D+*%
X216225000Y-52925000D03*
%TD*%
D15*
%TO.P,boot,1,1_1*%
%TO.N,GND*%
X233420000Y-45275000D03*
%TO.P,boot,2,2_2*%
%TO.N,Net-(R2-Pad1)*%
X230020000Y-45275000D03*
%TD*%
D14*
%TO.P,R1K,1*%
%TO.N,Net-(R2-Pad1)*%
X228350000Y-46425000D03*
%TO.P,R1K,2*%
%TO.N,/QSPI_SS*%
X226700000Y-46425000D03*
%TD*%
D16*
%TO.P,USB-C_RECEPTACLE,A1,GND_A1*%
%TO.N,GND*%
X223705000Y-49595000D03*
%TO.P,USB-C_RECEPTACLE,A4,VBUS_A4*%
%TO.N,VBUS1*%
X222905000Y-49595000D03*
D17*
%TO.P,USB-C_RECEPTACLE,A5,CC1_A5*%
%TO.N,Net-(J2-CC1)*%
X221705000Y-49595000D03*
%TO.P,USB-C_RECEPTACLE,A6,D+_A6*%
%TO.N,Net-(J2-D+-PadA6)*%
X220705000Y-49595000D03*
%TO.P,USB-C_RECEPTACLE,A7,D-_A7*%
%TO.N,Net-(J2-D--PadA7)*%
X220205000Y-49595000D03*
%TO.P,USB-C_RECEPTACLE,A8,SBU1_A8*%
%TO.N,unconnected-(J2-SBU1-PadA8)*%
X219205000Y-49595000D03*
D16*
%TO.P,USB-C_RECEPTACLE,A9,VBUS_A9*%
%TO.N,VBUS1*%
X218005000Y-49595000D03*
%TO.P,USB-C_RECEPTACLE,A12,GND_A12*%
%TO.N,GND*%
X217205000Y-49595000D03*
%TO.P,USB-C_RECEPTACLE,B1,GND_B1*%
X217205000Y-49595000D03*
%TO.P,USB-C_RECEPTACLE,B4,VBUS_B4*%
%TO.N,VBUS1*%
X218005000Y-49595000D03*
D17*
%TO.P,USB-C_RECEPTACLE,B5,CC2_B5*%
%TO.N,Net-(J2-CC2)*%
X218705000Y-49595000D03*
%TO.P,USB-C_RECEPTACLE,B6,D+_B6*%
%TO.N,Net-(J2-D+-PadA6)*%
X219705000Y-49595000D03*
%TO.P,USB-C_RECEPTACLE,B7,D-_B7*%
%TO.N,Net-(J2-D--PadA7)*%
X221205000Y-49595000D03*
%TO.P,USB-C_RECEPTACLE,B8,SBU2_B8*%
%TO.N,unconnected-(J2-SBU2-PadB8)*%
X222205000Y-49595000D03*
D16*
%TO.P,USB-C_RECEPTACLE,B9,VBUS_B9*%
%TO.N,VBUS1*%
X222905000Y-49595000D03*
%TO.P,USB-C_RECEPTACLE,B12,GND_B12*%
%TO.N,GND*%
X223705000Y-49595000D03*
D18*
%TO.P,USB-C_RECEPTACLE,S1,SHIELD_S1*%
X224775000Y-48680000D03*
D19*
X224775000Y-44500000D03*
D18*
X216135000Y-48680000D03*
D19*
X216135000Y-44500000D03*
%TD*%
D20*
%TO.P,R11,1*%
%TO.N,+3V3*%
X224500000Y-85300000D03*
%TO.P,R11,2*%
%TO.N,/XX_SDA*%
X226150000Y-85300000D03*
%TD*%
D21*
%TO.P,AE111,1,A_1*%
%TO.N,Net-(AE111-A)*%
X219775000Y-87150000D03*
D22*
%TO.P,AE111,2*%
%TO.N,N/C*%
X221300000Y-85675000D03*
X221300000Y-88625000D03*
%TD*%
D23*
%TO.P,U3,1,~{CS}_1*%
%TO.N,/QSPI_SS*%
X204412500Y-48095000D03*
%TO.P,U3,2,DO/IO_{1}_2*%
%TO.N,/QSPI_SD1*%
X204412500Y-49365000D03*
%TO.P,U3,3,~{WP}/IO_{2}_3*%
%TO.N,/QSPI_SD2*%
X204412500Y-50635000D03*
%TO.P,U3,4,GND_4*%
%TO.N,GND*%
X204412500Y-51905000D03*
%TO.P,U3,5,DI/IO_{0}_5*%
%TO.N,/QSPI_SD0*%
X211587500Y-51905000D03*
%TO.P,U3,6,CLK_6*%
%TO.N,/QSPI_SCLK*%
X211587500Y-50635000D03*
%TO.P,U3,7,~{HOLD}/~{RESET}/IO_{3}_7*%
%TO.N,/QSPI_SD3*%
X211587500Y-49365000D03*
%TO.P,U3,8,VCC_8*%
%TO.N,+3V3*%
X211587500Y-48095000D03*
%TD*%
D24*
%TO.P,C24,1*%
%TO.N,VBUS2*%
X226300000Y-66500000D03*
%TO.P,C24,2*%
%TO.N,GND*%
X228200000Y-66500000D03*
%TD*%
D14*
%TO.P,R12,1*%
%TO.N,+3V3*%
X230395000Y-85250000D03*
%TO.P,R12,2*%
%TO.N,/XX_SCL*%
X228745000Y-85250000D03*
%TD*%
D12*
%TO.P,C22,1*%
%TO.N,+3V3*%
X215820000Y-66925000D03*
%TO.P,C22,2*%
%TO.N,GND*%
X217370000Y-66925000D03*
%TD*%
D13*
%TO.P,C15,1*%
%TO.N,GND*%
X222415000Y-63370000D03*
%TO.P,C15,2*%
%TO.N,+1V1*%
X220865000Y-63370000D03*
%TD*%
D25*
%TO.P,U5,1,VIN_1*%
%TO.N,VBUS2*%
X228000000Y-61250000D03*
%TO.P,U5,2,GND_2*%
%TO.N,GND*%
X228000000Y-62200000D03*
%TO.P,U5,3,EN_3*%
%TO.N,VBUS2*%
X228000000Y-63150000D03*
%TO.P,U5,4,NC_4*%
%TO.N,unconnected-(U5-NC-Pad4)*%
X230275000Y-63150000D03*
%TO.P,U5,5,VOUT_5*%
%TO.N,+3V3*%
X230275000Y-61250000D03*
%TD*%
D20*
%TO.P,R7,1*%
%TO.N,Net-(U1-GPIO25)*%
X223595000Y-59090000D03*
%TO.P,R7,2*%
%TO.N,Net-(LED1-A)*%
X225245000Y-59090000D03*
%TD*%
D26*
%TO.P,LED1,1,K_1*%
%TO.N,GND*%
X226850000Y-57472500D03*
%TO.P,LED1,2,A_2*%
%TO.N,Net-(LED1-A)*%
X226850000Y-59047500D03*
%TD*%
D12*
%TO.P,C19,1*%
%TO.N,+3V3*%
X206825000Y-66925000D03*
%TO.P,C19,2*%
%TO.N,GND*%
X208375000Y-66925000D03*
%TD*%
%TO.P,C7,1*%
%TO.N,/XX_VR_PA*%
X209225000Y-69250000D03*
%TO.P,C7,2*%
%TO.N,GND*%
X210775000Y-69250000D03*
%TD*%
D27*
%TO.P,C5,1*%
%TO.N,Net-(AE111-A)*%
X217975000Y-85625000D03*
%TO.P,C5,2*%
%TO.N,GND*%
X217975000Y-84075000D03*
%TD*%
D12*
%TO.P,C20,1*%
%TO.N,+3V3*%
X209825000Y-66925000D03*
%TO.P,C20,2*%
%TO.N,GND*%
X211375000Y-66925000D03*
%TD*%
D28*
%TO.P,R1,1*%
%TO.N,/XX_DIO2*%
X208725000Y-83375000D03*
%TO.P,R1,2*%
%TO.N,Net-(U4-CTRL)*%
X208725000Y-85025000D03*
%TD*%
D14*
%TO.P,R9,1*%
%TO.N,Net-(J2-D--PadA7)*%
X217875000Y-54400000D03*
%TO.P,R9,2*%
%TO.N,/USB_D-*%
X216225000Y-54400000D03*
%TD*%
%TO.P,R10,1*%
%TO.N,/QSPI_SS*%
X204355000Y-46330000D03*
%TO.P,R10,2*%
%TO.N,Net-(U1-~{QSPI_SS})*%
X202705000Y-46330000D03*
%TD*%
D12*
%TO.P,C16,1*%
%TO.N,+3V3*%
X223840000Y-63370000D03*
%TO.P,C16,2*%
%TO.N,GND*%
X225390000Y-63370000D03*
%TD*%
D24*
%TO.P,C25,1*%
%TO.N,+3V3*%
X229750000Y-66500000D03*
%TO.P,C25,2*%
%TO.N,GND*%
X231650000Y-66500000D03*
%TD*%
D27*
%TO.P,C18,1*%
%TO.N,+3V3*%
X224000000Y-71575000D03*
%TO.P,C18,2*%
%TO.N,GND*%
X224000000Y-70025000D03*
%TD*%
D11*
%TO.P,C10,1*%
%TO.N,Net-(U2-VREG)*%
X202875000Y-85850000D03*
%TO.P,C10,2*%
%TO.N,GND*%
X202875000Y-87400000D03*
%TD*%
D27*
%TO.P,C8,1*%
%TO.N,GND*%
X215800000Y-80075000D03*
%TO.P,C8,2*%
%TO.N,+3V3*%
X215800000Y-78525000D03*
%TD*%
D29*
%TO.P,U2,1,VDD_IN_1*%
%TO.N,+3V3*%
X207275000Y-81100000D03*
%TO.P,U2,2,GND_2*%
%TO.N,GND*%
X207275000Y-80600000D03*
%TO.P,U2,3,XTA_3*%
%TO.N,/XX_XTA*%
X207275000Y-80100000D03*
%TO.P,U2,4,XTB_4*%
%TO.N,/XX_XTB*%
X207275000Y-79600000D03*
%TO.P,U2,5,GND_5*%
%TO.N,GND*%
X207275000Y-79100000D03*
%TO.P,U2,6,DIO3_6*%
%TO.N,unconnected-(U2-DIO3-Pad6)*%
X207275000Y-78600000D03*
D30*
%TO.P,U2,7,VREG_7*%
%TO.N,Net-(U2-VREG)*%
X206587500Y-77912500D03*
%TO.P,U2,8,GND_8*%
%TO.N,GND*%
X206087500Y-77912500D03*
%TO.P,U2,9,DCC_SW_9*%
%TO.N,Net-(U2-DCC_SW)*%
X205587500Y-77912500D03*
%TO.P,U2,10,VBAT_10*%
%TO.N,+3V3*%
X205087500Y-77912500D03*
%TO.P,U2,11,VBAT_IO_11*%
X204587500Y-77912500D03*
%TO.P,U2,12,DIO2_12*%
%TO.N,/XX_DIO2*%
X204087500Y-77912500D03*
D29*
%TO.P,U2,13,DIO1_13*%
%TO.N,/XX_DIO1*%
X203400000Y-78600000D03*
%TO.P,U2,14,BUSY_14*%
%TO.N,/XX_BUSY*%
X203400000Y-79100000D03*
%TO.P,U2,15,~{RESET}_15*%
%TO.N,/XX_NRST*%
X203400000Y-79600000D03*
%TO.P,U2,16,MISO_16*%
%TO.N,/SPI_MISO*%
X203400000Y-80100000D03*
%TO.P,U2,17,MOSI_17*%
%TO.N,/SPI_MOSI*%
X203400000Y-80600000D03*
%TO.P,U2,18,SCK_18*%
%TO.N,/SPI_SCK*%
X203400000Y-81100000D03*
D30*
%TO.P,U2,19,NSS_19*%
%TO.N,/XX_NSS*%
X204087500Y-81787500D03*
%TO.P,U2,20,GND_20*%
%TO.N,GND*%
X204587500Y-81787500D03*
%TO.P,U2,21,RFI_P_21*%
%TO.N,/XX_RFI_P*%
X205087500Y-81787500D03*
%TO.P,U2,22,RFI_N_22*%
%TO.N,/XX_RFI_N*%
X205587500Y-81787500D03*
%TO.P,U2,23,RFO_23*%
%TO.N,/XX_RFO*%
X206087500Y-81787500D03*
%TO.P,U2,24,VR_PA_24*%
%TO.N,/XX_VR_PA*%
X206587500Y-81787500D03*
D31*
%TO.P,U2,25,GND_25*%
%TO.N,GND*%
X205337500Y-79850000D03*
%TD*%
D11*
%TO.P,C1,1*%
%TO.N,+3V3*%
X213840000Y-47755000D03*
%TO.P,C1,2*%
%TO.N,GND*%
X213840000Y-49305000D03*
%TD*%
D20*
%TO.P,R4,1*%
%TO.N,+3V3*%
X218425000Y-78500000D03*
%TO.P,R4,2*%
%TO.N,/XX_RUN*%
X220075000Y-78500000D03*
%TD*%
D12*
%TO.P,C13,1*%
%TO.N,+1V1*%
X214590000Y-63370000D03*
%TO.P,C13,2*%
%TO.N,GND*%
X216140000Y-63370000D03*
%TD*%
D32*
%TO.P,U1,1,IOVDD_1*%
%TO.N,+3V3*%
X204012500Y-56850000D03*
%TO.P,U1,2,GPIO0_2*%
%TO.N,/XX_SDA*%
X204012500Y-57250000D03*
%TO.P,U1,3,GPIO1_3*%
%TO.N,/XX_SCL*%
X204012500Y-57650000D03*
%TO.P,U1,4,GPIO2_4*%
%TO.N,/SPI_SCK*%
X204012500Y-58050000D03*
%TO.P,U1,5,GPIO3_5*%
%TO.N,/SPI_MOSI*%
X204012500Y-58450000D03*
%TO.P,U1,6,GPIO4_6*%
%TO.N,/SPI_MISO*%
X204012500Y-58850000D03*
%TO.P,U1,7,GPIO5_7*%
%TO.N,/XX_NSS*%
X204012500Y-59250000D03*
%TO.P,U1,8,GPIO6_8*%
%TO.N,/XX_BUSY*%
X204012500Y-59650000D03*
%TO.P,U1,9,GPIO7_9*%
%TO.N,/XX_NRST*%
X204012500Y-60050000D03*
%TO.P,U1,10,IOVDD_10*%
%TO.N,+3V3*%
X204012500Y-60450000D03*
%TO.P,U1,11,GPIO8_11*%
%TO.N,/XX_DIO1*%
X204012500Y-60850000D03*
%TO.P,U1,12,GPIO9_12*%
%TO.N,unconnected-(U1-GPIO9-Pad12)*%
X204012500Y-61250000D03*
%TO.P,U1,13,GPIO10_13*%
%TO.N,unconnected-(U1-GPIO10-Pad13)*%
X204012500Y-61650000D03*
%TO.P,U1,14,GPIO11_14*%
%TO.N,unconnected-(U1-GPIO11-Pad14)*%
X204012500Y-62050000D03*
D33*
%TO.P,U1,15,GPIO12_15*%
%TO.N,unconnected-(U1-GPIO12-Pad15)*%
X204850000Y-62887500D03*
%TO.P,U1,16,GPIO13_16*%
%TO.N,unconnected-(U1-GPIO13-Pad16)*%
X205250000Y-62887500D03*
%TO.P,U1,17,GPIO14_17*%
%TO.N,unconnected-(U1-GPIO14-Pad17)*%
X205650000Y-62887500D03*
%TO.P,U1,18,GPIO15_18*%
%TO.N,unconnected-(U1-GPIO15-Pad18)*%
X206050000Y-62887500D03*
%TO.P,U1,19,TESTEN_19*%
%TO.N,unconnected-(U1-TESTEN-Pad19)*%
X206450000Y-62887500D03*
%TO.P,U1,20,XIN_20*%
%TO.N,/XX_IN*%
X206850000Y-62887500D03*
%TO.P,U1,21,XOUT_21*%
%TO.N,/XX_OUT*%
X207250000Y-62887500D03*
%TO.P,U1,22,IOVDD_22*%
%TO.N,+3V3*%
X207650000Y-62887500D03*
%TO.P,U1,23,DVDD_23*%
%TO.N,+1V1*%
X208050000Y-62887500D03*
%TO.P,U1,24,SWCLK_24*%
%TO.N,unconnected-(U1-SWCLK-Pad24)*%
X208450000Y-62887500D03*
%TO.P,U1,25,SWDIO_25*%
%TO.N,unconnected-(U1-SWDIO-Pad25)*%
X208850000Y-62887500D03*
%TO.P,U1,26,RUN_26*%
%TO.N,/XX_RUN*%
X209250000Y-62887500D03*
%TO.P,U1,27,GPIO16_27*%
%TO.N,unconnected-(U1-GPIO16-Pad27)*%
X209650000Y-62887500D03*
%TO.P,U1,28,GPIO17_28*%
%TO.N,unconnected-(U1-GPIO17-Pad28)*%
X210050000Y-62887500D03*
D32*
%TO.P,U1,29,GPIO18_29*%
%TO.N,unconnected-(U1-GPIO18-Pad29)*%
X210887500Y-62050000D03*
%TO.P,U1,30,GPIO19_30*%
%TO.N,unconnected-(U1-GPIO19-Pad30)*%
X210887500Y-61650000D03*
%TO.P,U1,31,GPIO20_31*%
%TO.N,unconnected-(U1-GPIO20-Pad31)*%
X210887500Y-61250000D03*
%TO.P,U1,32,GPIO21_32*%
%TO.N,unconnected-(U1-GPIO21-Pad32)*%
X210887500Y-60850000D03*
%TO.P,U1,33,IOVDD_33*%
%TO.N,+3V3*%
X210887500Y-60450000D03*
%TO.P,U1,34,GPIO22_34*%
%TO.N,unconnected-(U1-GPIO22-Pad34)*%
X210887500Y-60050000D03*
%TO.P,U1,35,GPIO23_35*%
%TO.N,unconnected-(U1-GPIO23-Pad35)*%
X210887500Y-59650000D03*
%TO.P,U1,36,GPIO24_36*%
%TO.N,unconnected-(U1-GPIO24-Pad36)*%
X210887500Y-59250000D03*
%TO.P,U1,37,GPIO25_37*%
%TO.N,Net-(U1-GPIO25)*%
X210887500Y-58850000D03*
%TO.P,U1,38,GPIO26/ADC0_38*%
%TO.N,unconnected-(U1-GPIO26{slash}ADC0-Pad38)*%
X210887500Y-58450000D03*
%TO.P,U1,39,GPIO27/ADC1_39*%
%TO.N,unconnected-(U1-GPIO27{slash}ADC1-Pad39)*%
X210887500Y-58050000D03*
%TO.P,U1,40,GPIO28/ADC2_40*%
%TO.N,unconnected-(U1-GPIO28{slash}ADC2-Pad40)*%
X210887500Y-57650000D03*
%TO.P,U1,41,GPIO29/ADC3_41*%
%TO.N,unconnected-(U1-GPIO29{slash}ADC3-Pad41)*%
X210887500Y-57250000D03*
%TO.P,U1,42,IOVDD_42*%
%TO.N,+3V3*%
X210887500Y-56850000D03*
D33*
%TO.P,U1,43,ADC_AVDD_43*%
X210050000Y-56012500D03*
%TO.P,U1,44,VREG_VIN_44*%
X209650000Y-56012500D03*
%TO.P,U1,45,VREG_VOUT_45*%
%TO.N,+1V1*%
X209250000Y-56012500D03*
%TO.P,U1,46,USB_DM_46*%
%TO.N,/USB_D-*%
X208850000Y-56012500D03*
%TO.P,U1,47,USB_DP_47*%
%TO.N,/USB_D+*%
X208450000Y-56012500D03*
%TO.P,U1,48,USB_VDD_48*%
%TO.N,+3V3*%
X208050000Y-56012500D03*
%TO.P,U1,49,IOVDD_49*%
X207650000Y-56012500D03*
%TO.P,U1,50,DVDD_50*%
%TO.N,+1V1*%
X207250000Y-56012500D03*
%TO.P,U1,51,QSPI_SD3_51*%
%TO.N,/QSPI_SD3*%
X206850000Y-56012500D03*
%TO.P,U1,52,QSPI_SCLK_52*%
%TO.N,/QSPI_SCLK*%
X206450000Y-56012500D03*
%TO.P,U1,53,QSPI_SD0_53*%
%TO.N,/QSPI_SD0*%
X206050000Y-56012500D03*
%TO.P,U1,54,QSPI_SD2_54*%
%TO.N,/QSPI_SD2*%
X205650000Y-56012500D03*
%TO.P,U1,55,QSPI_SD1_55*%
%TO.N,/QSPI_SD1*%
X205250000Y-56012500D03*
%TO.P,U1,56,~{QSPI_SS}_56*%
%TO.N,Net-(U1-~{QSPI_SS})*%
X204850000Y-56012500D03*
D34*
%TO.P,U1,57,GND_57*%
%TO.N,GND*%
X207450000Y-59450000D03*
%TD*%
D27*
%TO.P,C17,1*%
%TO.N,+3V3*%
X224000000Y-74575000D03*
%TO.P,C17,2*%
%TO.N,GND*%
X224000000Y-73025000D03*
%TD*%
D12*
%TO.P,C23,1*%
%TO.N,+3V3*%
X218820000Y-66925000D03*
%TO.P,C23,2*%
%TO.N,GND*%
X220370000Y-66925000D03*
%TD*%
D28*
%TO.P,R6,1*%
%TO.N,Net-(J2-CC2)*%
X228500000Y-53350000D03*
%TO.P,R6,2*%
%TO.N,GND*%
X228500000Y-55000000D03*
%TD*%
D15*
%TO.P,SW2,1,1_1*%
%TO.N,GND*%
X214500000Y-73000000D03*
%TO.P,SW2,2,2_2*%
%TO.N,/XX_RUN*%
X217900000Y-73000000D03*
%TD*%
D13*
%TO.P,C3,1*%
%TO.N,Net-(C3-Pad1)*%
X213500000Y-87100000D03*
%TO.P,C3,2*%
%TO.N,Net-(U4-RFIN)*%
X211950000Y-87100000D03*
%TD*%
D35*
%TO.P,U4,1,RF1_1*%
%TO.N,/XX_SW_RFO*%
X208500000Y-86475000D03*
%TO.P,U4,2,GND_2*%
%TO.N,GND*%
X208500000Y-87125000D03*
%TO.P,U4,3,RF2_3*%
%TO.N,/XX_SW_RFI*%
X208500000Y-87775000D03*
%TO.P,U4,4,CTRL_4*%
%TO.N,Net-(U4-CTRL)*%
X210275000Y-87775000D03*
%TO.P,U4,5,RFIN_5*%
%TO.N,Net-(U4-RFIN)*%
X210275000Y-87125000D03*
%TO.P,U4,6,VDD_6*%
%TO.N,+3V3*%
X210275000Y-86475000D03*
%TD*%
D36*
%TO.P,L2,1,1_1*%
%TO.N,Net-(AE111-A)*%
X218037500Y-87125000D03*
%TO.P,L2,2,2_2*%
%TO.N,Net-(C3-Pad1)*%
X216462500Y-87125000D03*
%TD*%
D37*
%TO.P,L3,1,1_1*%
%TO.N,Net-(U2-DCC_SW)*%
X200762500Y-84175000D03*
%TO.P,L3,2,2_2*%
%TO.N,Net-(U2-VREG)*%
X202887500Y-84175000D03*
%TD*%
D12*
%TO.P,C6,1*%
%TO.N,/XX_VR_PA*%
X206225000Y-69250000D03*
%TO.P,C6,2*%
%TO.N,GND*%
X207775000Y-69250000D03*
%TD*%
D38*
%TO.P,L1,1,1_1*%
%TO.N,/XX_VR_PA*%
X203175000Y-74500000D03*
%TO.P,L1,2,2_2*%
%TO.N,/XX_RFO*%
X204750000Y-74500000D03*
%TD*%
D12*
%TO.P,C11,1*%
%TO.N,Net-(C11-Pad1)*%
X221320000Y-56410000D03*
%TO.P,C11,2*%
%TO.N,GND*%
X222870000Y-56410000D03*
%TD*%
D28*
%TO.P,R5,1*%
%TO.N,Net-(J2-CC1)*%
X226800000Y-53350000D03*
%TO.P,R5,2*%
%TO.N,GND*%
X226800000Y-55000000D03*
%TD*%
D12*
%TO.P,C2,1*%
%TO.N,Net-(U4-CTRL)*%
X211950000Y-88575000D03*
%TO.P,C2,2*%
%TO.N,GND*%
X213500000Y-88575000D03*
%TD*%
D14*
%TO.P,R3,1*%
%TO.N,Net-(C11-Pad1)*%
X212875000Y-64500000D03*
%TO.P,R3,2*%
%TO.N,/XX_OUT*%
X211225000Y-64500000D03*
%TD*%
D39*
%TO.P,J3,1,Pin_1_1*%
%TO.N,GND*%
X233725000Y-82450000D03*
D40*
%TO.P,J3,2,Pin_2_2*%
%TO.N,+3V3*%
X231185000Y-82450000D03*
%TO.P,J3,3,Pin_3_3*%
%TO.N,/XX_SCL*%
X228645000Y-82450000D03*
%TO.P,J3,4,Pin_4_4*%
%TO.N,/XX_SDA*%
X226105000Y-82450000D03*
%TD*%
D41*
%TO.P,FL1,1,RFO_1*%
%TO.N,/XX_RFO*%
X206175000Y-83800000D03*
%TO.P,FL1,2,GND_2*%
%TO.N,GND*%
X205675000Y-83800000D03*
%TO.P,FL1,3,RFI_N_3*%
%TO.N,/XX_RFI_N*%
X205175000Y-83800000D03*
%TO.P,FL1,4,RFI_P_4*%
%TO.N,/XX_RFI_P*%
X204675000Y-83800000D03*
D42*
%TO.P,FL1,5,GND_5*%
%TO.N,GND*%
X204362500Y-84500000D03*
D41*
%TO.P,FL1,6,SW_RFI_6*%
%TO.N,/XX_SW_RFI*%
X204675000Y-85200000D03*
%TO.P,FL1,7,GND_7*%
%TO.N,GND*%
X205175000Y-85200000D03*
%TO.P,FL1,8,SW_RFO_8*%
%TO.N,/XX_SW_RFO*%
X205675000Y-85200000D03*
%TO.P,FL1,9,GND_9*%
%TO.N,GND*%
X206175000Y-85200000D03*
D42*
%TO.P,FL1,10,GND_10*%
X206487500Y-84500000D03*
%TD*%
D27*
%TO.P,C9,1*%
%TO.N,+3V3*%
X224000000Y-67825000D03*
%TO.P,C9,2*%
%TO.N,GND*%
X224000000Y-66275000D03*
%TD*%
D10*
%TO.P,Y2,1,1_1*%
%TO.N,/XX_IN*%
X216000000Y-58687500D03*
%TO.P,Y2,2,G_2*%
%TO.N,GND*%
X218900000Y-58687500D03*
%TO.P,Y2,3,3_3*%
%TO.N,Net-(C11-Pad1)*%
X218900000Y-56387500D03*
%TO.P,Y2,4,G_4*%
%TO.N,GND*%
X216000000Y-56387500D03*
%TD*%
D12*
%TO.P,C21,1*%
%TO.N,+3V3*%
X212820000Y-66925000D03*
%TO.P,C21,2*%
%TO.N,GND*%
X214370000Y-66925000D03*
%TD*%
D43*
%TO.N,GND*%
X214325000Y-88625000D03*
X205320000Y-79360000D03*
X207750000Y-68750000D03*
X215630000Y-61570000D03*
X222845000Y-55610000D03*
X220170000Y-58670000D03*
X214630000Y-56450000D03*
X214000000Y-73000000D03*
X207692947Y-87124999D03*
X223600000Y-70000000D03*
X225390000Y-63870000D03*
X220500000Y-66500000D03*
X227200000Y-62200000D03*
X216125000Y-49975000D03*
X211250000Y-66500000D03*
X217925000Y-83375000D03*
X223400000Y-66200000D03*
X233805000Y-80750000D03*
X222390000Y-63870000D03*
X234410000Y-45265000D03*
X210790000Y-68580000D03*
X228200000Y-67400000D03*
X202300000Y-87400000D03*
X214250000Y-66500000D03*
X207410000Y-57800000D03*
X212190000Y-73970000D03*
X204037500Y-84500000D03*
X208400000Y-66400000D03*
X219390000Y-63870000D03*
X223400000Y-73000000D03*
X216140000Y-63870000D03*
X226800000Y-55600000D03*
X231600000Y-67400000D03*
X215225000Y-80025000D03*
X206800000Y-72400000D03*
X217400000Y-66400000D03*
X204360000Y-52600000D03*
%TO.N,/XX_XTB*%
X209451000Y-76830000D03*
X208251000Y-78325000D03*
%TO.N,+1V1*%
X209530000Y-61700000D03*
X212440000Y-62170000D03*
%TO.N,/XX_IN*%
X206860000Y-61990000D03*
X212700000Y-60970000D03*
%TO.N,Net-(J2-CC2)*%
X218675000Y-51050000D03*
X221750000Y-54051000D03*
%TO.N,+3V3*%
X209800000Y-66400000D03*
X230200000Y-60600000D03*
X204850000Y-77912500D03*
X218400000Y-79200000D03*
X223840000Y-64070000D03*
X231205000Y-80750000D03*
X215150000Y-78550000D03*
X206800000Y-66400000D03*
X223200000Y-74600000D03*
X224525000Y-84725000D03*
X231050000Y-85250000D03*
X215800000Y-66400000D03*
X212800000Y-66400000D03*
X203994485Y-56005515D03*
X223400000Y-71600000D03*
X218800000Y-66400000D03*
X214730000Y-47770000D03*
X205260000Y-61120000D03*
X223400000Y-67800000D03*
X210275000Y-86150000D03*
X211750000Y-56850000D03*
X207850000Y-56350000D03*
X229800000Y-65400000D03*
X208650000Y-81100000D03*
%TO.N,/XX_SDA*%
X223350000Y-91575000D03*
X225350000Y-89700000D03*
%TO.N,VBUS2*%
X226300000Y-65500000D03*
X227200000Y-63200000D03*
%TO.N,Net-(U1-GPIO25)*%
X212902971Y-60196174D03*
X222495000Y-60190000D03*
%TO.N,/XX_VR_PA*%
X206860000Y-81780000D03*
X203194265Y-77545735D03*
%TO.N,/XX_DIO2*%
X210775000Y-82250000D03*
X205030000Y-76230000D03*
%TO.N,Net-(U2-VREG)*%
X206910000Y-77914272D03*
X204200000Y-86850000D03*
%TO.N,Net-(U2-DCC_SW)*%
X200716135Y-80758865D03*
X205411675Y-76933085D03*
%TO.N,/XX_NRST*%
X201379000Y-63650000D03*
X203095229Y-60250000D03*
%TO.N,/XX_NSS*%
X199376000Y-62180000D03*
X201480000Y-59670000D03*
%TO.N,/XX_RFO*%
X206205008Y-76830000D03*
X207440000Y-82930000D03*
%TO.N,/XX_RUN*%
X209440000Y-63900000D03*
X212910000Y-68470000D03*
%TO.N,Net-(C11-Pad1)*%
X212900000Y-63480000D03*
X217240000Y-61571000D03*
%TD*%
%TO.N,/XX_XTA*%
D44*
X208851000Y-79019000D02*
X208851000Y-75551000D01*
X207303246Y-80128246D02*
X207275000Y-80100000D01*
X208851000Y-75551000D02*
X208100000Y-74800000D01*
X207770000Y-80100000D02*
X208851000Y-79019000D01*
X207275000Y-80100000D02*
X207770000Y-80100000D01*
%TO.N,GND*%
X206175000Y-84867590D02*
X205807410Y-84500000D01*
X223475000Y-66275000D02*
X223400000Y-66200000D01*
X225390000Y-63370000D02*
X225390000Y-63870000D01*
X219415000Y-63370000D02*
X219415000Y-63845000D01*
X220370000Y-66925000D02*
X220370000Y-66630000D01*
X215580000Y-60970000D02*
X215580000Y-61520000D01*
X205675000Y-83800000D02*
X205675000Y-84132410D01*
X208375000Y-66425000D02*
X208400000Y-66400000D01*
X207275000Y-80600000D02*
X206087500Y-80600000D01*
X204362500Y-84500000D02*
X204807410Y-84500000D01*
X218900000Y-58687500D02*
X220152500Y-58687500D01*
X217370000Y-66925000D02*
X217370000Y-66430000D01*
X211000000Y-74800000D02*
X211360000Y-74800000D01*
X222415000Y-63370000D02*
X222415000Y-63845000D01*
X216000000Y-56387500D02*
X214692500Y-56387500D01*
X205175000Y-84867590D02*
X204807410Y-84500000D01*
X215800000Y-80075000D02*
X215275000Y-80075000D01*
X214500000Y-73000000D02*
X214000000Y-73000000D01*
X224000000Y-70025000D02*
X223625000Y-70025000D01*
X206487500Y-84500000D02*
X206042590Y-84500000D01*
X207775000Y-69250000D02*
X207775000Y-68775000D01*
X204807410Y-84500000D02*
X206487500Y-84500000D01*
X223625000Y-70025000D02*
X223600000Y-70000000D01*
X224775000Y-48680000D02*
X224620000Y-48680000D01*
X206087500Y-77912500D02*
X206087500Y-79100000D01*
X220370000Y-66630000D02*
X220500000Y-66500000D01*
X226850000Y-57472500D02*
X226850000Y-55650000D01*
X206087500Y-80600000D02*
X205337500Y-79850000D01*
X226800000Y-55000000D02*
X226800000Y-55600000D01*
X213840000Y-49305000D02*
X215510000Y-49305000D01*
X217370000Y-66430000D02*
X217400000Y-66400000D01*
X215275000Y-80075000D02*
X215225000Y-80025000D01*
X215580000Y-61520000D02*
X215630000Y-61570000D01*
X205337500Y-79377500D02*
X205320000Y-79360000D01*
X214370000Y-66620000D02*
X214250000Y-66500000D01*
X231650000Y-67350000D02*
X231600000Y-67400000D01*
X207275000Y-79100000D02*
X206087500Y-79100000D01*
X211360000Y-74800000D02*
X212190000Y-73970000D01*
X220152500Y-58687500D02*
X220170000Y-58670000D01*
X205175000Y-85200000D02*
X205175000Y-84867590D01*
X205675000Y-84132410D02*
X206042590Y-84500000D01*
X222870000Y-56410000D02*
X222870000Y-56010000D01*
X217050000Y-49595000D02*
X216135000Y-48680000D01*
X231650000Y-66500000D02*
X231650000Y-67350000D01*
X204412500Y-51905000D02*
X204412500Y-52547500D01*
X206087500Y-79100000D02*
X205337500Y-79850000D01*
X208500000Y-87125000D02*
X207692947Y-87124999D01*
X207450000Y-59450000D02*
X207450000Y-57840000D01*
X222870000Y-55635000D02*
X222845000Y-55610000D01*
X217205000Y-49595000D02*
X217050000Y-49595000D01*
X222870000Y-56410000D02*
X222870000Y-55635000D01*
X223425000Y-73025000D02*
X223400000Y-73000000D01*
X233725000Y-80830000D02*
X233805000Y-80750000D01*
X222415000Y-63845000D02*
X222390000Y-63870000D01*
X206900000Y-72500000D02*
X206800000Y-72400000D01*
X204412500Y-52547500D02*
X204360000Y-52600000D01*
X207450000Y-57840000D02*
X207410000Y-57800000D01*
X214370000Y-66925000D02*
X214370000Y-66620000D01*
X213550000Y-88625000D02*
X213500000Y-88575000D01*
X211370000Y-66925000D02*
X211370000Y-66620000D01*
X206042590Y-84500000D02*
X205807410Y-84500000D01*
X219415000Y-63845000D02*
X219390000Y-63870000D01*
X228000000Y-62200000D02*
X227200000Y-62200000D01*
X210775000Y-69250000D02*
X210775000Y-68595000D01*
X224000000Y-73025000D02*
X223425000Y-73025000D01*
X228200000Y-66500000D02*
X228200000Y-67400000D01*
X202875000Y-87400000D02*
X202300000Y-87400000D01*
X208100000Y-72500000D02*
X206900000Y-72500000D01*
X210775000Y-68595000D02*
X210790000Y-68580000D01*
X208375000Y-66925000D02*
X208375000Y-66425000D01*
X224620000Y-48680000D02*
X223705000Y-49595000D01*
X233420000Y-45275000D02*
X234400000Y-45275000D01*
X206175000Y-85200000D02*
X206175000Y-84867590D01*
X211370000Y-66620000D02*
X211250000Y-66500000D01*
X207775000Y-68775000D02*
X207750000Y-68750000D01*
X217975000Y-84075000D02*
X217975000Y-83425000D01*
X234400000Y-45275000D02*
X234410000Y-45265000D01*
X204587500Y-81787500D02*
X204587500Y-80600000D01*
X233725000Y-82450000D02*
X233725000Y-80830000D01*
X216140000Y-63370000D02*
X216140000Y-63870000D01*
X204362500Y-84500000D02*
X204037500Y-84500000D01*
X205337500Y-79850000D02*
X205337500Y-79377500D01*
X215510000Y-49305000D02*
X216135000Y-48680000D01*
X226850000Y-55650000D02*
X226800000Y-55600000D01*
X216135000Y-49965000D02*
X216125000Y-49975000D01*
X214325000Y-88625000D02*
X213550000Y-88625000D01*
X214692500Y-56387500D02*
X214630000Y-56450000D01*
X217975000Y-83425000D02*
X217925000Y-83375000D01*
X228500000Y-55000000D02*
X226800000Y-55000000D01*
X204587500Y-80600000D02*
X205337500Y-79850000D01*
X216135000Y-48680000D02*
X216135000Y-49965000D01*
X215000000Y-88625000D02*
X214325000Y-88625000D01*
X224000000Y-66275000D02*
X223475000Y-66275000D01*
%TO.N,/XX_XTB*%
X211000000Y-72500000D02*
X209451000Y-74049000D01*
X207275000Y-79600000D02*
X207701886Y-79600000D01*
X209451000Y-76830000D02*
X209451000Y-74049000D01*
X207701886Y-79600000D02*
X208251000Y-79050886D01*
X208251000Y-79050886D02*
X208251000Y-78325000D01*
%TO.N,Net-(C3-Pad1)*%
X216462500Y-87125000D02*
X215050000Y-87125000D01*
X215050000Y-87125000D02*
X215000000Y-87075000D01*
X213525000Y-87075000D02*
X213500000Y-87100000D01*
X215000000Y-87075000D02*
X213525000Y-87075000D01*
%TO.N,+1V1*%
X209200000Y-57370000D02*
X209540000Y-57710000D01*
X217865000Y-63326000D02*
X216710000Y-62171000D01*
X220865000Y-62435000D02*
X220865000Y-63370000D01*
X216710000Y-62171000D02*
X220601000Y-62171000D01*
X207701471Y-57050000D02*
X208880000Y-57050000D01*
X208050000Y-62887500D02*
X208050000Y-62240000D01*
X214590000Y-63361000D02*
X213400000Y-62171000D01*
X207250000Y-56012500D02*
X207250000Y-56598529D01*
X213400000Y-62171000D02*
X216710000Y-62171000D01*
X209540000Y-61690000D02*
X209530000Y-61700000D01*
X214590000Y-63370000D02*
X214590000Y-63361000D01*
X220601000Y-62171000D02*
X220865000Y-62435000D01*
X209250000Y-57320000D02*
X209200000Y-57370000D01*
X214590000Y-63370000D02*
X214334000Y-63626000D01*
X209540000Y-61580000D02*
X209540000Y-61690000D01*
X208880000Y-57050000D02*
X209200000Y-57370000D01*
X212441000Y-62171000D02*
X213400000Y-62171000D01*
X208050000Y-62240000D02*
X208590000Y-61700000D01*
X217865000Y-63370000D02*
X217865000Y-63326000D01*
X209250000Y-56012500D02*
X209250000Y-57320000D01*
X208590000Y-61700000D02*
X209530000Y-61700000D01*
X209540000Y-57710000D02*
X209540000Y-61580000D01*
X207250000Y-56598529D02*
X207701471Y-57050000D01*
X212440000Y-62170000D02*
X212441000Y-62171000D01*
%TO.N,/XX_IN*%
X206850000Y-62000000D02*
X206860000Y-61990000D01*
X214030000Y-60970000D02*
X216000000Y-59000000D01*
X216000000Y-58687500D02*
X215656815Y-58687500D01*
X214030000Y-60970000D02*
X212700000Y-60970000D01*
X216000000Y-59000000D02*
X216000000Y-58687500D01*
X213970000Y-60970000D02*
X214030000Y-60970000D01*
X206850000Y-62887500D02*
X206850000Y-62000000D01*
%TO.N,Net-(J2-D+-PadA6)*%
X220705000Y-49595000D02*
X220705000Y-48620000D01*
X220705000Y-48620000D02*
X220460000Y-48375000D01*
X218600000Y-52925000D02*
X217875000Y-52925000D01*
X219705000Y-49595000D02*
X219705000Y-51820000D01*
X219705000Y-51820000D02*
X219475000Y-52050000D01*
X219475000Y-52050000D02*
X218600000Y-52925000D01*
X220460000Y-48375000D02*
X219950000Y-48375000D01*
X219950000Y-48375000D02*
X219705000Y-48620000D01*
X219705000Y-48620000D02*
X219705000Y-49595000D01*
%TO.N,/USB_D+*%
X212884685Y-54361000D02*
X209029603Y-54361000D01*
X213808186Y-53437500D02*
X212884685Y-54361000D01*
X215512499Y-52925000D02*
X214999999Y-53437500D01*
X208450000Y-54940603D02*
X209029603Y-54361000D01*
X214999999Y-53437500D02*
X213808186Y-53437500D01*
X216225000Y-52925000D02*
X215512499Y-52925000D01*
X208450000Y-56012500D02*
X208450000Y-54940603D01*
%TO.N,Net-(R2-Pad1)*%
X228870000Y-46425000D02*
X228350000Y-46425000D01*
X230020000Y-45275000D02*
X228870000Y-46425000D01*
%TO.N,/QSPI_SS*%
X204355000Y-48037500D02*
X204412500Y-48095000D01*
X204465000Y-46440000D02*
X204355000Y-46330000D01*
X226700000Y-46425000D02*
X225290000Y-46425000D01*
X225275000Y-46440000D02*
X204465000Y-46440000D01*
X225290000Y-46425000D02*
X225275000Y-46440000D01*
X204355000Y-46330000D02*
X204355000Y-48037500D01*
X225500000Y-46440000D02*
X225275000Y-46440000D01*
%TO.N,VBUS1*%
X222905000Y-48670000D02*
X222905000Y-49595000D01*
X218725000Y-47950000D02*
X222185000Y-47950000D01*
X218005000Y-49595000D02*
X218005000Y-48670000D01*
X222185000Y-47950000D02*
X222905000Y-48670000D01*
X218005000Y-48670000D02*
X218725000Y-47950000D01*
%TO.N,Net-(J2-CC1)*%
X226800000Y-53350000D02*
X224025000Y-53350000D01*
X221705000Y-51030000D02*
X224025000Y-53350000D01*
X221705000Y-49595000D02*
X221705000Y-51030000D01*
%TO.N,Net-(J2-D--PadA7)*%
X221205000Y-51820000D02*
X220250000Y-52775000D01*
X220205000Y-52820000D02*
X218625000Y-54400000D01*
X221205000Y-49595000D02*
X221205000Y-51820000D01*
X220205000Y-49595000D02*
X220205000Y-52820000D01*
X220250000Y-52775000D02*
X220205000Y-52820000D01*
X218625000Y-54400000D02*
X217875000Y-54400000D01*
%TO.N,Net-(J2-CC2)*%
X218675000Y-49625000D02*
X218705000Y-49595000D01*
X228500000Y-53350000D02*
X227799000Y-54051000D01*
X218675000Y-51050000D02*
X218675000Y-49625000D01*
X227799000Y-54051000D02*
X221676000Y-54051000D01*
%TO.N,+3V3*%
X223225000Y-74575000D02*
X223200000Y-74600000D01*
X229750000Y-65450000D02*
X229800000Y-65400000D01*
X215820000Y-66925000D02*
X215820000Y-66420000D01*
X224500000Y-84750000D02*
X224525000Y-84725000D01*
X213840000Y-47755000D02*
X214715000Y-47755000D01*
X210275000Y-86475000D02*
X210275000Y-86150000D01*
X205260000Y-61120000D02*
X204590000Y-60450000D01*
X207650000Y-56012500D02*
X207825000Y-56012500D01*
X231185000Y-82450000D02*
X231185000Y-80770000D01*
X218425000Y-79175000D02*
X218400000Y-79200000D01*
X224000000Y-71575000D02*
X223425000Y-71575000D01*
X207650000Y-61930057D02*
X207070943Y-61351000D01*
X231185000Y-82450000D02*
X231005000Y-82630000D01*
X207825000Y-56012500D02*
X208050000Y-56012500D01*
X211587500Y-48095000D02*
X213500000Y-48095000D01*
X209820000Y-66925000D02*
X209820000Y-66420000D01*
X212820000Y-66925000D02*
X212820000Y-66420000D01*
X207825000Y-56012500D02*
X207825000Y-56325000D01*
X209820000Y-66420000D02*
X209800000Y-66400000D01*
X205260000Y-61120000D02*
X205320000Y-61120000D01*
X207825000Y-56325000D02*
X207850000Y-56350000D01*
X223425000Y-67825000D02*
X223400000Y-67800000D01*
X224500000Y-85300000D02*
X224500000Y-84750000D01*
X231005000Y-82630000D02*
X231005000Y-82950000D01*
X212820000Y-66420000D02*
X212800000Y-66400000D01*
X215800000Y-78525000D02*
X215175000Y-78525000D01*
X218425000Y-78500000D02*
X218425000Y-79175000D01*
X209650000Y-56012500D02*
X210050000Y-56012500D01*
X210887500Y-56850000D02*
X211750000Y-56850000D01*
X224000000Y-74575000D02*
X223225000Y-74575000D01*
X230275000Y-60675000D02*
X230200000Y-60600000D01*
X215820000Y-66420000D02*
X215800000Y-66400000D01*
X230275000Y-61250000D02*
X230275000Y-60675000D01*
X215175000Y-78525000D02*
X215150000Y-78550000D01*
X213500000Y-48095000D02*
X213840000Y-47755000D01*
X205491000Y-61351000D02*
X205260000Y-61120000D01*
X218820000Y-66420000D02*
X218800000Y-66400000D01*
X207275000Y-81100000D02*
X208650000Y-81100000D01*
X223840000Y-63370000D02*
X223840000Y-64070000D01*
X229750000Y-66500000D02*
X229750000Y-65450000D01*
X203994485Y-56005515D02*
X203994485Y-56831985D01*
X214715000Y-47755000D02*
X214730000Y-47770000D01*
X206825000Y-66425000D02*
X206800000Y-66400000D01*
X230395000Y-85250000D02*
X231050000Y-85250000D01*
X207070943Y-61351000D02*
X205491000Y-61351000D01*
X207650000Y-62887500D02*
X207650000Y-61930057D01*
X210887500Y-60450000D02*
X210350000Y-60450000D01*
X210050000Y-60147774D02*
X210353226Y-60451000D01*
X210050000Y-56012500D02*
X210887500Y-56850000D01*
X223425000Y-71575000D02*
X223400000Y-71600000D01*
X224000000Y-67825000D02*
X223425000Y-67825000D01*
X204587500Y-77912500D02*
X204850000Y-77912500D01*
X204850000Y-77912500D02*
X205087500Y-77912500D01*
X231185000Y-80770000D02*
X231205000Y-80750000D01*
X203994485Y-56831985D02*
X204012500Y-56850000D01*
X210050000Y-56012500D02*
X210050000Y-60147774D01*
X218820000Y-66925000D02*
X218820000Y-66420000D01*
X206825000Y-66925000D02*
X206825000Y-66425000D01*
X204590000Y-60450000D02*
X204012500Y-60450000D01*
%TO.N,/XX_SDA*%
X200170000Y-57250000D02*
X204012500Y-57250000D01*
X226160000Y-85095000D02*
X226155000Y-85095000D01*
X198369000Y-59051000D02*
X200170000Y-57250000D01*
X223475000Y-91575000D02*
X204022790Y-91575000D01*
X226150000Y-85300000D02*
X226150000Y-88900000D01*
X204022790Y-91575000D02*
X198369000Y-85921210D01*
X226150000Y-88900000D02*
X225350000Y-89700000D01*
X198369000Y-85921210D02*
X198369000Y-59051000D01*
X226105000Y-85040000D02*
X226160000Y-85095000D01*
X226105000Y-82450000D02*
X226105000Y-85040000D01*
%TO.N,Net-(AE111-A)*%
X219775000Y-87150000D02*
X218062500Y-87150000D01*
X218062500Y-87150000D02*
X218037500Y-87125000D01*
X217975000Y-85625000D02*
X217975000Y-87062500D01*
X217975000Y-87062500D02*
X218037500Y-87125000D01*
%TO.N,/QSPI_SD1*%
X202629000Y-50336001D02*
X202629000Y-52630000D01*
X205240000Y-55241000D02*
X202629000Y-52630000D01*
X204412500Y-49365000D02*
X203600001Y-49365000D01*
X205250000Y-56012500D02*
X205250000Y-55241000D01*
X203600001Y-49365000D02*
X202629000Y-50336001D01*
%TO.N,/QSPI_SD2*%
X205650000Y-55070000D02*
X203030000Y-52450000D01*
X203915000Y-50635000D02*
X203030000Y-51520000D01*
X205650000Y-56012500D02*
X205650000Y-55070000D01*
X204412500Y-50635000D02*
X203915000Y-50635000D01*
X203030000Y-51520000D02*
X203030000Y-52450000D01*
%TO.N,/QSPI_SD0*%
X211587500Y-51905000D02*
X210333500Y-53159000D01*
X206050000Y-54762900D02*
X206050000Y-56012500D01*
X210333500Y-53159000D02*
X207653900Y-53159000D01*
X207653900Y-53159000D02*
X206050000Y-54762900D01*
%TO.N,/QSPI_SCLK*%
X212540000Y-53560000D02*
X213180000Y-52920000D01*
X212305000Y-50635000D02*
X211587500Y-50635000D01*
X213180000Y-52920000D02*
X213180000Y-51510000D01*
X206450000Y-54950000D02*
X207820000Y-53580000D01*
X207820000Y-53580000D02*
X207820000Y-53560000D01*
X213180000Y-51510000D02*
X212305000Y-50635000D01*
X207820000Y-53560000D02*
X212540000Y-53560000D01*
X206450000Y-56012500D02*
X206450000Y-54950000D01*
%TO.N,/QSPI_SD3*%
X212399999Y-49365000D02*
X211587500Y-49365000D01*
X212719000Y-53961000D02*
X213581000Y-53099000D01*
X206850000Y-55211000D02*
X208100000Y-53961000D01*
X206850000Y-56012500D02*
X206850000Y-55211000D01*
X213581000Y-53099000D02*
X213581000Y-50546001D01*
X213581000Y-50546001D02*
X212399999Y-49365000D01*
X208100000Y-53961000D02*
X212719000Y-53961000D01*
%TO.N,VBUS2*%
X227250000Y-63150000D02*
X227200000Y-63200000D01*
X228354468Y-61250000D02*
X228963500Y-61859032D01*
X228000000Y-63150000D02*
X227250000Y-63150000D01*
X228963500Y-61859032D02*
X228963500Y-62848999D01*
X228000000Y-61250000D02*
X228354468Y-61250000D01*
X226300000Y-66500000D02*
X226300000Y-65500000D01*
X226400000Y-65400000D02*
X226300000Y-65500000D01*
X228662499Y-63150000D02*
X228000000Y-63150000D01*
X228963500Y-62848999D02*
X228662499Y-63150000D01*
%TO.N,/XX_SCL*%
X228645000Y-85150000D02*
X228745000Y-85250000D01*
X228745000Y-87670000D02*
X225475000Y-90940000D01*
X228645000Y-82450000D02*
X228645000Y-85150000D01*
X198770000Y-59230000D02*
X200350000Y-57650000D01*
X225475000Y-90940000D02*
X203954890Y-90940000D01*
X198770000Y-85755110D02*
X198770000Y-59230000D01*
X200350000Y-57650000D02*
X204012500Y-57650000D01*
X228670000Y-82475000D02*
X228645000Y-82450000D01*
X203954890Y-90940000D02*
X198770000Y-85755110D01*
X228745000Y-85250000D02*
X228745000Y-87670000D01*
%TO.N,Net-(U1-GPIO25)*%
X210887500Y-58850000D02*
X211556797Y-58850000D01*
X223595000Y-59090000D02*
X222495000Y-60190000D01*
X211556797Y-58850000D02*
X212902971Y-60196174D01*
%TO.N,Net-(LED1-A)*%
X226807500Y-59090000D02*
X226850000Y-59047500D01*
X225245000Y-59090000D02*
X226807500Y-59090000D01*
%TO.N,/XX_VR_PA*%
X209225000Y-69250000D02*
X209225000Y-69485000D01*
X203175000Y-74500000D02*
X203175000Y-72555000D01*
X204830000Y-70900000D02*
X203175000Y-72555000D01*
X209225000Y-69485000D02*
X207810000Y-70900000D01*
X203175000Y-72555000D02*
X203175000Y-70155000D01*
X203175000Y-74500000D02*
X203175000Y-77526470D01*
X206852500Y-81787500D02*
X206860000Y-81780000D01*
X204080000Y-69250000D02*
X206225000Y-69250000D01*
X203175000Y-77526470D02*
X203194265Y-77545735D01*
X206587500Y-81787500D02*
X206852500Y-81787500D01*
X207810000Y-70900000D02*
X204830000Y-70900000D01*
X203175000Y-70155000D02*
X204080000Y-69250000D01*
%TO.N,/XX_DIO2*%
X204669994Y-76590006D02*
X204629994Y-76590006D01*
X204088500Y-77912500D02*
X204087500Y-77912500D01*
X204087500Y-77132500D02*
X204087500Y-77912500D01*
X209650000Y-83375000D02*
X208725000Y-83375000D01*
X204629994Y-76590006D02*
X204087500Y-77132500D01*
X205030000Y-76230000D02*
X204669994Y-76590006D01*
X204162500Y-77838500D02*
X204088500Y-77912500D01*
X210775000Y-82250000D02*
X209650000Y-83375000D01*
%TO.N,Net-(U4-CTRL)*%
X212750000Y-87775000D02*
X211950000Y-88575000D01*
X211648696Y-85025000D02*
X212750000Y-86126304D01*
X211150000Y-87775000D02*
X211950000Y-88575000D01*
X212750000Y-86126304D02*
X212750000Y-87775000D01*
X208725000Y-85025000D02*
X211648696Y-85025000D01*
X210275000Y-87775000D02*
X211150000Y-87775000D01*
%TO.N,/USB_D-*%
X215512499Y-54400000D02*
X214999999Y-53887500D01*
X216225000Y-54400000D02*
X215512499Y-54400000D01*
X213994554Y-53887500D02*
X213071073Y-54810980D01*
X214999999Y-53887500D02*
X213994554Y-53887500D01*
X208850000Y-55176999D02*
X209216019Y-54810980D01*
X208850000Y-56012500D02*
X208850000Y-55176999D01*
X213071073Y-54810980D02*
X209216019Y-54810980D01*
%TO.N,Net-(U1-~{QSPI_SS})*%
X202200000Y-53362500D02*
X204850000Y-56012500D01*
X202705000Y-46330000D02*
X202200000Y-46835000D01*
X202200000Y-46835000D02*
X202200000Y-53362500D01*
%TO.N,Net-(U2-VREG)*%
X206910000Y-77914272D02*
X206825464Y-77914272D01*
X206825464Y-77914272D02*
X206823692Y-77912500D01*
X202887500Y-84175000D02*
X202887500Y-85537500D01*
X206823692Y-77912500D02*
X206587500Y-77912500D01*
X202887500Y-85837500D02*
X202875000Y-85850000D01*
X202887500Y-84175000D02*
X202887500Y-85837500D01*
X202887500Y-85537500D02*
X204200000Y-86850000D01*
%TO.N,Net-(U2-DCC_SW)*%
X205587500Y-77912500D02*
X205587500Y-77108910D01*
X205601000Y-77899000D02*
X205587500Y-77912500D01*
X200762500Y-80805230D02*
X200762500Y-84175000D01*
X205587500Y-77108910D02*
X205411675Y-76933085D01*
X200716135Y-80758865D02*
X200762500Y-80805230D01*
%TO.N,/XX_DIO1*%
X202380000Y-61947226D02*
X203478226Y-60849000D01*
X202380000Y-77580000D02*
X202380000Y-61947226D01*
X204012500Y-60850000D02*
X203479226Y-60850000D01*
X203479226Y-60850000D02*
X203478226Y-60849000D01*
X203400000Y-78600000D02*
X202380000Y-77580000D01*
%TO.N,/XX_BUSY*%
X201979000Y-78107298D02*
X202971702Y-79100000D01*
X201979000Y-60511000D02*
X201979000Y-78107298D01*
X202840000Y-59650000D02*
X201979000Y-60511000D01*
X202971702Y-79100000D02*
X203400000Y-79100000D01*
X204012500Y-59650000D02*
X202840000Y-59650000D01*
%TO.N,/XX_NRST*%
X202904602Y-79600000D02*
X203400000Y-79600000D01*
X203095229Y-60250000D02*
X203095229Y-60134771D01*
X203180000Y-60050000D02*
X204012500Y-60050000D01*
X203095229Y-60134771D02*
X203180000Y-60050000D01*
X201379000Y-63650000D02*
X201379000Y-78074398D01*
X201379000Y-78074398D02*
X202904602Y-79600000D01*
%TO.N,/SPI_MISO*%
X202837502Y-80100000D02*
X203400000Y-80100000D01*
X204012500Y-58850000D02*
X201200000Y-58850000D01*
X200778000Y-78040498D02*
X202837502Y-80100000D01*
X200778000Y-59272000D02*
X200778000Y-78040498D01*
X201200000Y-58850000D02*
X200778000Y-59272000D01*
%TO.N,/SPI_MOSI*%
X200937000Y-58450000D02*
X200377000Y-59010000D01*
X202540000Y-80600000D02*
X203400000Y-80600000D01*
X200377000Y-78437000D02*
X202540000Y-80600000D01*
X204012500Y-58450000D02*
X200937000Y-58450000D01*
X200377000Y-59010000D02*
X200377000Y-60790000D01*
X200377000Y-60528800D02*
X200377000Y-78437000D01*
%TO.N,/SPI_SCK*%
X199976000Y-78603100D02*
X202472900Y-81100000D01*
X202472900Y-81100000D02*
X203400000Y-81100000D01*
X199976000Y-58604000D02*
X199976000Y-78603100D01*
X204012500Y-58050000D02*
X200530000Y-58050000D01*
X200530000Y-58050000D02*
X199976000Y-58604000D01*
%TO.N,/XX_NSS*%
X204012500Y-59250000D02*
X202940000Y-59250000D01*
X199376000Y-62180000D02*
X199376000Y-78570200D01*
X201900000Y-59250000D02*
X201480000Y-59670000D01*
X199376000Y-78570200D02*
X202593300Y-81787500D01*
X202940000Y-59250000D02*
X201900000Y-59250000D01*
X202593300Y-81787500D02*
X204087500Y-81787500D01*
%TO.N,/XX_RFI_P*%
X204675000Y-83401904D02*
X204675000Y-83800000D01*
X205087500Y-82989404D02*
X204675000Y-83401904D01*
X205087500Y-81787500D02*
X205087500Y-82989404D01*
%TO.N,/XX_RFI_N*%
X205175000Y-83467590D02*
X205175000Y-83800000D01*
X205587500Y-81787500D02*
X205587500Y-83055090D01*
X205587500Y-83055090D02*
X205175000Y-83467590D01*
%TO.N,/XX_RFO*%
X207440000Y-82930000D02*
X207357500Y-83012500D01*
X206205008Y-76830000D02*
X206240000Y-76795008D01*
X206162500Y-81862500D02*
X206087500Y-81787500D01*
X206240000Y-76795008D02*
X206240000Y-75990000D01*
X206240000Y-75990000D02*
X204750000Y-74500000D01*
X207045000Y-82930000D02*
X206175000Y-83800000D01*
X206162500Y-83150000D02*
X206175000Y-83162500D01*
X207440000Y-82930000D02*
X207045000Y-82930000D01*
X206162500Y-83150000D02*
X206162500Y-81862500D01*
X206175000Y-83162500D02*
X206175000Y-83800000D01*
%TO.N,/XX_RUN*%
X217900000Y-73000000D02*
X217190000Y-73000000D01*
X212910000Y-68720000D02*
X212910000Y-68470000D01*
X218450000Y-73000000D02*
X217900000Y-73000000D01*
X209440000Y-63900000D02*
X209370000Y-63900000D01*
X217190000Y-73000000D02*
X212910000Y-68720000D01*
X209250000Y-63780000D02*
X209250000Y-62887500D01*
X220075000Y-78500000D02*
X220075000Y-74625000D01*
X220075000Y-74625000D02*
X218450000Y-73000000D01*
X209370000Y-63900000D02*
X209250000Y-63780000D01*
%TO.N,/XX_OUT*%
X207250000Y-63500000D02*
X208250000Y-64500000D01*
X208250000Y-64500000D02*
X211225000Y-64500000D01*
X207250000Y-62887500D02*
X207250000Y-63500000D01*
%TO.N,Net-(U4-RFIN)*%
X210275000Y-87125000D02*
X211925000Y-87125000D01*
X211925000Y-87125000D02*
X211950000Y-87100000D01*
%TO.N,/XX_SW_RFO*%
X205675000Y-85532410D02*
X206617590Y-86475000D01*
X205675000Y-85200000D02*
X205675000Y-85532410D01*
X206617590Y-86475000D02*
X208500000Y-86475000D01*
%TO.N,/XX_SW_RFI*%
X206917590Y-87775000D02*
X208500000Y-87775000D01*
X204675000Y-85200000D02*
X204675000Y-85532410D01*
X204675000Y-85532410D02*
X206917590Y-87775000D01*
%TO.N,Net-(C11-Pad1)*%
X221320000Y-56410000D02*
X218922500Y-56410000D01*
X217550000Y-57737500D02*
X217550000Y-61200000D01*
X212900000Y-63480000D02*
X212900000Y-64475000D01*
X217550000Y-61200000D02*
X217580000Y-61230000D01*
X217240000Y-61570000D02*
X217240000Y-61571000D01*
X212900000Y-64475000D02*
X212875000Y-64500000D01*
X218900000Y-56387500D02*
X217550000Y-57737500D01*
X217580000Y-61230000D02*
X217240000Y-61570000D01*
X218922500Y-56410000D02*
X218900000Y-56387500D01*
%TD*%
M02*
