%TF.GenerationSoftware,KiCad,Pcbnew,10.0.1*%
%TF.CreationDate,2026-04-22T14:26:45+05:00*%
%TF.ProjectId,Nexus Cypher,4e657875-7320-4437-9970-6865722e6b69,rev?*%
%TF.SameCoordinates,Original*%
%TF.FileFunction,Legend,Top*%
%TF.FilePolarity,Positive*%
%FSLAX46Y46*%
G04 Gerber Fmt 4.6, Leading zero omitted, Abs format (unit mm)*
G04 Created by KiCad (PCBNEW 10.0.1) date 2026-04-22 14:26:45*
%MOMM*%
%LPD*%
G01*
G04 APERTURE LIST*
%ADD10C,0.150000*%
%ADD11C,0.120000*%
G04 APERTURE END LIST*
D10*
X209073809Y-70628628D02*
X209073809Y-71104819D01*
X208740476Y-70104819D02*
X209073809Y-70628628D01*
X209073809Y-70628628D02*
X209407142Y-70104819D01*
X210264285Y-71104819D02*
X209692857Y-71104819D01*
X209978571Y-71104819D02*
X209978571Y-70104819D01*
X209978571Y-70104819D02*
X209883333Y-70247676D01*
X209883333Y-70247676D02*
X209788095Y-70342914D01*
X209788095Y-70342914D02*
X209692857Y-70390533D01*
X214747142Y-62229580D02*
X214699523Y-62277200D01*
X214699523Y-62277200D02*
X214556666Y-62324819D01*
X214556666Y-62324819D02*
X214461428Y-62324819D01*
X214461428Y-62324819D02*
X214318571Y-62277200D01*
X214318571Y-62277200D02*
X214223333Y-62181961D01*
X214223333Y-62181961D02*
X214175714Y-62086723D01*
X214175714Y-62086723D02*
X214128095Y-61896247D01*
X214128095Y-61896247D02*
X214128095Y-61753390D01*
X214128095Y-61753390D02*
X214175714Y-61562914D01*
X214175714Y-61562914D02*
X214223333Y-61467676D01*
X214223333Y-61467676D02*
X214318571Y-61372438D01*
X214318571Y-61372438D02*
X214461428Y-61324819D01*
X214461428Y-61324819D02*
X214556666Y-61324819D01*
X214556666Y-61324819D02*
X214699523Y-61372438D01*
X214699523Y-61372438D02*
X214747142Y-61420057D01*
X215699523Y-62324819D02*
X215128095Y-62324819D01*
X215413809Y-62324819D02*
X215413809Y-61324819D01*
X215413809Y-61324819D02*
X215318571Y-61467676D01*
X215318571Y-61467676D02*
X215223333Y-61562914D01*
X215223333Y-61562914D02*
X215128095Y-61610533D01*
X216556666Y-61658152D02*
X216556666Y-62324819D01*
X216318571Y-61277200D02*
X216080476Y-61991485D01*
X216080476Y-61991485D02*
X216699523Y-61991485D01*
X214162142Y-62759580D02*
X214114523Y-62807200D01*
X214114523Y-62807200D02*
X213971666Y-62854819D01*
X213971666Y-62854819D02*
X213876428Y-62854819D01*
X213876428Y-62854819D02*
X213733571Y-62807200D01*
X213733571Y-62807200D02*
X213638333Y-62711961D01*
X213638333Y-62711961D02*
X213590714Y-62616723D01*
X213590714Y-62616723D02*
X213543095Y-62426247D01*
X213543095Y-62426247D02*
X213543095Y-62283390D01*
X213543095Y-62283390D02*
X213590714Y-62092914D01*
X213590714Y-62092914D02*
X213638333Y-61997676D01*
X213638333Y-61997676D02*
X213733571Y-61902438D01*
X213733571Y-61902438D02*
X213876428Y-61854819D01*
X213876428Y-61854819D02*
X213971666Y-61854819D01*
X213971666Y-61854819D02*
X214114523Y-61902438D01*
X214114523Y-61902438D02*
X214162142Y-61950057D01*
X215114523Y-62854819D02*
X214543095Y-62854819D01*
X214828809Y-62854819D02*
X214828809Y-61854819D01*
X214828809Y-61854819D02*
X214733571Y-61997676D01*
X214733571Y-61997676D02*
X214638333Y-62092914D01*
X214638333Y-62092914D02*
X214543095Y-62140533D01*
X215495476Y-61950057D02*
X215543095Y-61902438D01*
X215543095Y-61902438D02*
X215638333Y-61854819D01*
X215638333Y-61854819D02*
X215876428Y-61854819D01*
X215876428Y-61854819D02*
X215971666Y-61902438D01*
X215971666Y-61902438D02*
X216019285Y-61950057D01*
X216019285Y-61950057D02*
X216066904Y-62045295D01*
X216066904Y-62045295D02*
X216066904Y-62140533D01*
X216066904Y-62140533D02*
X216019285Y-62283390D01*
X216019285Y-62283390D02*
X215447857Y-62854819D01*
X215447857Y-62854819D02*
X216066904Y-62854819D01*
X215379819Y-53991666D02*
X214903628Y-54324999D01*
X215379819Y-54563094D02*
X214379819Y-54563094D01*
X214379819Y-54563094D02*
X214379819Y-54182142D01*
X214379819Y-54182142D02*
X214427438Y-54086904D01*
X214427438Y-54086904D02*
X214475057Y-54039285D01*
X214475057Y-54039285D02*
X214570295Y-53991666D01*
X214570295Y-53991666D02*
X214713152Y-53991666D01*
X214713152Y-53991666D02*
X214808390Y-54039285D01*
X214808390Y-54039285D02*
X214856009Y-54086904D01*
X214856009Y-54086904D02*
X214903628Y-54182142D01*
X214903628Y-54182142D02*
X214903628Y-54563094D01*
X214808390Y-53420237D02*
X214760771Y-53515475D01*
X214760771Y-53515475D02*
X214713152Y-53563094D01*
X214713152Y-53563094D02*
X214617914Y-53610713D01*
X214617914Y-53610713D02*
X214570295Y-53610713D01*
X214570295Y-53610713D02*
X214475057Y-53563094D01*
X214475057Y-53563094D02*
X214427438Y-53515475D01*
X214427438Y-53515475D02*
X214379819Y-53420237D01*
X214379819Y-53420237D02*
X214379819Y-53229761D01*
X214379819Y-53229761D02*
X214427438Y-53134523D01*
X214427438Y-53134523D02*
X214475057Y-53086904D01*
X214475057Y-53086904D02*
X214570295Y-53039285D01*
X214570295Y-53039285D02*
X214617914Y-53039285D01*
X214617914Y-53039285D02*
X214713152Y-53086904D01*
X214713152Y-53086904D02*
X214760771Y-53134523D01*
X214760771Y-53134523D02*
X214808390Y-53229761D01*
X214808390Y-53229761D02*
X214808390Y-53420237D01*
X214808390Y-53420237D02*
X214856009Y-53515475D01*
X214856009Y-53515475D02*
X214903628Y-53563094D01*
X214903628Y-53563094D02*
X214998866Y-53610713D01*
X214998866Y-53610713D02*
X215189342Y-53610713D01*
X215189342Y-53610713D02*
X215284580Y-53563094D01*
X215284580Y-53563094D02*
X215332200Y-53515475D01*
X215332200Y-53515475D02*
X215379819Y-53420237D01*
X215379819Y-53420237D02*
X215379819Y-53229761D01*
X215379819Y-53229761D02*
X215332200Y-53134523D01*
X215332200Y-53134523D02*
X215284580Y-53086904D01*
X215284580Y-53086904D02*
X215189342Y-53039285D01*
X215189342Y-53039285D02*
X214998866Y-53039285D01*
X214998866Y-53039285D02*
X214903628Y-53086904D01*
X214903628Y-53086904D02*
X214856009Y-53134523D01*
X214856009Y-53134523D02*
X214808390Y-53229761D01*
X230400238Y-47989819D02*
X230400238Y-46989819D01*
X230400238Y-47370771D02*
X230495476Y-47323152D01*
X230495476Y-47323152D02*
X230685952Y-47323152D01*
X230685952Y-47323152D02*
X230781190Y-47370771D01*
X230781190Y-47370771D02*
X230828809Y-47418390D01*
X230828809Y-47418390D02*
X230876428Y-47513628D01*
X230876428Y-47513628D02*
X230876428Y-47799342D01*
X230876428Y-47799342D02*
X230828809Y-47894580D01*
X230828809Y-47894580D02*
X230781190Y-47942200D01*
X230781190Y-47942200D02*
X230685952Y-47989819D01*
X230685952Y-47989819D02*
X230495476Y-47989819D01*
X230495476Y-47989819D02*
X230400238Y-47942200D01*
X231447857Y-47989819D02*
X231352619Y-47942200D01*
X231352619Y-47942200D02*
X231305000Y-47894580D01*
X231305000Y-47894580D02*
X231257381Y-47799342D01*
X231257381Y-47799342D02*
X231257381Y-47513628D01*
X231257381Y-47513628D02*
X231305000Y-47418390D01*
X231305000Y-47418390D02*
X231352619Y-47370771D01*
X231352619Y-47370771D02*
X231447857Y-47323152D01*
X231447857Y-47323152D02*
X231590714Y-47323152D01*
X231590714Y-47323152D02*
X231685952Y-47370771D01*
X231685952Y-47370771D02*
X231733571Y-47418390D01*
X231733571Y-47418390D02*
X231781190Y-47513628D01*
X231781190Y-47513628D02*
X231781190Y-47799342D01*
X231781190Y-47799342D02*
X231733571Y-47894580D01*
X231733571Y-47894580D02*
X231685952Y-47942200D01*
X231685952Y-47942200D02*
X231590714Y-47989819D01*
X231590714Y-47989819D02*
X231447857Y-47989819D01*
X232352619Y-47989819D02*
X232257381Y-47942200D01*
X232257381Y-47942200D02*
X232209762Y-47894580D01*
X232209762Y-47894580D02*
X232162143Y-47799342D01*
X232162143Y-47799342D02*
X232162143Y-47513628D01*
X232162143Y-47513628D02*
X232209762Y-47418390D01*
X232209762Y-47418390D02*
X232257381Y-47370771D01*
X232257381Y-47370771D02*
X232352619Y-47323152D01*
X232352619Y-47323152D02*
X232495476Y-47323152D01*
X232495476Y-47323152D02*
X232590714Y-47370771D01*
X232590714Y-47370771D02*
X232638333Y-47418390D01*
X232638333Y-47418390D02*
X232685952Y-47513628D01*
X232685952Y-47513628D02*
X232685952Y-47799342D01*
X232685952Y-47799342D02*
X232638333Y-47894580D01*
X232638333Y-47894580D02*
X232590714Y-47942200D01*
X232590714Y-47942200D02*
X232495476Y-47989819D01*
X232495476Y-47989819D02*
X232352619Y-47989819D01*
X232971667Y-47323152D02*
X233352619Y-47323152D01*
X233114524Y-46989819D02*
X233114524Y-47846961D01*
X233114524Y-47846961D02*
X233162143Y-47942200D01*
X233162143Y-47942200D02*
X233257381Y-47989819D01*
X233257381Y-47989819D02*
X233352619Y-47989819D01*
X226873333Y-48614819D02*
X226540000Y-48138628D01*
X226301905Y-48614819D02*
X226301905Y-47614819D01*
X226301905Y-47614819D02*
X226682857Y-47614819D01*
X226682857Y-47614819D02*
X226778095Y-47662438D01*
X226778095Y-47662438D02*
X226825714Y-47710057D01*
X226825714Y-47710057D02*
X226873333Y-47805295D01*
X226873333Y-47805295D02*
X226873333Y-47948152D01*
X226873333Y-47948152D02*
X226825714Y-48043390D01*
X226825714Y-48043390D02*
X226778095Y-48091009D01*
X226778095Y-48091009D02*
X226682857Y-48138628D01*
X226682857Y-48138628D02*
X226301905Y-48138628D01*
X227825714Y-48614819D02*
X227254286Y-48614819D01*
X227540000Y-48614819D02*
X227540000Y-47614819D01*
X227540000Y-47614819D02*
X227444762Y-47757676D01*
X227444762Y-47757676D02*
X227349524Y-47852914D01*
X227349524Y-47852914D02*
X227254286Y-47900533D01*
X228254286Y-48614819D02*
X228254286Y-47614819D01*
X228825714Y-48614819D02*
X228397143Y-48043390D01*
X228825714Y-47614819D02*
X228254286Y-48186247D01*
X213941666Y-45754819D02*
X213941666Y-46564342D01*
X213941666Y-46564342D02*
X213989285Y-46659580D01*
X213989285Y-46659580D02*
X214036904Y-46707200D01*
X214036904Y-46707200D02*
X214132142Y-46754819D01*
X214132142Y-46754819D02*
X214322618Y-46754819D01*
X214322618Y-46754819D02*
X214417856Y-46707200D01*
X214417856Y-46707200D02*
X214465475Y-46659580D01*
X214465475Y-46659580D02*
X214513094Y-46564342D01*
X214513094Y-46564342D02*
X214513094Y-45754819D01*
X214941666Y-46707200D02*
X215084523Y-46754819D01*
X215084523Y-46754819D02*
X215322618Y-46754819D01*
X215322618Y-46754819D02*
X215417856Y-46707200D01*
X215417856Y-46707200D02*
X215465475Y-46659580D01*
X215465475Y-46659580D02*
X215513094Y-46564342D01*
X215513094Y-46564342D02*
X215513094Y-46469104D01*
X215513094Y-46469104D02*
X215465475Y-46373866D01*
X215465475Y-46373866D02*
X215417856Y-46326247D01*
X215417856Y-46326247D02*
X215322618Y-46278628D01*
X215322618Y-46278628D02*
X215132142Y-46231009D01*
X215132142Y-46231009D02*
X215036904Y-46183390D01*
X215036904Y-46183390D02*
X214989285Y-46135771D01*
X214989285Y-46135771D02*
X214941666Y-46040533D01*
X214941666Y-46040533D02*
X214941666Y-45945295D01*
X214941666Y-45945295D02*
X214989285Y-45850057D01*
X214989285Y-45850057D02*
X215036904Y-45802438D01*
X215036904Y-45802438D02*
X215132142Y-45754819D01*
X215132142Y-45754819D02*
X215370237Y-45754819D01*
X215370237Y-45754819D02*
X215513094Y-45802438D01*
X216274999Y-46231009D02*
X216417856Y-46278628D01*
X216417856Y-46278628D02*
X216465475Y-46326247D01*
X216465475Y-46326247D02*
X216513094Y-46421485D01*
X216513094Y-46421485D02*
X216513094Y-46564342D01*
X216513094Y-46564342D02*
X216465475Y-46659580D01*
X216465475Y-46659580D02*
X216417856Y-46707200D01*
X216417856Y-46707200D02*
X216322618Y-46754819D01*
X216322618Y-46754819D02*
X215941666Y-46754819D01*
X215941666Y-46754819D02*
X215941666Y-45754819D01*
X215941666Y-45754819D02*
X216274999Y-45754819D01*
X216274999Y-45754819D02*
X216370237Y-45802438D01*
X216370237Y-45802438D02*
X216417856Y-45850057D01*
X216417856Y-45850057D02*
X216465475Y-45945295D01*
X216465475Y-45945295D02*
X216465475Y-46040533D01*
X216465475Y-46040533D02*
X216417856Y-46135771D01*
X216417856Y-46135771D02*
X216370237Y-46183390D01*
X216370237Y-46183390D02*
X216274999Y-46231009D01*
X216274999Y-46231009D02*
X215941666Y-46231009D01*
X216941666Y-46373866D02*
X217703571Y-46373866D01*
X218751189Y-46659580D02*
X218703570Y-46707200D01*
X218703570Y-46707200D02*
X218560713Y-46754819D01*
X218560713Y-46754819D02*
X218465475Y-46754819D01*
X218465475Y-46754819D02*
X218322618Y-46707200D01*
X218322618Y-46707200D02*
X218227380Y-46611961D01*
X218227380Y-46611961D02*
X218179761Y-46516723D01*
X218179761Y-46516723D02*
X218132142Y-46326247D01*
X218132142Y-46326247D02*
X218132142Y-46183390D01*
X218132142Y-46183390D02*
X218179761Y-45992914D01*
X218179761Y-45992914D02*
X218227380Y-45897676D01*
X218227380Y-45897676D02*
X218322618Y-45802438D01*
X218322618Y-45802438D02*
X218465475Y-45754819D01*
X218465475Y-45754819D02*
X218560713Y-45754819D01*
X218560713Y-45754819D02*
X218703570Y-45802438D01*
X218703570Y-45802438D02*
X218751189Y-45850057D01*
X218941666Y-46850057D02*
X219703570Y-46850057D01*
X220513094Y-46754819D02*
X220179761Y-46278628D01*
X219941666Y-46754819D02*
X219941666Y-45754819D01*
X219941666Y-45754819D02*
X220322618Y-45754819D01*
X220322618Y-45754819D02*
X220417856Y-45802438D01*
X220417856Y-45802438D02*
X220465475Y-45850057D01*
X220465475Y-45850057D02*
X220513094Y-45945295D01*
X220513094Y-45945295D02*
X220513094Y-46088152D01*
X220513094Y-46088152D02*
X220465475Y-46183390D01*
X220465475Y-46183390D02*
X220417856Y-46231009D01*
X220417856Y-46231009D02*
X220322618Y-46278628D01*
X220322618Y-46278628D02*
X219941666Y-46278628D01*
X220941666Y-46231009D02*
X221274999Y-46231009D01*
X221417856Y-46754819D02*
X220941666Y-46754819D01*
X220941666Y-46754819D02*
X220941666Y-45754819D01*
X220941666Y-45754819D02*
X221417856Y-45754819D01*
X222417856Y-46659580D02*
X222370237Y-46707200D01*
X222370237Y-46707200D02*
X222227380Y-46754819D01*
X222227380Y-46754819D02*
X222132142Y-46754819D01*
X222132142Y-46754819D02*
X221989285Y-46707200D01*
X221989285Y-46707200D02*
X221894047Y-46611961D01*
X221894047Y-46611961D02*
X221846428Y-46516723D01*
X221846428Y-46516723D02*
X221798809Y-46326247D01*
X221798809Y-46326247D02*
X221798809Y-46183390D01*
X221798809Y-46183390D02*
X221846428Y-45992914D01*
X221846428Y-45992914D02*
X221894047Y-45897676D01*
X221894047Y-45897676D02*
X221989285Y-45802438D01*
X221989285Y-45802438D02*
X222132142Y-45754819D01*
X222132142Y-45754819D02*
X222227380Y-45754819D01*
X222227380Y-45754819D02*
X222370237Y-45802438D01*
X222370237Y-45802438D02*
X222417856Y-45850057D01*
X222846428Y-46231009D02*
X223179761Y-46231009D01*
X223322618Y-46754819D02*
X222846428Y-46754819D01*
X222846428Y-46754819D02*
X222846428Y-45754819D01*
X222846428Y-45754819D02*
X223322618Y-45754819D01*
X223751190Y-46754819D02*
X223751190Y-45754819D01*
X223751190Y-45754819D02*
X224132142Y-45754819D01*
X224132142Y-45754819D02*
X224227380Y-45802438D01*
X224227380Y-45802438D02*
X224274999Y-45850057D01*
X224274999Y-45850057D02*
X224322618Y-45945295D01*
X224322618Y-45945295D02*
X224322618Y-46088152D01*
X224322618Y-46088152D02*
X224274999Y-46183390D01*
X224274999Y-46183390D02*
X224227380Y-46231009D01*
X224227380Y-46231009D02*
X224132142Y-46278628D01*
X224132142Y-46278628D02*
X223751190Y-46278628D01*
X224608333Y-45754819D02*
X225179761Y-45754819D01*
X224894047Y-46754819D02*
X224894047Y-45754819D01*
X225465476Y-46469104D02*
X225941666Y-46469104D01*
X225370238Y-46754819D02*
X225703571Y-45754819D01*
X225703571Y-45754819D02*
X226036904Y-46754819D01*
X226941666Y-46659580D02*
X226894047Y-46707200D01*
X226894047Y-46707200D02*
X226751190Y-46754819D01*
X226751190Y-46754819D02*
X226655952Y-46754819D01*
X226655952Y-46754819D02*
X226513095Y-46707200D01*
X226513095Y-46707200D02*
X226417857Y-46611961D01*
X226417857Y-46611961D02*
X226370238Y-46516723D01*
X226370238Y-46516723D02*
X226322619Y-46326247D01*
X226322619Y-46326247D02*
X226322619Y-46183390D01*
X226322619Y-46183390D02*
X226370238Y-45992914D01*
X226370238Y-45992914D02*
X226417857Y-45897676D01*
X226417857Y-45897676D02*
X226513095Y-45802438D01*
X226513095Y-45802438D02*
X226655952Y-45754819D01*
X226655952Y-45754819D02*
X226751190Y-45754819D01*
X226751190Y-45754819D02*
X226894047Y-45802438D01*
X226894047Y-45802438D02*
X226941666Y-45850057D01*
X227846428Y-46754819D02*
X227370238Y-46754819D01*
X227370238Y-46754819D02*
X227370238Y-45754819D01*
X228179762Y-46231009D02*
X228513095Y-46231009D01*
X228655952Y-46754819D02*
X228179762Y-46754819D01*
X228179762Y-46754819D02*
X228179762Y-45754819D01*
X228179762Y-45754819D02*
X228655952Y-45754819D01*
X225357142Y-87254819D02*
X225023809Y-86778628D01*
X224785714Y-87254819D02*
X224785714Y-86254819D01*
X224785714Y-86254819D02*
X225166666Y-86254819D01*
X225166666Y-86254819D02*
X225261904Y-86302438D01*
X225261904Y-86302438D02*
X225309523Y-86350057D01*
X225309523Y-86350057D02*
X225357142Y-86445295D01*
X225357142Y-86445295D02*
X225357142Y-86588152D01*
X225357142Y-86588152D02*
X225309523Y-86683390D01*
X225309523Y-86683390D02*
X225261904Y-86731009D01*
X225261904Y-86731009D02*
X225166666Y-86778628D01*
X225166666Y-86778628D02*
X224785714Y-86778628D01*
X226309523Y-87254819D02*
X225738095Y-87254819D01*
X226023809Y-87254819D02*
X226023809Y-86254819D01*
X226023809Y-86254819D02*
X225928571Y-86397676D01*
X225928571Y-86397676D02*
X225833333Y-86492914D01*
X225833333Y-86492914D02*
X225738095Y-86540533D01*
X227261904Y-87254819D02*
X226690476Y-87254819D01*
X226976190Y-87254819D02*
X226976190Y-86254819D01*
X226976190Y-86254819D02*
X226880952Y-86397676D01*
X226880952Y-86397676D02*
X226785714Y-86492914D01*
X226785714Y-86492914D02*
X226690476Y-86540533D01*
X219180952Y-84119104D02*
X219657142Y-84119104D01*
X219085714Y-84404819D02*
X219419047Y-83404819D01*
X219419047Y-83404819D02*
X219752380Y-84404819D01*
X220085714Y-83881009D02*
X220419047Y-83881009D01*
X220561904Y-84404819D02*
X220085714Y-84404819D01*
X220085714Y-84404819D02*
X220085714Y-83404819D01*
X220085714Y-83404819D02*
X220561904Y-83404819D01*
X221514285Y-84404819D02*
X220942857Y-84404819D01*
X221228571Y-84404819D02*
X221228571Y-83404819D01*
X221228571Y-83404819D02*
X221133333Y-83547676D01*
X221133333Y-83547676D02*
X221038095Y-83642914D01*
X221038095Y-83642914D02*
X220942857Y-83690533D01*
X222466666Y-84404819D02*
X221895238Y-84404819D01*
X222180952Y-84404819D02*
X222180952Y-83404819D01*
X222180952Y-83404819D02*
X222085714Y-83547676D01*
X222085714Y-83547676D02*
X221990476Y-83642914D01*
X221990476Y-83642914D02*
X221895238Y-83690533D01*
X223419047Y-84404819D02*
X222847619Y-84404819D01*
X223133333Y-84404819D02*
X223133333Y-83404819D01*
X223133333Y-83404819D02*
X223038095Y-83547676D01*
X223038095Y-83547676D02*
X222942857Y-83642914D01*
X222942857Y-83642914D02*
X222847619Y-83690533D01*
X207238095Y-45854819D02*
X207238095Y-46664342D01*
X207238095Y-46664342D02*
X207285714Y-46759580D01*
X207285714Y-46759580D02*
X207333333Y-46807200D01*
X207333333Y-46807200D02*
X207428571Y-46854819D01*
X207428571Y-46854819D02*
X207619047Y-46854819D01*
X207619047Y-46854819D02*
X207714285Y-46807200D01*
X207714285Y-46807200D02*
X207761904Y-46759580D01*
X207761904Y-46759580D02*
X207809523Y-46664342D01*
X207809523Y-46664342D02*
X207809523Y-45854819D01*
X208190476Y-45854819D02*
X208809523Y-45854819D01*
X208809523Y-45854819D02*
X208476190Y-46235771D01*
X208476190Y-46235771D02*
X208619047Y-46235771D01*
X208619047Y-46235771D02*
X208714285Y-46283390D01*
X208714285Y-46283390D02*
X208761904Y-46331009D01*
X208761904Y-46331009D02*
X208809523Y-46426247D01*
X208809523Y-46426247D02*
X208809523Y-46664342D01*
X208809523Y-46664342D02*
X208761904Y-46759580D01*
X208761904Y-46759580D02*
X208714285Y-46807200D01*
X208714285Y-46807200D02*
X208619047Y-46854819D01*
X208619047Y-46854819D02*
X208333333Y-46854819D01*
X208333333Y-46854819D02*
X208238095Y-46807200D01*
X208238095Y-46807200D02*
X208190476Y-46759580D01*
X226607142Y-65179580D02*
X226559523Y-65227200D01*
X226559523Y-65227200D02*
X226416666Y-65274819D01*
X226416666Y-65274819D02*
X226321428Y-65274819D01*
X226321428Y-65274819D02*
X226178571Y-65227200D01*
X226178571Y-65227200D02*
X226083333Y-65131961D01*
X226083333Y-65131961D02*
X226035714Y-65036723D01*
X226035714Y-65036723D02*
X225988095Y-64846247D01*
X225988095Y-64846247D02*
X225988095Y-64703390D01*
X225988095Y-64703390D02*
X226035714Y-64512914D01*
X226035714Y-64512914D02*
X226083333Y-64417676D01*
X226083333Y-64417676D02*
X226178571Y-64322438D01*
X226178571Y-64322438D02*
X226321428Y-64274819D01*
X226321428Y-64274819D02*
X226416666Y-64274819D01*
X226416666Y-64274819D02*
X226559523Y-64322438D01*
X226559523Y-64322438D02*
X226607142Y-64370057D01*
X226988095Y-64370057D02*
X227035714Y-64322438D01*
X227035714Y-64322438D02*
X227130952Y-64274819D01*
X227130952Y-64274819D02*
X227369047Y-64274819D01*
X227369047Y-64274819D02*
X227464285Y-64322438D01*
X227464285Y-64322438D02*
X227511904Y-64370057D01*
X227511904Y-64370057D02*
X227559523Y-64465295D01*
X227559523Y-64465295D02*
X227559523Y-64560533D01*
X227559523Y-64560533D02*
X227511904Y-64703390D01*
X227511904Y-64703390D02*
X226940476Y-65274819D01*
X226940476Y-65274819D02*
X227559523Y-65274819D01*
X228416666Y-64608152D02*
X228416666Y-65274819D01*
X228178571Y-64227200D02*
X227940476Y-64941485D01*
X227940476Y-64941485D02*
X228559523Y-64941485D01*
X231352142Y-85704819D02*
X231018809Y-85228628D01*
X230780714Y-85704819D02*
X230780714Y-84704819D01*
X230780714Y-84704819D02*
X231161666Y-84704819D01*
X231161666Y-84704819D02*
X231256904Y-84752438D01*
X231256904Y-84752438D02*
X231304523Y-84800057D01*
X231304523Y-84800057D02*
X231352142Y-84895295D01*
X231352142Y-84895295D02*
X231352142Y-85038152D01*
X231352142Y-85038152D02*
X231304523Y-85133390D01*
X231304523Y-85133390D02*
X231256904Y-85181009D01*
X231256904Y-85181009D02*
X231161666Y-85228628D01*
X231161666Y-85228628D02*
X230780714Y-85228628D01*
X232304523Y-85704819D02*
X231733095Y-85704819D01*
X232018809Y-85704819D02*
X232018809Y-84704819D01*
X232018809Y-84704819D02*
X231923571Y-84847676D01*
X231923571Y-84847676D02*
X231828333Y-84942914D01*
X231828333Y-84942914D02*
X231733095Y-84990533D01*
X232685476Y-84800057D02*
X232733095Y-84752438D01*
X232733095Y-84752438D02*
X232828333Y-84704819D01*
X232828333Y-84704819D02*
X233066428Y-84704819D01*
X233066428Y-84704819D02*
X233161666Y-84752438D01*
X233161666Y-84752438D02*
X233209285Y-84800057D01*
X233209285Y-84800057D02*
X233256904Y-84895295D01*
X233256904Y-84895295D02*
X233256904Y-84990533D01*
X233256904Y-84990533D02*
X233209285Y-85133390D01*
X233209285Y-85133390D02*
X232637857Y-85704819D01*
X232637857Y-85704819D02*
X233256904Y-85704819D01*
X215727142Y-66034580D02*
X215679523Y-66082200D01*
X215679523Y-66082200D02*
X215536666Y-66129819D01*
X215536666Y-66129819D02*
X215441428Y-66129819D01*
X215441428Y-66129819D02*
X215298571Y-66082200D01*
X215298571Y-66082200D02*
X215203333Y-65986961D01*
X215203333Y-65986961D02*
X215155714Y-65891723D01*
X215155714Y-65891723D02*
X215108095Y-65701247D01*
X215108095Y-65701247D02*
X215108095Y-65558390D01*
X215108095Y-65558390D02*
X215155714Y-65367914D01*
X215155714Y-65367914D02*
X215203333Y-65272676D01*
X215203333Y-65272676D02*
X215298571Y-65177438D01*
X215298571Y-65177438D02*
X215441428Y-65129819D01*
X215441428Y-65129819D02*
X215536666Y-65129819D01*
X215536666Y-65129819D02*
X215679523Y-65177438D01*
X215679523Y-65177438D02*
X215727142Y-65225057D01*
X216108095Y-65225057D02*
X216155714Y-65177438D01*
X216155714Y-65177438D02*
X216250952Y-65129819D01*
X216250952Y-65129819D02*
X216489047Y-65129819D01*
X216489047Y-65129819D02*
X216584285Y-65177438D01*
X216584285Y-65177438D02*
X216631904Y-65225057D01*
X216631904Y-65225057D02*
X216679523Y-65320295D01*
X216679523Y-65320295D02*
X216679523Y-65415533D01*
X216679523Y-65415533D02*
X216631904Y-65558390D01*
X216631904Y-65558390D02*
X216060476Y-66129819D01*
X216060476Y-66129819D02*
X216679523Y-66129819D01*
X217060476Y-65225057D02*
X217108095Y-65177438D01*
X217108095Y-65177438D02*
X217203333Y-65129819D01*
X217203333Y-65129819D02*
X217441428Y-65129819D01*
X217441428Y-65129819D02*
X217536666Y-65177438D01*
X217536666Y-65177438D02*
X217584285Y-65225057D01*
X217584285Y-65225057D02*
X217631904Y-65320295D01*
X217631904Y-65320295D02*
X217631904Y-65415533D01*
X217631904Y-65415533D02*
X217584285Y-65558390D01*
X217584285Y-65558390D02*
X217012857Y-66129819D01*
X217012857Y-66129819D02*
X217631904Y-66129819D01*
X222497142Y-62229580D02*
X222449523Y-62277200D01*
X222449523Y-62277200D02*
X222306666Y-62324819D01*
X222306666Y-62324819D02*
X222211428Y-62324819D01*
X222211428Y-62324819D02*
X222068571Y-62277200D01*
X222068571Y-62277200D02*
X221973333Y-62181961D01*
X221973333Y-62181961D02*
X221925714Y-62086723D01*
X221925714Y-62086723D02*
X221878095Y-61896247D01*
X221878095Y-61896247D02*
X221878095Y-61753390D01*
X221878095Y-61753390D02*
X221925714Y-61562914D01*
X221925714Y-61562914D02*
X221973333Y-61467676D01*
X221973333Y-61467676D02*
X222068571Y-61372438D01*
X222068571Y-61372438D02*
X222211428Y-61324819D01*
X222211428Y-61324819D02*
X222306666Y-61324819D01*
X222306666Y-61324819D02*
X222449523Y-61372438D01*
X222449523Y-61372438D02*
X222497142Y-61420057D01*
X223449523Y-62324819D02*
X222878095Y-62324819D01*
X223163809Y-62324819D02*
X223163809Y-61324819D01*
X223163809Y-61324819D02*
X223068571Y-61467676D01*
X223068571Y-61467676D02*
X222973333Y-61562914D01*
X222973333Y-61562914D02*
X222878095Y-61610533D01*
X224354285Y-61324819D02*
X223878095Y-61324819D01*
X223878095Y-61324819D02*
X223830476Y-61801009D01*
X223830476Y-61801009D02*
X223878095Y-61753390D01*
X223878095Y-61753390D02*
X223973333Y-61705771D01*
X223973333Y-61705771D02*
X224211428Y-61705771D01*
X224211428Y-61705771D02*
X224306666Y-61753390D01*
X224306666Y-61753390D02*
X224354285Y-61801009D01*
X224354285Y-61801009D02*
X224401904Y-61896247D01*
X224401904Y-61896247D02*
X224401904Y-62134342D01*
X224401904Y-62134342D02*
X224354285Y-62229580D01*
X224354285Y-62229580D02*
X224306666Y-62277200D01*
X224306666Y-62277200D02*
X224211428Y-62324819D01*
X224211428Y-62324819D02*
X223973333Y-62324819D01*
X223973333Y-62324819D02*
X223878095Y-62277200D01*
X223878095Y-62277200D02*
X223830476Y-62229580D01*
X228375595Y-59254819D02*
X228375595Y-60064342D01*
X228375595Y-60064342D02*
X228423214Y-60159580D01*
X228423214Y-60159580D02*
X228470833Y-60207200D01*
X228470833Y-60207200D02*
X228566071Y-60254819D01*
X228566071Y-60254819D02*
X228756547Y-60254819D01*
X228756547Y-60254819D02*
X228851785Y-60207200D01*
X228851785Y-60207200D02*
X228899404Y-60159580D01*
X228899404Y-60159580D02*
X228947023Y-60064342D01*
X228947023Y-60064342D02*
X228947023Y-59254819D01*
X229899404Y-59254819D02*
X229423214Y-59254819D01*
X229423214Y-59254819D02*
X229375595Y-59731009D01*
X229375595Y-59731009D02*
X229423214Y-59683390D01*
X229423214Y-59683390D02*
X229518452Y-59635771D01*
X229518452Y-59635771D02*
X229756547Y-59635771D01*
X229756547Y-59635771D02*
X229851785Y-59683390D01*
X229851785Y-59683390D02*
X229899404Y-59731009D01*
X229899404Y-59731009D02*
X229947023Y-59826247D01*
X229947023Y-59826247D02*
X229947023Y-60064342D01*
X229947023Y-60064342D02*
X229899404Y-60159580D01*
X229899404Y-60159580D02*
X229851785Y-60207200D01*
X229851785Y-60207200D02*
X229756547Y-60254819D01*
X229756547Y-60254819D02*
X229518452Y-60254819D01*
X229518452Y-60254819D02*
X229423214Y-60207200D01*
X229423214Y-60207200D02*
X229375595Y-60159580D01*
X224253333Y-58114819D02*
X223920000Y-57638628D01*
X223681905Y-58114819D02*
X223681905Y-57114819D01*
X223681905Y-57114819D02*
X224062857Y-57114819D01*
X224062857Y-57114819D02*
X224158095Y-57162438D01*
X224158095Y-57162438D02*
X224205714Y-57210057D01*
X224205714Y-57210057D02*
X224253333Y-57305295D01*
X224253333Y-57305295D02*
X224253333Y-57448152D01*
X224253333Y-57448152D02*
X224205714Y-57543390D01*
X224205714Y-57543390D02*
X224158095Y-57591009D01*
X224158095Y-57591009D02*
X224062857Y-57638628D01*
X224062857Y-57638628D02*
X223681905Y-57638628D01*
X224586667Y-57114819D02*
X225253333Y-57114819D01*
X225253333Y-57114819D02*
X224824762Y-58114819D01*
X228734819Y-59379047D02*
X228734819Y-59855237D01*
X228734819Y-59855237D02*
X227734819Y-59855237D01*
X228211009Y-59045713D02*
X228211009Y-58712380D01*
X228734819Y-58569523D02*
X228734819Y-59045713D01*
X228734819Y-59045713D02*
X227734819Y-59045713D01*
X227734819Y-59045713D02*
X227734819Y-58569523D01*
X228734819Y-58140951D02*
X227734819Y-58140951D01*
X227734819Y-58140951D02*
X227734819Y-57902856D01*
X227734819Y-57902856D02*
X227782438Y-57759999D01*
X227782438Y-57759999D02*
X227877676Y-57664761D01*
X227877676Y-57664761D02*
X227972914Y-57617142D01*
X227972914Y-57617142D02*
X228163390Y-57569523D01*
X228163390Y-57569523D02*
X228306247Y-57569523D01*
X228306247Y-57569523D02*
X228496723Y-57617142D01*
X228496723Y-57617142D02*
X228591961Y-57664761D01*
X228591961Y-57664761D02*
X228687200Y-57759999D01*
X228687200Y-57759999D02*
X228734819Y-57902856D01*
X228734819Y-57902856D02*
X228734819Y-58140951D01*
X228734819Y-56617142D02*
X228734819Y-57188570D01*
X228734819Y-56902856D02*
X227734819Y-56902856D01*
X227734819Y-56902856D02*
X227877676Y-56998094D01*
X227877676Y-56998094D02*
X227972914Y-57093332D01*
X227972914Y-57093332D02*
X228020533Y-57188570D01*
X203682142Y-68534580D02*
X203634523Y-68582200D01*
X203634523Y-68582200D02*
X203491666Y-68629819D01*
X203491666Y-68629819D02*
X203396428Y-68629819D01*
X203396428Y-68629819D02*
X203253571Y-68582200D01*
X203253571Y-68582200D02*
X203158333Y-68486961D01*
X203158333Y-68486961D02*
X203110714Y-68391723D01*
X203110714Y-68391723D02*
X203063095Y-68201247D01*
X203063095Y-68201247D02*
X203063095Y-68058390D01*
X203063095Y-68058390D02*
X203110714Y-67867914D01*
X203110714Y-67867914D02*
X203158333Y-67772676D01*
X203158333Y-67772676D02*
X203253571Y-67677438D01*
X203253571Y-67677438D02*
X203396428Y-67629819D01*
X203396428Y-67629819D02*
X203491666Y-67629819D01*
X203491666Y-67629819D02*
X203634523Y-67677438D01*
X203634523Y-67677438D02*
X203682142Y-67725057D01*
X204634523Y-68629819D02*
X204063095Y-68629819D01*
X204348809Y-68629819D02*
X204348809Y-67629819D01*
X204348809Y-67629819D02*
X204253571Y-67772676D01*
X204253571Y-67772676D02*
X204158333Y-67867914D01*
X204158333Y-67867914D02*
X204063095Y-67915533D01*
X205110714Y-68629819D02*
X205301190Y-68629819D01*
X205301190Y-68629819D02*
X205396428Y-68582200D01*
X205396428Y-68582200D02*
X205444047Y-68534580D01*
X205444047Y-68534580D02*
X205539285Y-68391723D01*
X205539285Y-68391723D02*
X205586904Y-68201247D01*
X205586904Y-68201247D02*
X205586904Y-67820295D01*
X205586904Y-67820295D02*
X205539285Y-67725057D01*
X205539285Y-67725057D02*
X205491666Y-67677438D01*
X205491666Y-67677438D02*
X205396428Y-67629819D01*
X205396428Y-67629819D02*
X205205952Y-67629819D01*
X205205952Y-67629819D02*
X205110714Y-67677438D01*
X205110714Y-67677438D02*
X205063095Y-67725057D01*
X205063095Y-67725057D02*
X205015476Y-67820295D01*
X205015476Y-67820295D02*
X205015476Y-68058390D01*
X205015476Y-68058390D02*
X205063095Y-68153628D01*
X205063095Y-68153628D02*
X205110714Y-68201247D01*
X205110714Y-68201247D02*
X205205952Y-68248866D01*
X205205952Y-68248866D02*
X205396428Y-68248866D01*
X205396428Y-68248866D02*
X205491666Y-68201247D01*
X205491666Y-68201247D02*
X205539285Y-68153628D01*
X205539285Y-68153628D02*
X205586904Y-68058390D01*
X206833333Y-71109580D02*
X206785714Y-71157200D01*
X206785714Y-71157200D02*
X206642857Y-71204819D01*
X206642857Y-71204819D02*
X206547619Y-71204819D01*
X206547619Y-71204819D02*
X206404762Y-71157200D01*
X206404762Y-71157200D02*
X206309524Y-71061961D01*
X206309524Y-71061961D02*
X206261905Y-70966723D01*
X206261905Y-70966723D02*
X206214286Y-70776247D01*
X206214286Y-70776247D02*
X206214286Y-70633390D01*
X206214286Y-70633390D02*
X206261905Y-70442914D01*
X206261905Y-70442914D02*
X206309524Y-70347676D01*
X206309524Y-70347676D02*
X206404762Y-70252438D01*
X206404762Y-70252438D02*
X206547619Y-70204819D01*
X206547619Y-70204819D02*
X206642857Y-70204819D01*
X206642857Y-70204819D02*
X206785714Y-70252438D01*
X206785714Y-70252438D02*
X206833333Y-70300057D01*
X207166667Y-70204819D02*
X207833333Y-70204819D01*
X207833333Y-70204819D02*
X207404762Y-71204819D01*
X216904580Y-85016666D02*
X216952200Y-85064285D01*
X216952200Y-85064285D02*
X216999819Y-85207142D01*
X216999819Y-85207142D02*
X216999819Y-85302380D01*
X216999819Y-85302380D02*
X216952200Y-85445237D01*
X216952200Y-85445237D02*
X216856961Y-85540475D01*
X216856961Y-85540475D02*
X216761723Y-85588094D01*
X216761723Y-85588094D02*
X216571247Y-85635713D01*
X216571247Y-85635713D02*
X216428390Y-85635713D01*
X216428390Y-85635713D02*
X216237914Y-85588094D01*
X216237914Y-85588094D02*
X216142676Y-85540475D01*
X216142676Y-85540475D02*
X216047438Y-85445237D01*
X216047438Y-85445237D02*
X215999819Y-85302380D01*
X215999819Y-85302380D02*
X215999819Y-85207142D01*
X215999819Y-85207142D02*
X216047438Y-85064285D01*
X216047438Y-85064285D02*
X216095057Y-85016666D01*
X215999819Y-84111904D02*
X215999819Y-84588094D01*
X215999819Y-84588094D02*
X216476009Y-84635713D01*
X216476009Y-84635713D02*
X216428390Y-84588094D01*
X216428390Y-84588094D02*
X216380771Y-84492856D01*
X216380771Y-84492856D02*
X216380771Y-84254761D01*
X216380771Y-84254761D02*
X216428390Y-84159523D01*
X216428390Y-84159523D02*
X216476009Y-84111904D01*
X216476009Y-84111904D02*
X216571247Y-84064285D01*
X216571247Y-84064285D02*
X216809342Y-84064285D01*
X216809342Y-84064285D02*
X216904580Y-84111904D01*
X216904580Y-84111904D02*
X216952200Y-84159523D01*
X216952200Y-84159523D02*
X216999819Y-84254761D01*
X216999819Y-84254761D02*
X216999819Y-84492856D01*
X216999819Y-84492856D02*
X216952200Y-84588094D01*
X216952200Y-84588094D02*
X216904580Y-84635713D01*
X209932142Y-65984580D02*
X209884523Y-66032200D01*
X209884523Y-66032200D02*
X209741666Y-66079819D01*
X209741666Y-66079819D02*
X209646428Y-66079819D01*
X209646428Y-66079819D02*
X209503571Y-66032200D01*
X209503571Y-66032200D02*
X209408333Y-65936961D01*
X209408333Y-65936961D02*
X209360714Y-65841723D01*
X209360714Y-65841723D02*
X209313095Y-65651247D01*
X209313095Y-65651247D02*
X209313095Y-65508390D01*
X209313095Y-65508390D02*
X209360714Y-65317914D01*
X209360714Y-65317914D02*
X209408333Y-65222676D01*
X209408333Y-65222676D02*
X209503571Y-65127438D01*
X209503571Y-65127438D02*
X209646428Y-65079819D01*
X209646428Y-65079819D02*
X209741666Y-65079819D01*
X209741666Y-65079819D02*
X209884523Y-65127438D01*
X209884523Y-65127438D02*
X209932142Y-65175057D01*
X210313095Y-65175057D02*
X210360714Y-65127438D01*
X210360714Y-65127438D02*
X210455952Y-65079819D01*
X210455952Y-65079819D02*
X210694047Y-65079819D01*
X210694047Y-65079819D02*
X210789285Y-65127438D01*
X210789285Y-65127438D02*
X210836904Y-65175057D01*
X210836904Y-65175057D02*
X210884523Y-65270295D01*
X210884523Y-65270295D02*
X210884523Y-65365533D01*
X210884523Y-65365533D02*
X210836904Y-65508390D01*
X210836904Y-65508390D02*
X210265476Y-66079819D01*
X210265476Y-66079819D02*
X210884523Y-66079819D01*
X211503571Y-65079819D02*
X211598809Y-65079819D01*
X211598809Y-65079819D02*
X211694047Y-65127438D01*
X211694047Y-65127438D02*
X211741666Y-65175057D01*
X211741666Y-65175057D02*
X211789285Y-65270295D01*
X211789285Y-65270295D02*
X211836904Y-65460771D01*
X211836904Y-65460771D02*
X211836904Y-65698866D01*
X211836904Y-65698866D02*
X211789285Y-65889342D01*
X211789285Y-65889342D02*
X211741666Y-65984580D01*
X211741666Y-65984580D02*
X211694047Y-66032200D01*
X211694047Y-66032200D02*
X211598809Y-66079819D01*
X211598809Y-66079819D02*
X211503571Y-66079819D01*
X211503571Y-66079819D02*
X211408333Y-66032200D01*
X211408333Y-66032200D02*
X211360714Y-65984580D01*
X211360714Y-65984580D02*
X211313095Y-65889342D01*
X211313095Y-65889342D02*
X211265476Y-65698866D01*
X211265476Y-65698866D02*
X211265476Y-65460771D01*
X211265476Y-65460771D02*
X211313095Y-65270295D01*
X211313095Y-65270295D02*
X211360714Y-65175057D01*
X211360714Y-65175057D02*
X211408333Y-65127438D01*
X211408333Y-65127438D02*
X211503571Y-65079819D01*
X210429819Y-83691666D02*
X209953628Y-84024999D01*
X210429819Y-84263094D02*
X209429819Y-84263094D01*
X209429819Y-84263094D02*
X209429819Y-83882142D01*
X209429819Y-83882142D02*
X209477438Y-83786904D01*
X209477438Y-83786904D02*
X209525057Y-83739285D01*
X209525057Y-83739285D02*
X209620295Y-83691666D01*
X209620295Y-83691666D02*
X209763152Y-83691666D01*
X209763152Y-83691666D02*
X209858390Y-83739285D01*
X209858390Y-83739285D02*
X209906009Y-83786904D01*
X209906009Y-83786904D02*
X209953628Y-83882142D01*
X209953628Y-83882142D02*
X209953628Y-84263094D01*
X210429819Y-82739285D02*
X210429819Y-83310713D01*
X210429819Y-83024999D02*
X209429819Y-83024999D01*
X209429819Y-83024999D02*
X209572676Y-83120237D01*
X209572676Y-83120237D02*
X209667914Y-83215475D01*
X209667914Y-83215475D02*
X209715533Y-83310713D01*
X216883333Y-56284819D02*
X216550000Y-55808628D01*
X216311905Y-56284819D02*
X216311905Y-55284819D01*
X216311905Y-55284819D02*
X216692857Y-55284819D01*
X216692857Y-55284819D02*
X216788095Y-55332438D01*
X216788095Y-55332438D02*
X216835714Y-55380057D01*
X216835714Y-55380057D02*
X216883333Y-55475295D01*
X216883333Y-55475295D02*
X216883333Y-55618152D01*
X216883333Y-55618152D02*
X216835714Y-55713390D01*
X216835714Y-55713390D02*
X216788095Y-55761009D01*
X216788095Y-55761009D02*
X216692857Y-55808628D01*
X216692857Y-55808628D02*
X216311905Y-55808628D01*
X217359524Y-56284819D02*
X217550000Y-56284819D01*
X217550000Y-56284819D02*
X217645238Y-56237200D01*
X217645238Y-56237200D02*
X217692857Y-56189580D01*
X217692857Y-56189580D02*
X217788095Y-56046723D01*
X217788095Y-56046723D02*
X217835714Y-55856247D01*
X217835714Y-55856247D02*
X217835714Y-55475295D01*
X217835714Y-55475295D02*
X217788095Y-55380057D01*
X217788095Y-55380057D02*
X217740476Y-55332438D01*
X217740476Y-55332438D02*
X217645238Y-55284819D01*
X217645238Y-55284819D02*
X217454762Y-55284819D01*
X217454762Y-55284819D02*
X217359524Y-55332438D01*
X217359524Y-55332438D02*
X217311905Y-55380057D01*
X217311905Y-55380057D02*
X217264286Y-55475295D01*
X217264286Y-55475295D02*
X217264286Y-55713390D01*
X217264286Y-55713390D02*
X217311905Y-55808628D01*
X217311905Y-55808628D02*
X217359524Y-55856247D01*
X217359524Y-55856247D02*
X217454762Y-55903866D01*
X217454762Y-55903866D02*
X217645238Y-55903866D01*
X217645238Y-55903866D02*
X217740476Y-55856247D01*
X217740476Y-55856247D02*
X217788095Y-55808628D01*
X217788095Y-55808628D02*
X217835714Y-55713390D01*
X203062142Y-45384819D02*
X202728809Y-44908628D01*
X202490714Y-45384819D02*
X202490714Y-44384819D01*
X202490714Y-44384819D02*
X202871666Y-44384819D01*
X202871666Y-44384819D02*
X202966904Y-44432438D01*
X202966904Y-44432438D02*
X203014523Y-44480057D01*
X203014523Y-44480057D02*
X203062142Y-44575295D01*
X203062142Y-44575295D02*
X203062142Y-44718152D01*
X203062142Y-44718152D02*
X203014523Y-44813390D01*
X203014523Y-44813390D02*
X202966904Y-44861009D01*
X202966904Y-44861009D02*
X202871666Y-44908628D01*
X202871666Y-44908628D02*
X202490714Y-44908628D01*
X204014523Y-45384819D02*
X203443095Y-45384819D01*
X203728809Y-45384819D02*
X203728809Y-44384819D01*
X203728809Y-44384819D02*
X203633571Y-44527676D01*
X203633571Y-44527676D02*
X203538333Y-44622914D01*
X203538333Y-44622914D02*
X203443095Y-44670533D01*
X204633571Y-44384819D02*
X204728809Y-44384819D01*
X204728809Y-44384819D02*
X204824047Y-44432438D01*
X204824047Y-44432438D02*
X204871666Y-44480057D01*
X204871666Y-44480057D02*
X204919285Y-44575295D01*
X204919285Y-44575295D02*
X204966904Y-44765771D01*
X204966904Y-44765771D02*
X204966904Y-45003866D01*
X204966904Y-45003866D02*
X204919285Y-45194342D01*
X204919285Y-45194342D02*
X204871666Y-45289580D01*
X204871666Y-45289580D02*
X204824047Y-45337200D01*
X204824047Y-45337200D02*
X204728809Y-45384819D01*
X204728809Y-45384819D02*
X204633571Y-45384819D01*
X204633571Y-45384819D02*
X204538333Y-45337200D01*
X204538333Y-45337200D02*
X204490714Y-45289580D01*
X204490714Y-45289580D02*
X204443095Y-45194342D01*
X204443095Y-45194342D02*
X204395476Y-45003866D01*
X204395476Y-45003866D02*
X204395476Y-44765771D01*
X204395476Y-44765771D02*
X204443095Y-44575295D01*
X204443095Y-44575295D02*
X204490714Y-44480057D01*
X204490714Y-44480057D02*
X204538333Y-44432438D01*
X204538333Y-44432438D02*
X204633571Y-44384819D01*
X220497142Y-62229580D02*
X220449523Y-62277200D01*
X220449523Y-62277200D02*
X220306666Y-62324819D01*
X220306666Y-62324819D02*
X220211428Y-62324819D01*
X220211428Y-62324819D02*
X220068571Y-62277200D01*
X220068571Y-62277200D02*
X219973333Y-62181961D01*
X219973333Y-62181961D02*
X219925714Y-62086723D01*
X219925714Y-62086723D02*
X219878095Y-61896247D01*
X219878095Y-61896247D02*
X219878095Y-61753390D01*
X219878095Y-61753390D02*
X219925714Y-61562914D01*
X219925714Y-61562914D02*
X219973333Y-61467676D01*
X219973333Y-61467676D02*
X220068571Y-61372438D01*
X220068571Y-61372438D02*
X220211428Y-61324819D01*
X220211428Y-61324819D02*
X220306666Y-61324819D01*
X220306666Y-61324819D02*
X220449523Y-61372438D01*
X220449523Y-61372438D02*
X220497142Y-61420057D01*
X221449523Y-62324819D02*
X220878095Y-62324819D01*
X221163809Y-62324819D02*
X221163809Y-61324819D01*
X221163809Y-61324819D02*
X221068571Y-61467676D01*
X221068571Y-61467676D02*
X220973333Y-61562914D01*
X220973333Y-61562914D02*
X220878095Y-61610533D01*
X222306666Y-61324819D02*
X222116190Y-61324819D01*
X222116190Y-61324819D02*
X222020952Y-61372438D01*
X222020952Y-61372438D02*
X221973333Y-61420057D01*
X221973333Y-61420057D02*
X221878095Y-61562914D01*
X221878095Y-61562914D02*
X221830476Y-61753390D01*
X221830476Y-61753390D02*
X221830476Y-62134342D01*
X221830476Y-62134342D02*
X221878095Y-62229580D01*
X221878095Y-62229580D02*
X221925714Y-62277200D01*
X221925714Y-62277200D02*
X222020952Y-62324819D01*
X222020952Y-62324819D02*
X222211428Y-62324819D01*
X222211428Y-62324819D02*
X222306666Y-62277200D01*
X222306666Y-62277200D02*
X222354285Y-62229580D01*
X222354285Y-62229580D02*
X222401904Y-62134342D01*
X222401904Y-62134342D02*
X222401904Y-61896247D01*
X222401904Y-61896247D02*
X222354285Y-61801009D01*
X222354285Y-61801009D02*
X222306666Y-61753390D01*
X222306666Y-61753390D02*
X222211428Y-61705771D01*
X222211428Y-61705771D02*
X222020952Y-61705771D01*
X222020952Y-61705771D02*
X221925714Y-61753390D01*
X221925714Y-61753390D02*
X221878095Y-61801009D01*
X221878095Y-61801009D02*
X221830476Y-61896247D01*
X230057142Y-65179580D02*
X230009523Y-65227200D01*
X230009523Y-65227200D02*
X229866666Y-65274819D01*
X229866666Y-65274819D02*
X229771428Y-65274819D01*
X229771428Y-65274819D02*
X229628571Y-65227200D01*
X229628571Y-65227200D02*
X229533333Y-65131961D01*
X229533333Y-65131961D02*
X229485714Y-65036723D01*
X229485714Y-65036723D02*
X229438095Y-64846247D01*
X229438095Y-64846247D02*
X229438095Y-64703390D01*
X229438095Y-64703390D02*
X229485714Y-64512914D01*
X229485714Y-64512914D02*
X229533333Y-64417676D01*
X229533333Y-64417676D02*
X229628571Y-64322438D01*
X229628571Y-64322438D02*
X229771428Y-64274819D01*
X229771428Y-64274819D02*
X229866666Y-64274819D01*
X229866666Y-64274819D02*
X230009523Y-64322438D01*
X230009523Y-64322438D02*
X230057142Y-64370057D01*
X230438095Y-64370057D02*
X230485714Y-64322438D01*
X230485714Y-64322438D02*
X230580952Y-64274819D01*
X230580952Y-64274819D02*
X230819047Y-64274819D01*
X230819047Y-64274819D02*
X230914285Y-64322438D01*
X230914285Y-64322438D02*
X230961904Y-64370057D01*
X230961904Y-64370057D02*
X231009523Y-64465295D01*
X231009523Y-64465295D02*
X231009523Y-64560533D01*
X231009523Y-64560533D02*
X230961904Y-64703390D01*
X230961904Y-64703390D02*
X230390476Y-65274819D01*
X230390476Y-65274819D02*
X231009523Y-65274819D01*
X231914285Y-64274819D02*
X231438095Y-64274819D01*
X231438095Y-64274819D02*
X231390476Y-64751009D01*
X231390476Y-64751009D02*
X231438095Y-64703390D01*
X231438095Y-64703390D02*
X231533333Y-64655771D01*
X231533333Y-64655771D02*
X231771428Y-64655771D01*
X231771428Y-64655771D02*
X231866666Y-64703390D01*
X231866666Y-64703390D02*
X231914285Y-64751009D01*
X231914285Y-64751009D02*
X231961904Y-64846247D01*
X231961904Y-64846247D02*
X231961904Y-65084342D01*
X231961904Y-65084342D02*
X231914285Y-65179580D01*
X231914285Y-65179580D02*
X231866666Y-65227200D01*
X231866666Y-65227200D02*
X231771428Y-65274819D01*
X231771428Y-65274819D02*
X231533333Y-65274819D01*
X231533333Y-65274819D02*
X231438095Y-65227200D01*
X231438095Y-65227200D02*
X231390476Y-65179580D01*
X222859580Y-74942857D02*
X222907200Y-74990476D01*
X222907200Y-74990476D02*
X222954819Y-75133333D01*
X222954819Y-75133333D02*
X222954819Y-75228571D01*
X222954819Y-75228571D02*
X222907200Y-75371428D01*
X222907200Y-75371428D02*
X222811961Y-75466666D01*
X222811961Y-75466666D02*
X222716723Y-75514285D01*
X222716723Y-75514285D02*
X222526247Y-75561904D01*
X222526247Y-75561904D02*
X222383390Y-75561904D01*
X222383390Y-75561904D02*
X222192914Y-75514285D01*
X222192914Y-75514285D02*
X222097676Y-75466666D01*
X222097676Y-75466666D02*
X222002438Y-75371428D01*
X222002438Y-75371428D02*
X221954819Y-75228571D01*
X221954819Y-75228571D02*
X221954819Y-75133333D01*
X221954819Y-75133333D02*
X222002438Y-74990476D01*
X222002438Y-74990476D02*
X222050057Y-74942857D01*
X222954819Y-73990476D02*
X222954819Y-74561904D01*
X222954819Y-74276190D02*
X221954819Y-74276190D01*
X221954819Y-74276190D02*
X222097676Y-74371428D01*
X222097676Y-74371428D02*
X222192914Y-74466666D01*
X222192914Y-74466666D02*
X222240533Y-74561904D01*
X222383390Y-73419047D02*
X222335771Y-73514285D01*
X222335771Y-73514285D02*
X222288152Y-73561904D01*
X222288152Y-73561904D02*
X222192914Y-73609523D01*
X222192914Y-73609523D02*
X222145295Y-73609523D01*
X222145295Y-73609523D02*
X222050057Y-73561904D01*
X222050057Y-73561904D02*
X222002438Y-73514285D01*
X222002438Y-73514285D02*
X221954819Y-73419047D01*
X221954819Y-73419047D02*
X221954819Y-73228571D01*
X221954819Y-73228571D02*
X222002438Y-73133333D01*
X222002438Y-73133333D02*
X222050057Y-73085714D01*
X222050057Y-73085714D02*
X222145295Y-73038095D01*
X222145295Y-73038095D02*
X222192914Y-73038095D01*
X222192914Y-73038095D02*
X222288152Y-73085714D01*
X222288152Y-73085714D02*
X222335771Y-73133333D01*
X222335771Y-73133333D02*
X222383390Y-73228571D01*
X222383390Y-73228571D02*
X222383390Y-73419047D01*
X222383390Y-73419047D02*
X222431009Y-73514285D01*
X222431009Y-73514285D02*
X222478628Y-73561904D01*
X222478628Y-73561904D02*
X222573866Y-73609523D01*
X222573866Y-73609523D02*
X222764342Y-73609523D01*
X222764342Y-73609523D02*
X222859580Y-73561904D01*
X222859580Y-73561904D02*
X222907200Y-73514285D01*
X222907200Y-73514285D02*
X222954819Y-73419047D01*
X222954819Y-73419047D02*
X222954819Y-73228571D01*
X222954819Y-73228571D02*
X222907200Y-73133333D01*
X222907200Y-73133333D02*
X222859580Y-73085714D01*
X222859580Y-73085714D02*
X222764342Y-73038095D01*
X222764342Y-73038095D02*
X222573866Y-73038095D01*
X222573866Y-73038095D02*
X222478628Y-73085714D01*
X222478628Y-73085714D02*
X222431009Y-73133333D01*
X222431009Y-73133333D02*
X222383390Y-73228571D01*
X201734580Y-87267857D02*
X201782200Y-87315476D01*
X201782200Y-87315476D02*
X201829819Y-87458333D01*
X201829819Y-87458333D02*
X201829819Y-87553571D01*
X201829819Y-87553571D02*
X201782200Y-87696428D01*
X201782200Y-87696428D02*
X201686961Y-87791666D01*
X201686961Y-87791666D02*
X201591723Y-87839285D01*
X201591723Y-87839285D02*
X201401247Y-87886904D01*
X201401247Y-87886904D02*
X201258390Y-87886904D01*
X201258390Y-87886904D02*
X201067914Y-87839285D01*
X201067914Y-87839285D02*
X200972676Y-87791666D01*
X200972676Y-87791666D02*
X200877438Y-87696428D01*
X200877438Y-87696428D02*
X200829819Y-87553571D01*
X200829819Y-87553571D02*
X200829819Y-87458333D01*
X200829819Y-87458333D02*
X200877438Y-87315476D01*
X200877438Y-87315476D02*
X200925057Y-87267857D01*
X201829819Y-86315476D02*
X201829819Y-86886904D01*
X201829819Y-86601190D02*
X200829819Y-86601190D01*
X200829819Y-86601190D02*
X200972676Y-86696428D01*
X200972676Y-86696428D02*
X201067914Y-86791666D01*
X201067914Y-86791666D02*
X201115533Y-86886904D01*
X200829819Y-85696428D02*
X200829819Y-85601190D01*
X200829819Y-85601190D02*
X200877438Y-85505952D01*
X200877438Y-85505952D02*
X200925057Y-85458333D01*
X200925057Y-85458333D02*
X201020295Y-85410714D01*
X201020295Y-85410714D02*
X201210771Y-85363095D01*
X201210771Y-85363095D02*
X201448866Y-85363095D01*
X201448866Y-85363095D02*
X201639342Y-85410714D01*
X201639342Y-85410714D02*
X201734580Y-85458333D01*
X201734580Y-85458333D02*
X201782200Y-85505952D01*
X201782200Y-85505952D02*
X201829819Y-85601190D01*
X201829819Y-85601190D02*
X201829819Y-85696428D01*
X201829819Y-85696428D02*
X201782200Y-85791666D01*
X201782200Y-85791666D02*
X201734580Y-85839285D01*
X201734580Y-85839285D02*
X201639342Y-85886904D01*
X201639342Y-85886904D02*
X201448866Y-85934523D01*
X201448866Y-85934523D02*
X201210771Y-85934523D01*
X201210771Y-85934523D02*
X201020295Y-85886904D01*
X201020295Y-85886904D02*
X200925057Y-85839285D01*
X200925057Y-85839285D02*
X200877438Y-85791666D01*
X200877438Y-85791666D02*
X200829819Y-85696428D01*
X214729580Y-79466666D02*
X214777200Y-79514285D01*
X214777200Y-79514285D02*
X214824819Y-79657142D01*
X214824819Y-79657142D02*
X214824819Y-79752380D01*
X214824819Y-79752380D02*
X214777200Y-79895237D01*
X214777200Y-79895237D02*
X214681961Y-79990475D01*
X214681961Y-79990475D02*
X214586723Y-80038094D01*
X214586723Y-80038094D02*
X214396247Y-80085713D01*
X214396247Y-80085713D02*
X214253390Y-80085713D01*
X214253390Y-80085713D02*
X214062914Y-80038094D01*
X214062914Y-80038094D02*
X213967676Y-79990475D01*
X213967676Y-79990475D02*
X213872438Y-79895237D01*
X213872438Y-79895237D02*
X213824819Y-79752380D01*
X213824819Y-79752380D02*
X213824819Y-79657142D01*
X213824819Y-79657142D02*
X213872438Y-79514285D01*
X213872438Y-79514285D02*
X213920057Y-79466666D01*
X214253390Y-78895237D02*
X214205771Y-78990475D01*
X214205771Y-78990475D02*
X214158152Y-79038094D01*
X214158152Y-79038094D02*
X214062914Y-79085713D01*
X214062914Y-79085713D02*
X214015295Y-79085713D01*
X214015295Y-79085713D02*
X213920057Y-79038094D01*
X213920057Y-79038094D02*
X213872438Y-78990475D01*
X213872438Y-78990475D02*
X213824819Y-78895237D01*
X213824819Y-78895237D02*
X213824819Y-78704761D01*
X213824819Y-78704761D02*
X213872438Y-78609523D01*
X213872438Y-78609523D02*
X213920057Y-78561904D01*
X213920057Y-78561904D02*
X214015295Y-78514285D01*
X214015295Y-78514285D02*
X214062914Y-78514285D01*
X214062914Y-78514285D02*
X214158152Y-78561904D01*
X214158152Y-78561904D02*
X214205771Y-78609523D01*
X214205771Y-78609523D02*
X214253390Y-78704761D01*
X214253390Y-78704761D02*
X214253390Y-78895237D01*
X214253390Y-78895237D02*
X214301009Y-78990475D01*
X214301009Y-78990475D02*
X214348628Y-79038094D01*
X214348628Y-79038094D02*
X214443866Y-79085713D01*
X214443866Y-79085713D02*
X214634342Y-79085713D01*
X214634342Y-79085713D02*
X214729580Y-79038094D01*
X214729580Y-79038094D02*
X214777200Y-78990475D01*
X214777200Y-78990475D02*
X214824819Y-78895237D01*
X214824819Y-78895237D02*
X214824819Y-78704761D01*
X214824819Y-78704761D02*
X214777200Y-78609523D01*
X214777200Y-78609523D02*
X214729580Y-78561904D01*
X214729580Y-78561904D02*
X214634342Y-78514285D01*
X214634342Y-78514285D02*
X214443866Y-78514285D01*
X214443866Y-78514285D02*
X214348628Y-78561904D01*
X214348628Y-78561904D02*
X214301009Y-78609523D01*
X214301009Y-78609523D02*
X214253390Y-78704761D01*
X204575595Y-82604819D02*
X204575595Y-83414342D01*
X204575595Y-83414342D02*
X204623214Y-83509580D01*
X204623214Y-83509580D02*
X204670833Y-83557200D01*
X204670833Y-83557200D02*
X204766071Y-83604819D01*
X204766071Y-83604819D02*
X204956547Y-83604819D01*
X204956547Y-83604819D02*
X205051785Y-83557200D01*
X205051785Y-83557200D02*
X205099404Y-83509580D01*
X205099404Y-83509580D02*
X205147023Y-83414342D01*
X205147023Y-83414342D02*
X205147023Y-82604819D01*
X205575595Y-82700057D02*
X205623214Y-82652438D01*
X205623214Y-82652438D02*
X205718452Y-82604819D01*
X205718452Y-82604819D02*
X205956547Y-82604819D01*
X205956547Y-82604819D02*
X206051785Y-82652438D01*
X206051785Y-82652438D02*
X206099404Y-82700057D01*
X206099404Y-82700057D02*
X206147023Y-82795295D01*
X206147023Y-82795295D02*
X206147023Y-82890533D01*
X206147023Y-82890533D02*
X206099404Y-83033390D01*
X206099404Y-83033390D02*
X205527976Y-83604819D01*
X205527976Y-83604819D02*
X206147023Y-83604819D01*
X215629580Y-48696666D02*
X215677200Y-48744285D01*
X215677200Y-48744285D02*
X215724819Y-48887142D01*
X215724819Y-48887142D02*
X215724819Y-48982380D01*
X215724819Y-48982380D02*
X215677200Y-49125237D01*
X215677200Y-49125237D02*
X215581961Y-49220475D01*
X215581961Y-49220475D02*
X215486723Y-49268094D01*
X215486723Y-49268094D02*
X215296247Y-49315713D01*
X215296247Y-49315713D02*
X215153390Y-49315713D01*
X215153390Y-49315713D02*
X214962914Y-49268094D01*
X214962914Y-49268094D02*
X214867676Y-49220475D01*
X214867676Y-49220475D02*
X214772438Y-49125237D01*
X214772438Y-49125237D02*
X214724819Y-48982380D01*
X214724819Y-48982380D02*
X214724819Y-48887142D01*
X214724819Y-48887142D02*
X214772438Y-48744285D01*
X214772438Y-48744285D02*
X214820057Y-48696666D01*
X215724819Y-47744285D02*
X215724819Y-48315713D01*
X215724819Y-48029999D02*
X214724819Y-48029999D01*
X214724819Y-48029999D02*
X214867676Y-48125237D01*
X214867676Y-48125237D02*
X214962914Y-48220475D01*
X214962914Y-48220475D02*
X215010533Y-48315713D01*
X219583333Y-77704819D02*
X219250000Y-77228628D01*
X219011905Y-77704819D02*
X219011905Y-76704819D01*
X219011905Y-76704819D02*
X219392857Y-76704819D01*
X219392857Y-76704819D02*
X219488095Y-76752438D01*
X219488095Y-76752438D02*
X219535714Y-76800057D01*
X219535714Y-76800057D02*
X219583333Y-76895295D01*
X219583333Y-76895295D02*
X219583333Y-77038152D01*
X219583333Y-77038152D02*
X219535714Y-77133390D01*
X219535714Y-77133390D02*
X219488095Y-77181009D01*
X219488095Y-77181009D02*
X219392857Y-77228628D01*
X219392857Y-77228628D02*
X219011905Y-77228628D01*
X220440476Y-77038152D02*
X220440476Y-77704819D01*
X220202381Y-76657200D02*
X219964286Y-77371485D01*
X219964286Y-77371485D02*
X220583333Y-77371485D01*
X217497142Y-62229580D02*
X217449523Y-62277200D01*
X217449523Y-62277200D02*
X217306666Y-62324819D01*
X217306666Y-62324819D02*
X217211428Y-62324819D01*
X217211428Y-62324819D02*
X217068571Y-62277200D01*
X217068571Y-62277200D02*
X216973333Y-62181961D01*
X216973333Y-62181961D02*
X216925714Y-62086723D01*
X216925714Y-62086723D02*
X216878095Y-61896247D01*
X216878095Y-61896247D02*
X216878095Y-61753390D01*
X216878095Y-61753390D02*
X216925714Y-61562914D01*
X216925714Y-61562914D02*
X216973333Y-61467676D01*
X216973333Y-61467676D02*
X217068571Y-61372438D01*
X217068571Y-61372438D02*
X217211428Y-61324819D01*
X217211428Y-61324819D02*
X217306666Y-61324819D01*
X217306666Y-61324819D02*
X217449523Y-61372438D01*
X217449523Y-61372438D02*
X217497142Y-61420057D01*
X218449523Y-62324819D02*
X217878095Y-62324819D01*
X218163809Y-62324819D02*
X218163809Y-61324819D01*
X218163809Y-61324819D02*
X218068571Y-61467676D01*
X218068571Y-61467676D02*
X217973333Y-61562914D01*
X217973333Y-61562914D02*
X217878095Y-61610533D01*
X218782857Y-61324819D02*
X219401904Y-61324819D01*
X219401904Y-61324819D02*
X219068571Y-61705771D01*
X219068571Y-61705771D02*
X219211428Y-61705771D01*
X219211428Y-61705771D02*
X219306666Y-61753390D01*
X219306666Y-61753390D02*
X219354285Y-61801009D01*
X219354285Y-61801009D02*
X219401904Y-61896247D01*
X219401904Y-61896247D02*
X219401904Y-62134342D01*
X219401904Y-62134342D02*
X219354285Y-62229580D01*
X219354285Y-62229580D02*
X219306666Y-62277200D01*
X219306666Y-62277200D02*
X219211428Y-62324819D01*
X219211428Y-62324819D02*
X218925714Y-62324819D01*
X218925714Y-62324819D02*
X218830476Y-62277200D01*
X218830476Y-62277200D02*
X218782857Y-62229580D01*
X210298095Y-55619819D02*
X210298095Y-56429342D01*
X210298095Y-56429342D02*
X210345714Y-56524580D01*
X210345714Y-56524580D02*
X210393333Y-56572200D01*
X210393333Y-56572200D02*
X210488571Y-56619819D01*
X210488571Y-56619819D02*
X210679047Y-56619819D01*
X210679047Y-56619819D02*
X210774285Y-56572200D01*
X210774285Y-56572200D02*
X210821904Y-56524580D01*
X210821904Y-56524580D02*
X210869523Y-56429342D01*
X210869523Y-56429342D02*
X210869523Y-55619819D01*
X211869523Y-56619819D02*
X211298095Y-56619819D01*
X211583809Y-56619819D02*
X211583809Y-55619819D01*
X211583809Y-55619819D02*
X211488571Y-55762676D01*
X211488571Y-55762676D02*
X211393333Y-55857914D01*
X211393333Y-55857914D02*
X211298095Y-55905533D01*
X222859580Y-72167857D02*
X222907200Y-72215476D01*
X222907200Y-72215476D02*
X222954819Y-72358333D01*
X222954819Y-72358333D02*
X222954819Y-72453571D01*
X222954819Y-72453571D02*
X222907200Y-72596428D01*
X222907200Y-72596428D02*
X222811961Y-72691666D01*
X222811961Y-72691666D02*
X222716723Y-72739285D01*
X222716723Y-72739285D02*
X222526247Y-72786904D01*
X222526247Y-72786904D02*
X222383390Y-72786904D01*
X222383390Y-72786904D02*
X222192914Y-72739285D01*
X222192914Y-72739285D02*
X222097676Y-72691666D01*
X222097676Y-72691666D02*
X222002438Y-72596428D01*
X222002438Y-72596428D02*
X221954819Y-72453571D01*
X221954819Y-72453571D02*
X221954819Y-72358333D01*
X221954819Y-72358333D02*
X222002438Y-72215476D01*
X222002438Y-72215476D02*
X222050057Y-72167857D01*
X222954819Y-71215476D02*
X222954819Y-71786904D01*
X222954819Y-71501190D02*
X221954819Y-71501190D01*
X221954819Y-71501190D02*
X222097676Y-71596428D01*
X222097676Y-71596428D02*
X222192914Y-71691666D01*
X222192914Y-71691666D02*
X222240533Y-71786904D01*
X221954819Y-70882142D02*
X221954819Y-70215476D01*
X221954819Y-70215476D02*
X222954819Y-70644047D01*
X218477142Y-65854580D02*
X218429523Y-65902200D01*
X218429523Y-65902200D02*
X218286666Y-65949819D01*
X218286666Y-65949819D02*
X218191428Y-65949819D01*
X218191428Y-65949819D02*
X218048571Y-65902200D01*
X218048571Y-65902200D02*
X217953333Y-65806961D01*
X217953333Y-65806961D02*
X217905714Y-65711723D01*
X217905714Y-65711723D02*
X217858095Y-65521247D01*
X217858095Y-65521247D02*
X217858095Y-65378390D01*
X217858095Y-65378390D02*
X217905714Y-65187914D01*
X217905714Y-65187914D02*
X217953333Y-65092676D01*
X217953333Y-65092676D02*
X218048571Y-64997438D01*
X218048571Y-64997438D02*
X218191428Y-64949819D01*
X218191428Y-64949819D02*
X218286666Y-64949819D01*
X218286666Y-64949819D02*
X218429523Y-64997438D01*
X218429523Y-64997438D02*
X218477142Y-65045057D01*
X218858095Y-65045057D02*
X218905714Y-64997438D01*
X218905714Y-64997438D02*
X219000952Y-64949819D01*
X219000952Y-64949819D02*
X219239047Y-64949819D01*
X219239047Y-64949819D02*
X219334285Y-64997438D01*
X219334285Y-64997438D02*
X219381904Y-65045057D01*
X219381904Y-65045057D02*
X219429523Y-65140295D01*
X219429523Y-65140295D02*
X219429523Y-65235533D01*
X219429523Y-65235533D02*
X219381904Y-65378390D01*
X219381904Y-65378390D02*
X218810476Y-65949819D01*
X218810476Y-65949819D02*
X219429523Y-65949819D01*
X219762857Y-64949819D02*
X220381904Y-64949819D01*
X220381904Y-64949819D02*
X220048571Y-65330771D01*
X220048571Y-65330771D02*
X220191428Y-65330771D01*
X220191428Y-65330771D02*
X220286666Y-65378390D01*
X220286666Y-65378390D02*
X220334285Y-65426009D01*
X220334285Y-65426009D02*
X220381904Y-65521247D01*
X220381904Y-65521247D02*
X220381904Y-65759342D01*
X220381904Y-65759342D02*
X220334285Y-65854580D01*
X220334285Y-65854580D02*
X220286666Y-65902200D01*
X220286666Y-65902200D02*
X220191428Y-65949819D01*
X220191428Y-65949819D02*
X219905714Y-65949819D01*
X219905714Y-65949819D02*
X219810476Y-65902200D01*
X219810476Y-65902200D02*
X219762857Y-65854580D01*
X230384819Y-54341666D02*
X229908628Y-54674999D01*
X230384819Y-54913094D02*
X229384819Y-54913094D01*
X229384819Y-54913094D02*
X229384819Y-54532142D01*
X229384819Y-54532142D02*
X229432438Y-54436904D01*
X229432438Y-54436904D02*
X229480057Y-54389285D01*
X229480057Y-54389285D02*
X229575295Y-54341666D01*
X229575295Y-54341666D02*
X229718152Y-54341666D01*
X229718152Y-54341666D02*
X229813390Y-54389285D01*
X229813390Y-54389285D02*
X229861009Y-54436904D01*
X229861009Y-54436904D02*
X229908628Y-54532142D01*
X229908628Y-54532142D02*
X229908628Y-54913094D01*
X229384819Y-53484523D02*
X229384819Y-53674999D01*
X229384819Y-53674999D02*
X229432438Y-53770237D01*
X229432438Y-53770237D02*
X229480057Y-53817856D01*
X229480057Y-53817856D02*
X229622914Y-53913094D01*
X229622914Y-53913094D02*
X229813390Y-53960713D01*
X229813390Y-53960713D02*
X230194342Y-53960713D01*
X230194342Y-53960713D02*
X230289580Y-53913094D01*
X230289580Y-53913094D02*
X230337200Y-53865475D01*
X230337200Y-53865475D02*
X230384819Y-53770237D01*
X230384819Y-53770237D02*
X230384819Y-53579761D01*
X230384819Y-53579761D02*
X230337200Y-53484523D01*
X230337200Y-53484523D02*
X230289580Y-53436904D01*
X230289580Y-53436904D02*
X230194342Y-53389285D01*
X230194342Y-53389285D02*
X229956247Y-53389285D01*
X229956247Y-53389285D02*
X229861009Y-53436904D01*
X229861009Y-53436904D02*
X229813390Y-53484523D01*
X229813390Y-53484523D02*
X229765771Y-53579761D01*
X229765771Y-53579761D02*
X229765771Y-53770237D01*
X229765771Y-53770237D02*
X229813390Y-53865475D01*
X229813390Y-53865475D02*
X229861009Y-53913094D01*
X229861009Y-53913094D02*
X229956247Y-53960713D01*
X214866667Y-70907200D02*
X215009524Y-70954819D01*
X215009524Y-70954819D02*
X215247619Y-70954819D01*
X215247619Y-70954819D02*
X215342857Y-70907200D01*
X215342857Y-70907200D02*
X215390476Y-70859580D01*
X215390476Y-70859580D02*
X215438095Y-70764342D01*
X215438095Y-70764342D02*
X215438095Y-70669104D01*
X215438095Y-70669104D02*
X215390476Y-70573866D01*
X215390476Y-70573866D02*
X215342857Y-70526247D01*
X215342857Y-70526247D02*
X215247619Y-70478628D01*
X215247619Y-70478628D02*
X215057143Y-70431009D01*
X215057143Y-70431009D02*
X214961905Y-70383390D01*
X214961905Y-70383390D02*
X214914286Y-70335771D01*
X214914286Y-70335771D02*
X214866667Y-70240533D01*
X214866667Y-70240533D02*
X214866667Y-70145295D01*
X214866667Y-70145295D02*
X214914286Y-70050057D01*
X214914286Y-70050057D02*
X214961905Y-70002438D01*
X214961905Y-70002438D02*
X215057143Y-69954819D01*
X215057143Y-69954819D02*
X215295238Y-69954819D01*
X215295238Y-69954819D02*
X215438095Y-70002438D01*
X215771429Y-69954819D02*
X216009524Y-70954819D01*
X216009524Y-70954819D02*
X216200000Y-70240533D01*
X216200000Y-70240533D02*
X216390476Y-70954819D01*
X216390476Y-70954819D02*
X216628572Y-69954819D01*
X216961905Y-70050057D02*
X217009524Y-70002438D01*
X217009524Y-70002438D02*
X217104762Y-69954819D01*
X217104762Y-69954819D02*
X217342857Y-69954819D01*
X217342857Y-69954819D02*
X217438095Y-70002438D01*
X217438095Y-70002438D02*
X217485714Y-70050057D01*
X217485714Y-70050057D02*
X217533333Y-70145295D01*
X217533333Y-70145295D02*
X217533333Y-70240533D01*
X217533333Y-70240533D02*
X217485714Y-70383390D01*
X217485714Y-70383390D02*
X216914286Y-70954819D01*
X216914286Y-70954819D02*
X217533333Y-70954819D01*
X208625595Y-84629819D02*
X208625595Y-85439342D01*
X208625595Y-85439342D02*
X208673214Y-85534580D01*
X208673214Y-85534580D02*
X208720833Y-85582200D01*
X208720833Y-85582200D02*
X208816071Y-85629819D01*
X208816071Y-85629819D02*
X209006547Y-85629819D01*
X209006547Y-85629819D02*
X209101785Y-85582200D01*
X209101785Y-85582200D02*
X209149404Y-85534580D01*
X209149404Y-85534580D02*
X209197023Y-85439342D01*
X209197023Y-85439342D02*
X209197023Y-84629819D01*
X210101785Y-84963152D02*
X210101785Y-85629819D01*
X209863690Y-84582200D02*
X209625595Y-85296485D01*
X209625595Y-85296485D02*
X210244642Y-85296485D01*
X217083333Y-89009819D02*
X216607143Y-89009819D01*
X216607143Y-89009819D02*
X216607143Y-88009819D01*
X217369048Y-88105057D02*
X217416667Y-88057438D01*
X217416667Y-88057438D02*
X217511905Y-88009819D01*
X217511905Y-88009819D02*
X217750000Y-88009819D01*
X217750000Y-88009819D02*
X217845238Y-88057438D01*
X217845238Y-88057438D02*
X217892857Y-88105057D01*
X217892857Y-88105057D02*
X217940476Y-88200295D01*
X217940476Y-88200295D02*
X217940476Y-88295533D01*
X217940476Y-88295533D02*
X217892857Y-88438390D01*
X217892857Y-88438390D02*
X217321429Y-89009819D01*
X217321429Y-89009819D02*
X217940476Y-89009819D01*
X199779819Y-84591666D02*
X199779819Y-85067856D01*
X199779819Y-85067856D02*
X198779819Y-85067856D01*
X198779819Y-84353570D02*
X198779819Y-83734523D01*
X198779819Y-83734523D02*
X199160771Y-84067856D01*
X199160771Y-84067856D02*
X199160771Y-83924999D01*
X199160771Y-83924999D02*
X199208390Y-83829761D01*
X199208390Y-83829761D02*
X199256009Y-83782142D01*
X199256009Y-83782142D02*
X199351247Y-83734523D01*
X199351247Y-83734523D02*
X199589342Y-83734523D01*
X199589342Y-83734523D02*
X199684580Y-83782142D01*
X199684580Y-83782142D02*
X199732200Y-83829761D01*
X199732200Y-83829761D02*
X199779819Y-83924999D01*
X199779819Y-83924999D02*
X199779819Y-84210713D01*
X199779819Y-84210713D02*
X199732200Y-84305951D01*
X199732200Y-84305951D02*
X199684580Y-84353570D01*
X209083333Y-71109580D02*
X209035714Y-71157200D01*
X209035714Y-71157200D02*
X208892857Y-71204819D01*
X208892857Y-71204819D02*
X208797619Y-71204819D01*
X208797619Y-71204819D02*
X208654762Y-71157200D01*
X208654762Y-71157200D02*
X208559524Y-71061961D01*
X208559524Y-71061961D02*
X208511905Y-70966723D01*
X208511905Y-70966723D02*
X208464286Y-70776247D01*
X208464286Y-70776247D02*
X208464286Y-70633390D01*
X208464286Y-70633390D02*
X208511905Y-70442914D01*
X208511905Y-70442914D02*
X208559524Y-70347676D01*
X208559524Y-70347676D02*
X208654762Y-70252438D01*
X208654762Y-70252438D02*
X208797619Y-70204819D01*
X208797619Y-70204819D02*
X208892857Y-70204819D01*
X208892857Y-70204819D02*
X209035714Y-70252438D01*
X209035714Y-70252438D02*
X209083333Y-70300057D01*
X209940476Y-70204819D02*
X209750000Y-70204819D01*
X209750000Y-70204819D02*
X209654762Y-70252438D01*
X209654762Y-70252438D02*
X209607143Y-70300057D01*
X209607143Y-70300057D02*
X209511905Y-70442914D01*
X209511905Y-70442914D02*
X209464286Y-70633390D01*
X209464286Y-70633390D02*
X209464286Y-71014342D01*
X209464286Y-71014342D02*
X209511905Y-71109580D01*
X209511905Y-71109580D02*
X209559524Y-71157200D01*
X209559524Y-71157200D02*
X209654762Y-71204819D01*
X209654762Y-71204819D02*
X209845238Y-71204819D01*
X209845238Y-71204819D02*
X209940476Y-71157200D01*
X209940476Y-71157200D02*
X209988095Y-71109580D01*
X209988095Y-71109580D02*
X210035714Y-71014342D01*
X210035714Y-71014342D02*
X210035714Y-70776247D01*
X210035714Y-70776247D02*
X209988095Y-70681009D01*
X209988095Y-70681009D02*
X209940476Y-70633390D01*
X209940476Y-70633390D02*
X209845238Y-70585771D01*
X209845238Y-70585771D02*
X209654762Y-70585771D01*
X209654762Y-70585771D02*
X209559524Y-70633390D01*
X209559524Y-70633390D02*
X209511905Y-70681009D01*
X209511905Y-70681009D02*
X209464286Y-70776247D01*
X202204819Y-75166666D02*
X202204819Y-75642856D01*
X202204819Y-75642856D02*
X201204819Y-75642856D01*
X202204819Y-74309523D02*
X202204819Y-74880951D01*
X202204819Y-74595237D02*
X201204819Y-74595237D01*
X201204819Y-74595237D02*
X201347676Y-74690475D01*
X201347676Y-74690475D02*
X201442914Y-74785713D01*
X201442914Y-74785713D02*
X201490533Y-74880951D01*
X221452142Y-55339580D02*
X221404523Y-55387200D01*
X221404523Y-55387200D02*
X221261666Y-55434819D01*
X221261666Y-55434819D02*
X221166428Y-55434819D01*
X221166428Y-55434819D02*
X221023571Y-55387200D01*
X221023571Y-55387200D02*
X220928333Y-55291961D01*
X220928333Y-55291961D02*
X220880714Y-55196723D01*
X220880714Y-55196723D02*
X220833095Y-55006247D01*
X220833095Y-55006247D02*
X220833095Y-54863390D01*
X220833095Y-54863390D02*
X220880714Y-54672914D01*
X220880714Y-54672914D02*
X220928333Y-54577676D01*
X220928333Y-54577676D02*
X221023571Y-54482438D01*
X221023571Y-54482438D02*
X221166428Y-54434819D01*
X221166428Y-54434819D02*
X221261666Y-54434819D01*
X221261666Y-54434819D02*
X221404523Y-54482438D01*
X221404523Y-54482438D02*
X221452142Y-54530057D01*
X222404523Y-55434819D02*
X221833095Y-55434819D01*
X222118809Y-55434819D02*
X222118809Y-54434819D01*
X222118809Y-54434819D02*
X222023571Y-54577676D01*
X222023571Y-54577676D02*
X221928333Y-54672914D01*
X221928333Y-54672914D02*
X221833095Y-54720533D01*
X223356904Y-55434819D02*
X222785476Y-55434819D01*
X223071190Y-55434819D02*
X223071190Y-54434819D01*
X223071190Y-54434819D02*
X222975952Y-54577676D01*
X222975952Y-54577676D02*
X222880714Y-54672914D01*
X222880714Y-54672914D02*
X222785476Y-54720533D01*
X225754819Y-53916666D02*
X225278628Y-54249999D01*
X225754819Y-54488094D02*
X224754819Y-54488094D01*
X224754819Y-54488094D02*
X224754819Y-54107142D01*
X224754819Y-54107142D02*
X224802438Y-54011904D01*
X224802438Y-54011904D02*
X224850057Y-53964285D01*
X224850057Y-53964285D02*
X224945295Y-53916666D01*
X224945295Y-53916666D02*
X225088152Y-53916666D01*
X225088152Y-53916666D02*
X225183390Y-53964285D01*
X225183390Y-53964285D02*
X225231009Y-54011904D01*
X225231009Y-54011904D02*
X225278628Y-54107142D01*
X225278628Y-54107142D02*
X225278628Y-54488094D01*
X224754819Y-53011904D02*
X224754819Y-53488094D01*
X224754819Y-53488094D02*
X225231009Y-53535713D01*
X225231009Y-53535713D02*
X225183390Y-53488094D01*
X225183390Y-53488094D02*
X225135771Y-53392856D01*
X225135771Y-53392856D02*
X225135771Y-53154761D01*
X225135771Y-53154761D02*
X225183390Y-53059523D01*
X225183390Y-53059523D02*
X225231009Y-53011904D01*
X225231009Y-53011904D02*
X225326247Y-52964285D01*
X225326247Y-52964285D02*
X225564342Y-52964285D01*
X225564342Y-52964285D02*
X225659580Y-53011904D01*
X225659580Y-53011904D02*
X225707200Y-53059523D01*
X225707200Y-53059523D02*
X225754819Y-53154761D01*
X225754819Y-53154761D02*
X225754819Y-53392856D01*
X225754819Y-53392856D02*
X225707200Y-53488094D01*
X225707200Y-53488094D02*
X225659580Y-53535713D01*
X212583333Y-87684580D02*
X212535714Y-87732200D01*
X212535714Y-87732200D02*
X212392857Y-87779819D01*
X212392857Y-87779819D02*
X212297619Y-87779819D01*
X212297619Y-87779819D02*
X212154762Y-87732200D01*
X212154762Y-87732200D02*
X212059524Y-87636961D01*
X212059524Y-87636961D02*
X212011905Y-87541723D01*
X212011905Y-87541723D02*
X211964286Y-87351247D01*
X211964286Y-87351247D02*
X211964286Y-87208390D01*
X211964286Y-87208390D02*
X212011905Y-87017914D01*
X212011905Y-87017914D02*
X212059524Y-86922676D01*
X212059524Y-86922676D02*
X212154762Y-86827438D01*
X212154762Y-86827438D02*
X212297619Y-86779819D01*
X212297619Y-86779819D02*
X212392857Y-86779819D01*
X212392857Y-86779819D02*
X212535714Y-86827438D01*
X212535714Y-86827438D02*
X212583333Y-86875057D01*
X212964286Y-86875057D02*
X213011905Y-86827438D01*
X213011905Y-86827438D02*
X213107143Y-86779819D01*
X213107143Y-86779819D02*
X213345238Y-86779819D01*
X213345238Y-86779819D02*
X213440476Y-86827438D01*
X213440476Y-86827438D02*
X213488095Y-86875057D01*
X213488095Y-86875057D02*
X213535714Y-86970295D01*
X213535714Y-86970295D02*
X213535714Y-87065533D01*
X213535714Y-87065533D02*
X213488095Y-87208390D01*
X213488095Y-87208390D02*
X212916667Y-87779819D01*
X212916667Y-87779819D02*
X213535714Y-87779819D01*
X211933333Y-63704819D02*
X211600000Y-63228628D01*
X211361905Y-63704819D02*
X211361905Y-62704819D01*
X211361905Y-62704819D02*
X211742857Y-62704819D01*
X211742857Y-62704819D02*
X211838095Y-62752438D01*
X211838095Y-62752438D02*
X211885714Y-62800057D01*
X211885714Y-62800057D02*
X211933333Y-62895295D01*
X211933333Y-62895295D02*
X211933333Y-63038152D01*
X211933333Y-63038152D02*
X211885714Y-63133390D01*
X211885714Y-63133390D02*
X211838095Y-63181009D01*
X211838095Y-63181009D02*
X211742857Y-63228628D01*
X211742857Y-63228628D02*
X211361905Y-63228628D01*
X212266667Y-62704819D02*
X212885714Y-62704819D01*
X212885714Y-62704819D02*
X212552381Y-63085771D01*
X212552381Y-63085771D02*
X212695238Y-63085771D01*
X212695238Y-63085771D02*
X212790476Y-63133390D01*
X212790476Y-63133390D02*
X212838095Y-63181009D01*
X212838095Y-63181009D02*
X212885714Y-63276247D01*
X212885714Y-63276247D02*
X212885714Y-63514342D01*
X212885714Y-63514342D02*
X212838095Y-63609580D01*
X212838095Y-63609580D02*
X212790476Y-63657200D01*
X212790476Y-63657200D02*
X212695238Y-63704819D01*
X212695238Y-63704819D02*
X212409524Y-63704819D01*
X212409524Y-63704819D02*
X212314286Y-63657200D01*
X212314286Y-63657200D02*
X212266667Y-63609580D01*
X235949819Y-82783333D02*
X236664104Y-82783333D01*
X236664104Y-82783333D02*
X236806961Y-82830952D01*
X236806961Y-82830952D02*
X236902200Y-82926190D01*
X236902200Y-82926190D02*
X236949819Y-83069047D01*
X236949819Y-83069047D02*
X236949819Y-83164285D01*
X235949819Y-82402380D02*
X235949819Y-81783333D01*
X235949819Y-81783333D02*
X236330771Y-82116666D01*
X236330771Y-82116666D02*
X236330771Y-81973809D01*
X236330771Y-81973809D02*
X236378390Y-81878571D01*
X236378390Y-81878571D02*
X236426009Y-81830952D01*
X236426009Y-81830952D02*
X236521247Y-81783333D01*
X236521247Y-81783333D02*
X236759342Y-81783333D01*
X236759342Y-81783333D02*
X236854580Y-81830952D01*
X236854580Y-81830952D02*
X236902200Y-81878571D01*
X236902200Y-81878571D02*
X236949819Y-81973809D01*
X236949819Y-81973809D02*
X236949819Y-82259523D01*
X236949819Y-82259523D02*
X236902200Y-82354761D01*
X236902200Y-82354761D02*
X236854580Y-82402380D01*
X207686009Y-85238095D02*
X207686009Y-85571428D01*
X208209819Y-85571428D02*
X207209819Y-85571428D01*
X207209819Y-85571428D02*
X207209819Y-85095238D01*
X208209819Y-84238095D02*
X208209819Y-84714285D01*
X208209819Y-84714285D02*
X207209819Y-84714285D01*
X208209819Y-83380952D02*
X208209819Y-83952380D01*
X208209819Y-83666666D02*
X207209819Y-83666666D01*
X207209819Y-83666666D02*
X207352676Y-83761904D01*
X207352676Y-83761904D02*
X207447914Y-83857142D01*
X207447914Y-83857142D02*
X207495533Y-83952380D01*
X222609580Y-66691666D02*
X222657200Y-66739285D01*
X222657200Y-66739285D02*
X222704819Y-66882142D01*
X222704819Y-66882142D02*
X222704819Y-66977380D01*
X222704819Y-66977380D02*
X222657200Y-67120237D01*
X222657200Y-67120237D02*
X222561961Y-67215475D01*
X222561961Y-67215475D02*
X222466723Y-67263094D01*
X222466723Y-67263094D02*
X222276247Y-67310713D01*
X222276247Y-67310713D02*
X222133390Y-67310713D01*
X222133390Y-67310713D02*
X221942914Y-67263094D01*
X221942914Y-67263094D02*
X221847676Y-67215475D01*
X221847676Y-67215475D02*
X221752438Y-67120237D01*
X221752438Y-67120237D02*
X221704819Y-66977380D01*
X221704819Y-66977380D02*
X221704819Y-66882142D01*
X221704819Y-66882142D02*
X221752438Y-66739285D01*
X221752438Y-66739285D02*
X221800057Y-66691666D01*
X222704819Y-66215475D02*
X222704819Y-66024999D01*
X222704819Y-66024999D02*
X222657200Y-65929761D01*
X222657200Y-65929761D02*
X222609580Y-65882142D01*
X222609580Y-65882142D02*
X222466723Y-65786904D01*
X222466723Y-65786904D02*
X222276247Y-65739285D01*
X222276247Y-65739285D02*
X221895295Y-65739285D01*
X221895295Y-65739285D02*
X221800057Y-65786904D01*
X221800057Y-65786904D02*
X221752438Y-65834523D01*
X221752438Y-65834523D02*
X221704819Y-65929761D01*
X221704819Y-65929761D02*
X221704819Y-66120237D01*
X221704819Y-66120237D02*
X221752438Y-66215475D01*
X221752438Y-66215475D02*
X221800057Y-66263094D01*
X221800057Y-66263094D02*
X221895295Y-66310713D01*
X221895295Y-66310713D02*
X222133390Y-66310713D01*
X222133390Y-66310713D02*
X222228628Y-66263094D01*
X222228628Y-66263094D02*
X222276247Y-66215475D01*
X222276247Y-66215475D02*
X222323866Y-66120237D01*
X222323866Y-66120237D02*
X222323866Y-65929761D01*
X222323866Y-65929761D02*
X222276247Y-65834523D01*
X222276247Y-65834523D02*
X222228628Y-65786904D01*
X222228628Y-65786904D02*
X222133390Y-65739285D01*
X216923809Y-54728628D02*
X216923809Y-55204819D01*
X216590476Y-54204819D02*
X216923809Y-54728628D01*
X216923809Y-54728628D02*
X217257142Y-54204819D01*
X217542857Y-54300057D02*
X217590476Y-54252438D01*
X217590476Y-54252438D02*
X217685714Y-54204819D01*
X217685714Y-54204819D02*
X217923809Y-54204819D01*
X217923809Y-54204819D02*
X218019047Y-54252438D01*
X218019047Y-54252438D02*
X218066666Y-54300057D01*
X218066666Y-54300057D02*
X218114285Y-54395295D01*
X218114285Y-54395295D02*
X218114285Y-54490533D01*
X218114285Y-54490533D02*
X218066666Y-54633390D01*
X218066666Y-54633390D02*
X217495238Y-55204819D01*
X217495238Y-55204819D02*
X218114285Y-55204819D01*
X212952142Y-66034580D02*
X212904523Y-66082200D01*
X212904523Y-66082200D02*
X212761666Y-66129819D01*
X212761666Y-66129819D02*
X212666428Y-66129819D01*
X212666428Y-66129819D02*
X212523571Y-66082200D01*
X212523571Y-66082200D02*
X212428333Y-65986961D01*
X212428333Y-65986961D02*
X212380714Y-65891723D01*
X212380714Y-65891723D02*
X212333095Y-65701247D01*
X212333095Y-65701247D02*
X212333095Y-65558390D01*
X212333095Y-65558390D02*
X212380714Y-65367914D01*
X212380714Y-65367914D02*
X212428333Y-65272676D01*
X212428333Y-65272676D02*
X212523571Y-65177438D01*
X212523571Y-65177438D02*
X212666428Y-65129819D01*
X212666428Y-65129819D02*
X212761666Y-65129819D01*
X212761666Y-65129819D02*
X212904523Y-65177438D01*
X212904523Y-65177438D02*
X212952142Y-65225057D01*
X213333095Y-65225057D02*
X213380714Y-65177438D01*
X213380714Y-65177438D02*
X213475952Y-65129819D01*
X213475952Y-65129819D02*
X213714047Y-65129819D01*
X213714047Y-65129819D02*
X213809285Y-65177438D01*
X213809285Y-65177438D02*
X213856904Y-65225057D01*
X213856904Y-65225057D02*
X213904523Y-65320295D01*
X213904523Y-65320295D02*
X213904523Y-65415533D01*
X213904523Y-65415533D02*
X213856904Y-65558390D01*
X213856904Y-65558390D02*
X213285476Y-66129819D01*
X213285476Y-66129819D02*
X213904523Y-66129819D01*
X214856904Y-66129819D02*
X214285476Y-66129819D01*
X214571190Y-66129819D02*
X214571190Y-65129819D01*
X214571190Y-65129819D02*
X214475952Y-65272676D01*
X214475952Y-65272676D02*
X214380714Y-65367914D01*
X214380714Y-65367914D02*
X214285476Y-65415533D01*
%TO.C,Y1*%
D11*
X206790000Y-71340000D02*
X206790000Y-75960000D01*
X206790000Y-75960000D02*
X212310000Y-75960000D01*
%TO.C,C4*%
X214490000Y-87709420D02*
X214490000Y-87990580D01*
X215510000Y-87709420D02*
X215510000Y-87990580D01*
%TO.C,C14*%
X218499420Y-62860000D02*
X218780580Y-62860000D01*
X218499420Y-63880000D02*
X218780580Y-63880000D01*
%TO.C,C12*%
X214945580Y-60460000D02*
X214664420Y-60460000D01*
X214945580Y-61480000D02*
X214664420Y-61480000D01*
%TO.C,R8*%
X217287258Y-52402500D02*
X216812742Y-52402500D01*
X217287258Y-53447500D02*
X216812742Y-53447500D01*
%TO.C,boot*%
X230070000Y-43875000D02*
X230070000Y-44175000D01*
X230070000Y-46675000D02*
X230070000Y-46375000D01*
X233370000Y-43875000D02*
X230070000Y-43875000D01*
X233370000Y-44175000D02*
X233370000Y-43875000D01*
X233370000Y-46375000D02*
X233370000Y-46675000D01*
X233370000Y-46675000D02*
X230070000Y-46675000D01*
%TO.C,R1K*%
X227762258Y-45902500D02*
X227287742Y-45902500D01*
X227762258Y-46947500D02*
X227287742Y-46947500D01*
%TO.C,USB-C_RECEPTACLE*%
X215755000Y-43550000D02*
X215755000Y-41650000D01*
X215755000Y-47450000D02*
X215755000Y-45450000D01*
X225155000Y-41650000D02*
X215755000Y-41650000D01*
X225155000Y-43550000D02*
X225155000Y-41650000D01*
X225155000Y-47450000D02*
X225155000Y-45450000D01*
%TO.C,R11*%
X225087742Y-84777500D02*
X225562258Y-84777500D01*
X225087742Y-85822500D02*
X225562258Y-85822500D01*
%TO.C,AE111*%
X219940000Y-85750000D02*
X219940000Y-86390000D01*
X219940000Y-86390000D02*
X219310000Y-86390000D01*
X219940000Y-88550000D02*
X219940000Y-87910000D01*
X222660000Y-85800000D02*
X222660000Y-88500000D01*
%TO.C,U3*%
X205240000Y-47240000D02*
X210760000Y-47240000D01*
X205240000Y-47510000D02*
X205240000Y-47240000D01*
X205240000Y-52760000D02*
X205240000Y-52490000D01*
X210760000Y-47240000D02*
X210760000Y-47510000D01*
X210760000Y-52490000D02*
X210760000Y-52760000D01*
X210760000Y-52760000D02*
X205240000Y-52760000D01*
X204410000Y-47500000D02*
X204070000Y-47030000D01*
X204750000Y-47030000D01*
X204410000Y-47500000D01*
G36*
X204410000Y-47500000D02*
G01*
X204070000Y-47030000D01*
X204750000Y-47030000D01*
X204410000Y-47500000D01*
G37*
%TO.C,C24*%
X226988748Y-65765000D02*
X227511252Y-65765000D01*
X226988748Y-67235000D02*
X227511252Y-67235000D01*
%TO.C,R12*%
X229807258Y-84727500D02*
X229332742Y-84727500D01*
X229807258Y-85772500D02*
X229332742Y-85772500D01*
%TO.C,C22*%
X216454420Y-66415000D02*
X216735580Y-66415000D01*
X216454420Y-67435000D02*
X216735580Y-67435000D01*
%TO.C,C15*%
X221780580Y-62860000D02*
X221499420Y-62860000D01*
X221780580Y-63880000D02*
X221499420Y-63880000D01*
%TO.C,U5*%
X228227500Y-60640000D02*
X230047500Y-60640000D01*
X228227500Y-60690000D02*
X228227500Y-60640000D01*
X228227500Y-63760000D02*
X228227500Y-63710000D01*
X230047500Y-60640000D02*
X230047500Y-60690000D01*
X230047500Y-61810000D02*
X230047500Y-62590000D01*
X230047500Y-63710000D02*
X230047500Y-63760000D01*
X230047500Y-63760000D02*
X228227500Y-63760000D01*
X227687500Y-60690000D02*
X227447500Y-60360000D01*
X227927500Y-60360000D01*
X227687500Y-60690000D01*
G36*
X227687500Y-60690000D02*
G01*
X227447500Y-60360000D01*
X227927500Y-60360000D01*
X227687500Y-60690000D01*
G37*
%TO.C,R7*%
X224182742Y-58567500D02*
X224657258Y-58567500D01*
X224182742Y-59612500D02*
X224657258Y-59612500D01*
%TO.C,LED1*%
X226115000Y-56775000D02*
X226115000Y-59060000D01*
X227585000Y-56775000D02*
X226115000Y-56775000D01*
X227585000Y-59060000D02*
X227585000Y-56775000D01*
%TO.C,C19*%
X207459420Y-66415000D02*
X207740580Y-66415000D01*
X207459420Y-67435000D02*
X207740580Y-67435000D01*
%TO.C,C7*%
X209859420Y-68740000D02*
X210140580Y-68740000D01*
X209859420Y-69760000D02*
X210140580Y-69760000D01*
%TO.C,C5*%
X217465000Y-84990580D02*
X217465000Y-84709420D01*
X218485000Y-84990580D02*
X218485000Y-84709420D01*
%TO.C,C20*%
X210459420Y-66415000D02*
X210740580Y-66415000D01*
X210459420Y-67435000D02*
X210740580Y-67435000D01*
%TO.C,R1*%
X208202500Y-83962742D02*
X208202500Y-84437258D01*
X209247500Y-83962742D02*
X209247500Y-84437258D01*
%TO.C,R9*%
X217287258Y-53877500D02*
X216812742Y-53877500D01*
X217287258Y-54922500D02*
X216812742Y-54922500D01*
%TO.C,R10*%
X203767258Y-45807500D02*
X203292742Y-45807500D01*
X203767258Y-46852500D02*
X203292742Y-46852500D01*
%TO.C,C16*%
X224474420Y-62860000D02*
X224755580Y-62860000D01*
X224474420Y-63880000D02*
X224755580Y-63880000D01*
%TO.C,C25*%
X230438748Y-65765000D02*
X230961252Y-65765000D01*
X230438748Y-67235000D02*
X230961252Y-67235000D01*
%TO.C,C18*%
X223490000Y-70940580D02*
X223490000Y-70659420D01*
X224510000Y-70940580D02*
X224510000Y-70659420D01*
%TO.C,C10*%
X202365000Y-86484420D02*
X202365000Y-86765580D01*
X203385000Y-86484420D02*
X203385000Y-86765580D01*
%TO.C,C8*%
X215290000Y-79440580D02*
X215290000Y-79159420D01*
X216310000Y-79440580D02*
X216310000Y-79159420D01*
%TO.C,U2*%
X203227500Y-77740000D02*
X203702500Y-77740000D01*
X203227500Y-78215000D02*
X203227500Y-77740000D01*
X203227500Y-81960000D02*
X203227500Y-81485000D01*
X203702500Y-81960000D02*
X203227500Y-81960000D01*
X206972500Y-77740000D02*
X207447500Y-77740000D01*
X207447500Y-77740000D02*
X207447500Y-78215000D01*
X207447500Y-81485000D02*
X207447500Y-81960000D01*
X207447500Y-81960000D02*
X206972500Y-81960000D01*
X208277500Y-81340000D02*
X207947500Y-81100000D01*
X208277500Y-80860000D01*
X208277500Y-81340000D01*
G36*
X208277500Y-81340000D02*
G01*
X207947500Y-81100000D01*
X208277500Y-80860000D01*
X208277500Y-81340000D01*
G37*
%TO.C,C1*%
X213330000Y-48389420D02*
X213330000Y-48670580D01*
X214350000Y-48389420D02*
X214350000Y-48670580D01*
%TO.C,R4*%
X219012742Y-77977500D02*
X219487258Y-77977500D01*
X219012742Y-79022500D02*
X219487258Y-79022500D01*
%TO.C,C13*%
X215224420Y-62860000D02*
X215505580Y-62860000D01*
X215224420Y-63880000D02*
X215505580Y-63880000D01*
%TO.C,U1*%
X203840000Y-55840000D02*
X204490000Y-55840000D01*
X203840000Y-56490000D02*
X203840000Y-55840000D01*
X203840000Y-63060000D02*
X203840000Y-62410000D01*
X204490000Y-63060000D02*
X203840000Y-63060000D01*
X210410000Y-55840000D02*
X211060000Y-55840000D01*
X211060000Y-55840000D02*
X211060000Y-56490000D01*
X211060000Y-62410000D02*
X211060000Y-63060000D01*
X211060000Y-63060000D02*
X210410000Y-63060000D01*
X203310000Y-56850000D02*
X202980000Y-57090000D01*
X202980000Y-56610000D01*
X203310000Y-56850000D01*
G36*
X203310000Y-56850000D02*
G01*
X202980000Y-57090000D01*
X202980000Y-56610000D01*
X203310000Y-56850000D01*
G37*
%TO.C,C17*%
X223490000Y-73940580D02*
X223490000Y-73659420D01*
X224510000Y-73940580D02*
X224510000Y-73659420D01*
%TO.C,C23*%
X219454420Y-66415000D02*
X219735580Y-66415000D01*
X219454420Y-67435000D02*
X219735580Y-67435000D01*
%TO.C,R6*%
X227977500Y-53937742D02*
X227977500Y-54412258D01*
X229022500Y-53937742D02*
X229022500Y-54412258D01*
%TO.C,SW2*%
X214550000Y-71600000D02*
X217850000Y-71600000D01*
X214550000Y-71900000D02*
X214550000Y-71600000D01*
X214550000Y-74100000D02*
X214550000Y-74400000D01*
X214550000Y-74400000D02*
X217850000Y-74400000D01*
X217850000Y-71600000D02*
X217850000Y-71900000D01*
X217850000Y-74400000D02*
X217850000Y-74100000D01*
%TO.C,C3*%
X212865580Y-86590000D02*
X212584420Y-86590000D01*
X212865580Y-87610000D02*
X212584420Y-87610000D01*
%TO.C,U4*%
X208788248Y-86015000D02*
X210122500Y-86015000D01*
X210122500Y-88235000D02*
X208652500Y-88235000D01*
X208497500Y-86005000D02*
X208357500Y-85815000D01*
X208637500Y-85815000D01*
X208497500Y-86005000D01*
G36*
X208497500Y-86005000D02*
G01*
X208357500Y-85815000D01*
X208637500Y-85815000D01*
X208497500Y-86005000D01*
G37*
%TO.C,L2*%
X217412779Y-86615000D02*
X217087221Y-86615000D01*
X217412779Y-87635000D02*
X217087221Y-87635000D01*
%TO.C,L3*%
X201425378Y-83615000D02*
X202224622Y-83615000D01*
X201425378Y-84735000D02*
X202224622Y-84735000D01*
%TO.C,C6*%
X206859420Y-68740000D02*
X207140580Y-68740000D01*
X206859420Y-69760000D02*
X207140580Y-69760000D01*
%TO.C,L1*%
X203799721Y-73990000D02*
X204125279Y-73990000D01*
X203799721Y-75010000D02*
X204125279Y-75010000D01*
%TO.C,C11*%
X221954420Y-55900000D02*
X222235580Y-55900000D01*
X221954420Y-56920000D02*
X222235580Y-56920000D01*
%TO.C,R5*%
X226277500Y-53937742D02*
X226277500Y-54412258D01*
X227322500Y-53937742D02*
X227322500Y-54412258D01*
%TO.C,C2*%
X212584420Y-88065000D02*
X212865580Y-88065000D01*
X212584420Y-89085000D02*
X212865580Y-89085000D01*
%TO.C,R3*%
X212287258Y-63977500D02*
X211812742Y-63977500D01*
X212287258Y-65022500D02*
X211812742Y-65022500D01*
%TO.C,J3*%
X224775000Y-81120000D02*
X224775000Y-83780000D01*
X232455000Y-81120000D02*
X224775000Y-81120000D01*
X232455000Y-81120000D02*
X232455000Y-83780000D01*
X232455000Y-83780000D02*
X224775000Y-83780000D01*
X235055000Y-82450000D02*
X235055000Y-83780000D01*
X235055000Y-83780000D02*
X233725000Y-83780000D01*
%TO.C,FL1*%
X204265000Y-84090000D02*
X204265000Y-83765000D01*
X204265000Y-85235000D02*
X204265000Y-84910000D01*
X206585000Y-84089487D02*
X206585000Y-84090000D01*
X206585000Y-84910000D02*
X206585000Y-85235000D01*
X206925000Y-84040000D02*
X206595000Y-83800000D01*
X206925000Y-83560000D01*
X206925000Y-84040000D01*
G36*
X206925000Y-84040000D02*
G01*
X206595000Y-83800000D01*
X206925000Y-83560000D01*
X206925000Y-84040000D01*
G37*
%TO.C,C9*%
X223490000Y-67190580D02*
X223490000Y-66909420D01*
X224510000Y-67190580D02*
X224510000Y-66909420D01*
%TO.C,Y2*%
X214690000Y-55227500D02*
X214690000Y-59847500D01*
X214690000Y-59847500D02*
X220210000Y-59847500D01*
%TO.C,C21*%
X213454420Y-66415000D02*
X213735580Y-66415000D01*
X213454420Y-67435000D02*
X213735580Y-67435000D01*
%TD*%
M02*
