M48
; DRILL file KiCad 10.0.1 date 2026-04-22T14:26:29
; FORMAT={-:-/ absolute / metric / decimal}
; #@! TF.CreationDate,2026-04-22T14:26:29+05:00
; #@! TF.GenerationSoftware,Kicad,Pcbnew,10.0.1
; #@! TF.FileFunction,Plated,1,4,PTH
FMAT,2
METRIC
; #@! TA.AperFunction,Plated,PTH,ViaDrill
T1C0.300
; #@! TA.AperFunction,Plated,PTH,ComponentDrill
T2C0.600
; #@! TA.AperFunction,Plated,PTH,ComponentDrill
T3C1.000
%
G90
G05
T1
X199.376Y-62.18
X200.716Y-80.759
X201.379Y-63.65
X201.48Y-59.67
X202.3Y-87.4
X203.095Y-60.25
X203.194Y-77.546
X203.994Y-56.006
X204.037Y-84.5
X204.2Y-86.85
X204.36Y-52.6
X204.85Y-77.912
X205.03Y-76.23
X205.26Y-61.12
X205.32Y-79.36
X205.412Y-76.933
X206.205Y-76.83
X206.8Y-66.4
X206.8Y-72.4
X206.86Y-61.99
X206.86Y-81.78
X206.91Y-77.914
X207.41Y-57.8
X207.44Y-82.93
X207.693Y-87.125
X207.75Y-68.75
X207.85Y-56.35
X208.251Y-78.325
X208.4Y-66.4
X208.65Y-81.1
X209.44Y-63.9
X209.451Y-76.83
X209.53Y-61.7
X209.8Y-66.4
X210.275Y-86.15
X210.775Y-82.25
X210.79Y-68.58
X211.25Y-66.5
X211.75Y-56.85
X212.19Y-73.97
X212.44Y-62.17
X212.7Y-60.97
X212.8Y-66.4
X212.9Y-63.48
X212.903Y-60.196
X212.91Y-68.47
X214.0Y-73.0
X214.25Y-66.5
X214.325Y-88.625
X214.63Y-56.45
X214.73Y-47.77
X215.15Y-78.55
X215.225Y-80.025
X215.63Y-61.57
X215.8Y-66.4
X216.125Y-49.975
X216.14Y-63.87
X217.24Y-61.571
X217.4Y-66.4
X217.925Y-83.375
X218.4Y-79.2
X218.675Y-51.05
X218.8Y-66.4
X219.39Y-63.87
X220.17Y-58.67
X220.5Y-66.5
X221.75Y-54.051
X222.39Y-63.87
X222.495Y-60.19
X222.845Y-55.61
X223.2Y-74.6
X223.35Y-91.575
X223.4Y-66.2
X223.4Y-67.8
X223.4Y-71.6
X223.4Y-73.0
X223.6Y-70.0
X223.84Y-64.07
X224.525Y-84.725
X225.35Y-89.7
X225.39Y-63.87
X226.3Y-65.5
X226.8Y-55.6
X227.2Y-62.2
X227.2Y-63.2
X228.2Y-67.4
X229.8Y-65.4
X230.2Y-60.6
X231.05Y-85.25
X231.205Y-80.75
X231.6Y-67.4
X233.805Y-80.75
X234.41Y-45.265
T3
X226.105Y-82.45
X228.645Y-82.45
X231.185Y-82.45
X233.725Y-82.45
T2
G00X216.135Y-44.8
M15
G01X216.135Y-44.2
M16
G05
G00X216.135Y-49.23
M15
G01X216.135Y-48.13
M16
G05
G00X224.775Y-44.8
M15
G01X224.775Y-44.2
M16
G05
G00X224.775Y-49.23
M15
G01X224.775Y-48.13
M16
G05
M30
